<svg width="24" height="24" viewBox="0 0 24 24" fill="none" xmlns="http://www.w3.org/2000/svg">
<path fill-rule="evenodd" clip-rule="evenodd" d="M4.5 2.5C3.39543 2.5 2.5 3.39543 2.5 4.5V19.5C2.5 20.6046 3.39543 21.5 4.5 21.5H19.5C20.6046 21.5 21.5 20.6046 21.5 19.5V4.5C21.5 3.39543 20.6046 2.5 19.5 2.5H4.5ZM7.42994 9.36006C7.52891 9.44927 7.57945 9.58026 7.56603 9.7128V14.4848C7.5954 14.6569 7.54113 14.8328 7.41986 14.9585L6.28575 16.3341V16.5155H9.50158V16.3341L8.36747 14.9585C8.24531 14.833 8.18768 14.6583 8.21122 14.4848V10.3578L11.0339 16.5155H11.3615L13.786 10.3578V15.2658C13.786 15.3968 13.786 15.422 13.7003 15.5077L12.8283 16.3543V16.5357H17.0623V16.3543L16.2205 15.5279C16.1462 15.4712 16.1094 15.3781 16.1248 15.286V9.21393C16.1094 9.12179 16.1462 9.0287 16.2205 8.97206L17.0825 8.14565V7.96425H14.0985L11.9714 13.2704L9.55198 7.96425H6.42185V8.14565L7.42994 9.36006Z" fill="#1F2223"/>
</svg>
