<svg width="24" height="24" viewBox="0 0 24 24" fill="none" xmlns="http://www.w3.org/2000/svg">
<path fill-rule="evenodd" clip-rule="evenodd" d="M12 21.5C17.2467 21.5 21.5 17.2467 21.5 12C21.5 6.75329 17.2467 2.5 12 2.5C6.75329 2.5 2.5 6.75329 2.5 12C2.5 17.2467 6.75329 21.5 12 21.5ZM8.928 10.0721L11.9999 7L15.0729 10.0732L13.943 11.2031L11.9999 9.26016L10.058 11.2021L8.928 10.0721ZM8.12998 13.1298L7 11.9998L8.12998 10.8698L9.25995 11.9998L8.12998 13.1298ZM11.9999 14.74L10.058 12.7981L8.92627 13.9265L8.92793 13.9281L11.9999 17.0001L15.0729 13.9271L15.0734 13.9264L13.9429 12.7971L11.9999 14.74ZM15.87 13.1302L14.7401 12.0002L15.87 10.8702L17 12.0002L15.87 13.1302ZM13.1461 11.9994H13.1466L11.9999 10.8527L11.1526 11.7001H11.1525L11.0552 11.7975L10.8543 11.9984L10.8527 12L10.8543 12.0016L11.9999 13.1473L13.1466 12.0006L13.1471 12L13.1461 11.9994Z" fill="#1F2123"/>
</svg>
