<svg width="24" height="24" viewBox="0 0 24 24" fill="none" xmlns="http://www.w3.org/2000/svg">
<path fill-rule="evenodd" clip-rule="evenodd" d="M12 21.5C17.2467 21.5 21.5 17.2467 21.5 12C21.5 6.75329 17.2467 2.5 12 2.5C6.75329 2.5 2.5 6.75329 2.5 12C2.5 17.2467 6.75329 21.5 12 21.5ZM16.2146 9.88443C16.45 10.1131 16.6759 10.3325 16.8708 10.5125C16.9705 10.5994 17.0173 10.7323 16.9942 10.8625C16.9495 10.9444 16.8972 11.0218 16.838 11.0938C16.3804 11.6781 11.8574 17.1656 11.8574 17.1656C11.8574 17.1656 11.6044 17.4999 11.5451 17.4999H11.5201C11.4093 17.4906 11.3499 17.3065 11.3187 17.2096L11.3186 17.2093C11.0811 16.5551 10.3997 14.9233 9.6669 13.1683L9.66688 13.1683L9.66685 13.1682C8.80009 11.0924 7.86137 8.84424 7.5 7.83756V7.82037V7.70943L7.50781 7.68912C7.52473 7.63985 7.55248 7.595 7.58902 7.55787L7.6187 7.53443C7.64594 7.51634 7.6769 7.5046 7.70928 7.50006C7.81877 7.48674 13.1415 8.48034 14.7836 8.78687L15.0216 8.83129C15.0844 8.85367 15.143 8.88641 15.195 8.92817L15.2262 8.95004C15.5346 9.22385 15.884 9.56324 16.2146 9.88443ZM14.9481 9.54979L13.0177 11.1513L16.0804 10.5935L14.9481 9.54979ZM12.2681 11.0467L8.94455 8.32177L14.3218 9.31394L12.2681 11.0467ZM15.9697 11.2124L12.5681 11.7608L12.0808 15.8998L15.9697 11.2124ZM8.49319 8.59398L11.9901 11.5627L11.484 15.9033L8.49319 8.59398Z" fill="#1F2123"/>
</svg>
