<svg width="24" height="24" viewBox="0 0 24 24" fill="none" xmlns="http://www.w3.org/2000/svg">
<path fill-rule="evenodd" clip-rule="evenodd" d="M8.47534 19.45C15.6455 19.45 19.5664 13.6027 19.5664 8.53242C19.5664 8.36615 19.563 8.20076 19.5553 8.03635C20.3163 7.49472 20.978 6.81882 21.5 6.04951C20.8015 6.35494 20.0499 6.56072 19.2614 6.65357C20.0661 6.17856 20.6841 5.427 20.9754 4.53093C20.2221 4.97044 19.3882 5.29017 18.5002 5.46231C17.789 4.71653 16.7758 4.25 15.6549 4.25C13.502 4.25 11.7561 5.96849 11.7561 8.08694C11.7561 8.38804 11.7904 8.68094 11.8573 8.96187C8.61756 8.80151 5.74469 7.27454 3.82235 4.95269C3.48717 5.51971 3.29441 6.17856 3.29441 6.88143C3.29441 8.21268 3.98265 9.38782 5.02908 10.0754C4.38977 10.056 3.78899 9.88301 3.26364 9.59532C3.26279 9.6113 3.26279 9.62747 3.26279 9.64433C3.26279 11.5029 4.60654 13.0543 6.39015 13.4062C6.06269 13.4939 5.71818 13.5411 5.36246 13.5411C5.11139 13.5411 4.86717 13.5166 4.62973 13.472C5.12587 14.9964 6.56489 16.1058 8.2714 16.1371C6.93684 17.1663 5.25626 17.7796 3.42991 17.7796C3.11527 17.7796 2.80513 17.7618 2.5 17.7265C4.22526 18.8148 6.27353 19.45 8.47534 19.45Z" fill="#1F2123"/>
</svg>
