<svg width="24" height="24" viewBox="0 0 24 24" fill="none" xmlns="http://www.w3.org/2000/svg">
<path fill-rule="evenodd" clip-rule="evenodd" d="M12 21.5C17.2467 21.5 21.5 17.2467 21.5 12C21.5 6.75329 17.2467 2.5 12 2.5C6.75329 2.5 2.5 6.75329 2.5 12C2.5 17.2467 6.75329 21.5 12 21.5ZM12.3861 9.40827C11.5237 9.76697 9.80004 10.5094 7.21523 11.6356C6.7955 11.8025 6.57562 11.9658 6.5556 12.1254C6.52178 12.3953 6.85969 12.5015 7.31984 12.6462C7.38243 12.6659 7.44729 12.6863 7.51377 12.7079C7.96649 12.8551 8.57547 13.0272 8.89206 13.0341C9.17923 13.0403 9.49975 12.9219 9.85361 12.6789C12.2687 11.0487 13.5154 10.2247 13.5936 10.2069C13.6488 10.1944 13.7254 10.1786 13.7772 10.2247C13.8291 10.2708 13.824 10.358 13.8185 10.3814C13.785 10.5241 12.4586 11.7573 11.7721 12.3955C11.5581 12.5944 11.4063 12.7356 11.3753 12.7678C11.3058 12.84 11.235 12.9083 11.1669 12.9739C10.7463 13.3794 10.4309 13.6834 11.1843 14.1799C11.5464 14.4185 11.8361 14.6158 12.1252 14.8127C12.4409 15.0276 12.7557 15.242 13.1631 15.5091C13.2669 15.5771 13.366 15.6478 13.4625 15.7166C13.8299 15.9785 14.1599 16.2138 14.5677 16.1763C14.8046 16.1545 15.0493 15.9317 15.1736 15.2672C15.4674 13.6969 16.0448 10.2946 16.1782 8.89255C16.1899 8.76972 16.1752 8.61251 16.1634 8.5435C16.1516 8.47449 16.1269 8.37617 16.0372 8.30338C15.9309 8.21718 15.7669 8.199 15.6936 8.20029C15.3601 8.20617 14.8484 8.38408 12.3861 9.40827Z" fill="#323436"/>
</svg>
