<svg width="24" height="24" viewBox="0 0 24 24" fill="none" xmlns="http://www.w3.org/2000/svg">
<path fill-rule="evenodd" clip-rule="evenodd" d="M8.08368 2.5574C9.09703 2.51128 9.42082 2.5 12.0009 2.5H11.9979C14.5788 2.5 14.9014 2.51128 15.9147 2.5574C16.9261 2.60371 17.6168 2.76382 18.2225 2.99875C18.8479 3.2412 19.3763 3.56578 19.9048 4.09422C20.4332 4.62226 20.7578 5.15228 21.0012 5.7771C21.2348 6.38115 21.3951 7.07148 21.4426 8.08283C21.4881 9.09617 21.5 9.41996 21.5 12C21.5 14.58 21.4881 14.903 21.4426 15.9164C21.3951 16.9273 21.2348 17.6179 21.0012 18.2221C20.7578 18.8467 20.4332 19.3768 19.9048 19.9048C19.3769 20.4332 18.8477 20.7586 18.2231 21.0012C17.6186 21.2362 16.9275 21.3963 15.9161 21.4426C14.9028 21.4887 14.58 21.5 11.9997 21.5C9.41983 21.5 9.09623 21.4887 8.08289 21.4426C7.07172 21.3963 6.38118 21.2362 5.77674 21.0012C5.15231 20.7586 4.62228 20.4332 4.09443 19.9048C3.56619 19.3768 3.2416 18.8467 2.99876 18.2219C2.76402 17.6179 2.60391 16.9275 2.5574 15.9162C2.51148 14.9028 2.5 14.58 2.5 12C2.5 9.41996 2.51188 9.09597 2.5572 8.08264C2.60272 7.07168 2.76303 6.38115 2.99856 5.77691C3.242 5.15228 3.56658 4.62226 4.09503 4.09422C4.62307 3.56598 5.1531 3.2414 5.77793 2.99875C6.38198 2.76382 7.07232 2.60371 8.08368 2.5574ZM15.9322 6.92889C15.9322 6.29931 16.4428 5.78928 17.0722 5.78928C17.7016 5.78928 18.2122 6.29951 18.2122 6.92889C18.2122 7.55826 17.7016 8.06889 17.0722 8.06889C16.4428 8.06889 15.9322 7.55826 15.9322 6.92889ZM7.12244 11.9999C7.12244 9.30567 9.30686 7.12126 12.0011 7.12126C14.6954 7.12126 16.879 9.30567 16.879 11.9999C16.879 14.6941 14.6954 16.8776 12.0011 16.8776C9.30686 16.8776 7.12244 14.6941 7.12244 11.9999ZM15.1678 11.9999C15.1678 10.2509 13.7499 8.83324 12.0011 8.83324C10.2521 8.83324 8.83443 10.2509 8.83443 11.9999C8.83443 13.7487 10.2521 15.1666 12.0011 15.1666C13.7499 15.1666 15.1678 13.7487 15.1678 11.9999Z" fill="#1F2123"/>
</svg>
