<svg width="24" height="24" viewBox="0 0 24 24" fill="none" xmlns="http://www.w3.org/2000/svg">
<path fill-rule="evenodd" clip-rule="evenodd" d="M12 21.5C17.2467 21.5 21.5 17.2467 21.5 12C21.5 6.75329 17.2467 2.5 12 2.5C6.75329 2.5 2.5 6.75329 2.5 12C2.5 17.2467 6.75329 21.5 12 21.5ZM7.92451 10.6866C8.14325 10.8327 8.40039 10.9106 8.66342 10.9106C9.01602 10.9104 9.35413 10.7702 9.60343 10.5208C9.85273 10.2715 9.99282 9.93334 9.99291 9.58073C9.99291 9.3177 9.91491 9.06058 9.76877 8.84188C9.62263 8.62318 9.41492 8.45274 9.17191 8.3521C8.92889 8.25145 8.66149 8.22514 8.40352 8.27648C8.14555 8.32782 7.9086 8.4545 7.72263 8.64052C7.53666 8.82653 7.41004 9.06351 7.35876 9.3215C7.30749 9.57948 7.33387 9.84688 7.43458 10.0899C7.53528 10.3329 7.70578 10.5405 7.92451 10.6866ZM11.2616 17.3592C11.4803 17.5053 11.7373 17.5832 12.0003 17.5832C12.3529 17.5832 12.691 17.4432 12.9403 17.1938C13.1897 16.9445 13.3297 16.6063 13.3297 16.2537C13.3297 15.9908 13.2518 15.7337 13.1057 15.5151C12.9596 15.2965 12.752 15.1261 12.509 15.0254C12.2661 14.9248 11.9988 14.8985 11.7409 14.9498C11.483 15.0011 11.2461 15.1277 11.0602 15.3136C10.8742 15.4996 10.7476 15.7365 10.6963 15.9944C10.645 16.2523 10.6713 16.5196 10.772 16.7625C10.8726 17.0054 11.043 17.2131 11.2616 17.3592ZM11.2616 14.0223C11.4803 14.1684 11.7373 14.2464 12.0003 14.2464V14.2474C12.1749 14.2474 12.3479 14.213 12.5093 14.1461C12.6706 14.0792 12.8172 13.9812 12.9407 13.8576C13.0642 13.7341 13.1621 13.5874 13.2288 13.426C13.2956 13.2646 13.3299 13.0916 13.3297 12.9169C13.3297 12.6539 13.2518 12.3969 13.1057 12.1783C12.9596 11.9596 12.752 11.7892 12.509 11.6886C12.2661 11.588 11.9988 11.5616 11.7409 11.6129C11.483 11.6642 11.2461 11.7909 11.0602 11.9768C10.8742 12.1627 10.7476 12.3996 10.6963 12.6575C10.645 12.9154 10.6713 13.1827 10.772 13.4257C10.8726 13.6686 11.043 13.8762 11.2616 14.0223ZM11.2614 10.6856C11.4801 10.8317 11.7372 10.9096 12.0003 10.9095V10.9106C12.1749 10.9105 12.3479 10.876 12.5093 10.8091C12.6707 10.7422 12.8173 10.6442 12.9407 10.5206C13.0642 10.397 13.1621 10.2503 13.2288 10.0889C13.2956 9.92742 13.3299 9.75441 13.3297 9.57972C13.3297 9.31669 13.2517 9.05957 13.1056 8.84087C12.9595 8.62218 12.7518 8.45173 12.5087 8.35109C12.2657 8.25045 11.9983 8.22413 11.7404 8.27547C11.4824 8.32681 11.2454 8.4535 11.0595 8.63951C10.8735 8.82552 10.7469 9.06251 10.6956 9.32049C10.6443 9.57847 10.6707 9.84587 10.7714 10.0889C10.8721 10.3318 11.0426 10.5395 11.2614 10.6856ZM14.5983 10.6854C14.817 10.8316 15.0741 10.9095 15.3371 10.9095V10.9106C15.5118 10.9106 15.6848 10.8761 15.8462 10.8092C16.0076 10.7423 16.1543 10.6443 16.2778 10.5207C16.4013 10.3971 16.4992 10.2504 16.566 10.0889C16.6328 9.92747 16.6671 9.75444 16.6669 9.57972C16.6669 9.31671 16.5889 9.0596 16.4428 8.84091C16.2967 8.62222 16.089 8.45177 15.846 8.35112C15.603 8.25047 15.3356 8.22413 15.0777 8.27544C14.8197 8.32676 14.5827 8.45341 14.3968 8.63939C14.2108 8.82537 14.0841 9.06232 14.0328 9.32028C13.9815 9.57825 14.0078 9.84563 14.1085 10.0886C14.2091 10.3316 14.3796 10.5393 14.5983 10.6854Z" fill="#1F2123"/>
</svg>
