<svg width="24" height="24" viewBox="0 0 24 24" fill="none" xmlns="http://www.w3.org/2000/svg">
<path fill-rule="evenodd" clip-rule="evenodd" d="M4.5 2.5C3.39543 2.5 2.5 3.39543 2.5 4.5V19.5C2.5 20.6046 3.39543 21.5 4.5 21.5H19.5C20.6046 21.5 21.5 20.6046 21.5 19.5V4.5C21.5 3.39543 20.6046 2.5 19.5 2.5H4.5ZM16.5587 7.12134L12.9285 11.2537L16.875 16.8794H13.9714L11.3129 13.0903L7.98495 16.8794H7.125L10.9317 12.5465L7.125 7.12134H10.0285L12.5453 10.7087L15.6988 7.12134H16.5587ZM9.61644 7.75638H8.29532L14.3767 16.2756H15.6981L9.61644 7.75638Z" fill="#36373A"/>
</svg>
