<svg width="24" height="24" viewBox="0 0 24 24" fill="none" xmlns="http://www.w3.org/2000/svg">
<path fill-rule="evenodd" clip-rule="evenodd" d="M12 21.5C17.2467 21.5 21.5 17.2467 21.5 12C21.5 6.75329 17.2467 2.5 12 2.5C6.75329 2.5 2.5 6.75329 2.5 12C2.5 17.2467 6.75329 21.5 12 21.5ZM16.3596 11.9722C16.8814 10.8414 16.2067 9.97191 15.1507 9.22535L15.6563 8.34958L14.57 7.72244L14.0874 8.55842C13.9363 8.47121 13.4858 8.22821 12.7358 7.82942L12.7264 7.82426L12.7264 7.82426C12.5405 7.72198 12.3577 7.62137 12.1817 7.51976L12.1843 7.51527L10.9942 6.82735L10.4349 7.7962C10.4349 7.7962 11.0799 8.15151 11.0619 8.15735C11.4119 8.35941 11.4025 8.63801 11.3292 8.8412L10.349 10.5389C10.3734 10.553 10.4038 10.5723 10.4363 10.5979L10.3453 10.5453L8.97145 12.9235C8.8895 13.0301 8.71845 13.1769 8.47377 13.0365C8.47884 13.0531 7.84651 12.6743 7.84651 12.6743L7.04958 13.6583L8.1734 14.3071C8.27598 14.3664 8.68934 14.6141 9.11005 14.8662L9.11026 14.8664C9.54616 15.1276 9.98988 15.3935 10.1039 15.4594L9.57003 16.3827L10.6551 17.0091L11.1998 16.0656C12.7014 16.8161 13.9402 17.0189 14.8929 15.6595C15.6605 14.5654 15.4419 13.7522 14.738 13.0686C15.3935 13.0912 15.9791 12.8005 16.3596 11.9722ZM14.5585 11.3737C15.1134 10.4139 13.8563 9.73405 13.2417 9.40165L13.2417 9.40163C13.1725 9.36418 13.1114 9.33115 13.062 9.30262L12.0166 11.1133C12.0578 11.137 12.1059 11.1658 12.1598 11.1982L12.16 11.1983L12.16 11.1983C12.7453 11.5493 14.0169 12.3118 14.5585 11.3737ZM11.4895 12.0263L10.3363 14.0237C10.384 14.0512 10.4395 14.0844 10.5015 14.1215L10.5017 14.1215C11.2017 14.54 12.7366 15.4574 13.3338 14.4231C13.9426 13.3685 12.4419 12.5487 11.7061 12.1467L11.7061 12.1467L11.706 12.1467C11.6226 12.1011 11.549 12.0609 11.4895 12.0263Z" fill="#1F2123"/>
</svg>
