<svg width="20" height="20" viewBox="0 0 20 20" fill="none" xmlns="http://www.w3.org/2000/svg">
<path d="M3.77674 19.0013C3.15231 18.7586 2.62228 18.4332 2.09443 17.9048C1.56619 17.3768 1.2416 16.8467 0.998756 16.2219C0.764025 15.6179 0.603909 14.9275 0.557398 13.9162M3.77674 19.0013L13.8784 1.35657C14.8141 1.39944 15.4181 1.5448 15.9331 1.7446L15.9333 1.74466C16.4619 1.94957 16.8943 2.21515 17.3391 2.65991L17.3393 2.66012C17.7831 3.10358 18.0491 3.53731 18.2554 4.06639C18.454 4.58037 18.5995 5.18436 18.6435 6.11978C18.6882 7.1147 18.7 7.42542 18.7 10C18.7 12.575 18.6881 12.8846 18.6434 13.88C18.5994 14.8143 18.4541 15.4183 18.2556 15.9322C18.0493 16.4614 17.7832 16.8953 17.3393 17.3389L17.3388 17.3394C16.8946 17.7841 16.4613 18.0504 15.9334 18.2555L15.9332 18.2556C15.4198 18.4552 14.8156 18.6006 13.8798 18.6434C12.8845 18.6887 12.5758 18.7 9.9997 18.7C7.42397 18.7 7.11452 18.6887 6.11926 18.6434C5.18367 18.6006 4.5801 18.4552 4.06655 18.2556L4.0665 18.2556C3.53836 18.0503 3.10437 17.7839 2.66043 17.3394L2.66001 17.339C2.21602 16.8952 1.95009 16.4613 1.74443 15.9321C1.54503 15.419 1.39965 14.8157 1.35658 13.88L0.557398 13.9162M3.77674 19.0013C4.38119 19.2362 5.07172 19.3963 6.08289 19.4426L3.77674 19.0013ZM0.557398 13.9162C0.51148 12.9028 0.5 12.58 0.5 10C0.5 7.41996 0.511875 7.09597 0.557199 6.08264L1.35657 13.8797M0.557398 13.9162L1.35655 13.8794C1.35656 13.8795 1.35656 13.8796 1.35657 13.8797M1.35657 13.8797C1.31147 12.8845 1.3 12.5755 1.3 10C1.3 7.42474 1.31186 7.11427 1.35639 6.11862L1.35657 13.8797ZM4.06791 1.74435L4.06753 1.74449C3.53855 1.94992 3.10465 2.2158 2.66082 2.6598L2.6605 2.66012C2.21637 3.10391 1.95029 3.53798 1.74395 4.06741L1.74394 4.06744C1.544 4.58037 1.39852 5.18347 1.3564 6.11838L4.06791 1.74435ZM4.06791 1.74435C4.58095 1.54481 5.18425 1.39944 6.12005 1.35657L4.06791 1.74435ZM6.12028 1.35656C7.11497 1.31129 7.42492 1.30001 9.99792 1.3L6.12028 1.35656ZM10.0009 1.3C12.5747 1.30001 12.8834 1.31129 13.8781 1.35656L10.0009 1.3Z" stroke="black" stroke-width="1.6"/>
</svg>
