<svg width="24" height="24" viewBox="0 0 24 24" fill="none" xmlns="http://www.w3.org/2000/svg">
<path fill-rule="evenodd" clip-rule="evenodd" d="M4.05102 12C4.05102 7.6099 7.6099 4.05102 12 4.05102C16.3901 4.05102 19.949 7.6099 19.949 12C19.949 16.3901 16.3901 19.949 12 19.949C7.6099 19.949 4.05102 16.3901 4.05102 12ZM12 2.5C6.7533 2.5 2.5 6.7533 2.5 12C2.5 17.2467 6.7533 21.5 12 21.5C17.2467 21.5 21.5 17.2467 21.5 12C21.5 6.7533 17.2467 2.5 12 2.5ZM11.9938 7C13.375 7 14.6188 7.5625 15.525 8.46875L17 7L16.9938 11.375L13.25 10.75L14.6313 9.3625C13.9563 8.68125 13.0312 8.25 11.9938 8.25C9.925 8.25 8.24375 9.93125 8.24375 12C8.24375 14.0688 9.925 15.75 11.9938 15.75C13.4618 15.75 14.7325 14.9046 15.3456 13.6739C15.4686 13.4269 15.7096 13.25 15.9856 13.25C16.4107 13.25 16.7217 13.6534 16.5483 14.0415C15.7692 15.785 14.0292 17 11.9938 17C9.23125 17 7 14.7625 7 12C7 9.2375 9.23125 7 11.9938 7Z" fill="#1F2223"/>
</svg>
