<svg width="24" height="24" viewBox="0 0 24 24" fill="none" xmlns="http://www.w3.org/2000/svg">
<path d="M5.77674 21.0013C5.15231 20.7586 4.62228 20.4332 4.09443 19.9048C3.56619 19.3768 3.2416 18.8467 2.99876 18.2219C2.76402 17.6179 2.60391 16.9275 2.5574 15.9162M5.77674 21.0013L15.8784 3.35657C16.8141 3.39944 17.4181 3.5448 17.9331 3.7446L17.9333 3.74466C18.4619 3.94957 18.8943 4.21515 19.3391 4.65991L19.3393 4.66012C19.7831 5.10358 20.0491 5.53731 20.2554 6.06639C20.454 6.58037 20.5995 7.18436 20.6435 8.11978C20.6882 9.1147 20.7 9.42542 20.7 12C20.7 14.575 20.6881 14.8846 20.6434 15.88C20.5994 16.8143 20.4541 17.4183 20.2556 17.9322C20.0493 18.4614 19.7832 18.8953 19.3393 19.3389L19.3388 19.3394C18.8946 19.7841 18.4613 20.0504 17.9334 20.2555L17.9332 20.2556C17.4198 20.4552 16.8156 20.6006 15.8798 20.6434C14.8845 20.6887 14.5758 20.7 11.9997 20.7C9.42397 20.7 9.11452 20.6887 8.11926 20.6434C7.18367 20.6006 6.5801 20.4552 6.06655 20.2556L6.0665 20.2556C5.53836 20.0503 5.10437 19.7839 4.66043 19.3394L4.66001 19.339C4.21602 18.8952 3.95009 18.4613 3.74443 17.9321C3.54503 17.419 3.39965 16.8157 3.35658 15.88L2.5574 15.9162M5.77674 21.0013C6.38119 21.2362 7.07172 21.3963 8.08289 21.4426L5.77674 21.0013ZM2.5574 15.9162C2.51148 14.9028 2.5 14.58 2.5 12C2.5 9.41996 2.51188 9.09597 2.5572 8.08264L3.35657 15.8797M2.5574 15.9162L3.35655 15.8794C3.35656 15.8795 3.35656 15.8796 3.35657 15.8797M3.35657 15.8797C3.31147 14.8845 3.3 14.5755 3.3 12C3.3 9.42474 3.31186 9.11427 3.35639 8.11862L3.35657 15.8797ZM6.06791 3.74435L6.06753 3.74449C5.53855 3.94992 5.10465 4.2158 4.66082 4.6598L4.6605 4.66012C4.21637 5.10391 3.95029 5.53798 3.74395 6.06741L3.74394 6.06744C3.544 6.58037 3.39852 7.18347 3.3564 8.11838L6.06791 3.74435ZM6.06791 3.74435C6.58095 3.54481 7.18425 3.39944 8.12005 3.35657L6.06791 3.74435ZM8.12028 3.35656C9.11497 3.31129 9.42492 3.30001 11.9979 3.3L8.12028 3.35656ZM12.0009 3.3C14.5747 3.30001 14.8834 3.31129 15.8781 3.35656L12.0009 3.3Z" stroke="black" stroke-width="1.6"/>
<path d="M16.8052 6.11621C16.209 6.11621 15.7252 6.5994 15.7252 7.19584C15.7252 7.79209 16.209 8.27584 16.8052 8.27584C17.4015 8.27584 17.8853 7.79209 17.8853 7.19584C17.8853 6.59959 17.4015 6.11621 16.8052 6.11621ZM12.0011 7.37809C9.44861 7.37809 7.37915 9.44752 7.37915 12C7.37915 14.5524 9.44861 16.6209 12.0011 16.6209C14.5535 16.6209 16.6222 14.5524 16.6222 12C16.6222 9.44752 14.5535 7.37809 12.0011 7.37809ZM12.0011 8.99996C13.6578 8.99996 15.0011 10.343 15.0011 12C15.0011 13.6567 13.6578 15 12.0011 15C10.3441 15 9.00104 13.6567 9.00104 12C9.00104 10.343 10.3441 8.99996 12.0011 8.99996Z" fill="#1F2223"/>
</svg>
