<svg width="24" height="24" viewBox="0 0 24 24" fill="none" xmlns="http://www.w3.org/2000/svg">
<path fill-rule="evenodd" clip-rule="evenodd" d="M12 20C16.4183 20 20 16.4183 20 12C20 7.58172 16.4183 4 12 4C7.58172 4 4 7.58172 4 12C4 16.4183 7.58172 20 12 20ZM12 21.5C17.2467 21.5 21.5 17.2467 21.5 12C21.5 6.75329 17.2467 2.5 12 2.5C6.75329 2.5 2.5 6.75329 2.5 12C2.5 17.2467 6.75329 21.5 12 21.5Z" fill="#323436"/>
<path fill-rule="evenodd" clip-rule="evenodd" d="M17.0304 9.21203L10.3637 15.8787L6.96973 12.4848L8.03039 11.4241L10.3637 13.7574L15.9697 8.15137L17.0304 9.21203Z" fill="#323436"/>
</svg>
