<svg width="24" height="24" viewBox="0 0 24 24" fill="none" xmlns="http://www.w3.org/2000/svg">
<circle cx="12" cy="12" r="9.5" fill="#1F2223"/>
<path fill-rule="evenodd" clip-rule="evenodd" d="M11.9999 7L8.928 10.0721L10.058 11.2021L11.9999 9.26016L13.943 11.2031L15.0729 10.0732L11.9999 7ZM7 11.9998L8.12998 13.1298L9.25995 11.9998L8.12998 10.8698L7 11.9998ZM10.058 12.7981L11.9999 14.74L13.9429 12.7971L15.0734 13.9264L15.0729 13.9271L11.9999 17.0001L8.92793 13.9281L8.92627 13.9265L10.058 12.7981ZM14.7401 12.0002L15.87 13.1302L17 12.0002L15.87 10.8702L14.7401 12.0002ZM13.1466 11.9994H13.1461L13.1471 12L13.1466 12.0006L11.9999 13.1473L10.8543 12.0016L10.8527 12L10.8543 11.9984L11.0552 11.7975L11.1525 11.7001H11.1526L11.9999 10.8527L13.1466 11.9994Z" fill="white"/>
</svg>
