<svg width="24" height="24" viewBox="0 0 24 24" fill="none" xmlns="http://www.w3.org/2000/svg">
<path fill-rule="evenodd" clip-rule="evenodd" d="M12 21.5C17.2467 21.5 21.5 17.2467 21.5 12C21.5 6.75329 17.2467 2.5 12 2.5C6.75329 2.5 2.5 6.75329 2.5 12C2.5 17.2467 6.75329 21.5 12 21.5ZM11.9938 7C13.375 7 14.6188 7.5625 15.525 8.46875L17 7L16.9938 11.375L13.25 10.75L14.6313 9.3625C13.9563 8.68125 13.0312 8.25 11.9938 8.25C9.925 8.25 8.24375 9.93125 8.24375 12C8.24375 14.0688 9.925 15.75 11.9938 15.75C13.4618 15.75 14.7325 14.9046 15.3456 13.6739C15.4686 13.4269 15.7096 13.25 15.9856 13.25C16.4107 13.25 16.7217 13.6534 16.5483 14.0415C15.7692 15.785 14.0292 17 11.9938 17C9.23125 17 7 14.7625 7 12C7 9.2375 9.23125 7 11.9938 7Z" fill="#1F2223"/>
</svg>
