<svg width="24" height="24" viewBox="0 0 24 24" fill="none" xmlns="http://www.w3.org/2000/svg">
<path fill-rule="evenodd" clip-rule="evenodd" d="M12 20.5C17.2467 20.5 21.5 16.4706 21.5 11.5C21.5 6.52944 17.2467 2.5 12 2.5C6.75329 2.5 2.5 6.52944 2.5 11.5C2.5 16.4706 6.75329 20.5 12 20.5ZM9.9576 16.9854C10.1302 17.0399 10.27 16.9373 10.27 16.7567V16.3051C10.27 16.1845 10.1779 16.0461 10.0647 16.0039C8.24955 15.3298 6.94926 13.5652 6.94926 11.4969C6.94926 9.4286 8.24955 7.66428 10.0647 6.98989C10.1779 6.95072 10.27 6.80921 10.27 6.68899V6.24317C10.27 6.06258 10.1302 5.96033 9.9576 6.01451C7.66339 6.75503 6 8.93175 6 11.4999C6 14.0682 7.66339 16.2448 9.9576 16.9854ZM12.4478 15.1667C12.5798 15.1667 12.6878 15.0632 12.6878 14.9367H12.6908V14.2127C13.6779 14.0605 14.308 13.4024 14.308 12.5893C14.308 11.5173 13.6298 11.1581 12.316 10.9858C11.3439 10.8505 11.1577 10.6322 11.1577 10.1983C11.1577 9.7875 11.4848 9.49449 12.1178 9.49449C12.6908 9.49449 13.0209 9.68408 13.1559 10.1264C13.1889 10.2269 13.2789 10.2959 13.3868 10.2959H13.891C14.0319 10.2959 14.1399 10.1726 14.11 10.0402C13.9509 9.34486 13.4619 8.92561 12.6908 8.79322V8.06331C12.6908 7.93683 12.5829 7.83333 12.4509 7.83333H11.9738C11.8419 7.83333 11.7338 7.93683 11.7338 8.06331V8.77307C10.7859 8.90246 10.1738 9.50581 10.1738 10.2816C10.1738 11.2873 10.8068 11.6753 12.1448 11.8477C13.0508 11.9915 13.3089 12.1782 13.3089 12.6726C13.3089 13.1666 12.8708 13.4971 12.2528 13.4971C11.4158 13.4971 11.1429 13.1494 11.0408 12.6953C11.0168 12.5863 10.9207 12.5086 10.8068 12.5086H10.2607C10.1227 12.5086 10.0147 12.6264 10.0388 12.7559C10.1768 13.5172 10.6867 14.0777 11.7308 14.2127V14.9367C11.7308 15.0632 11.8388 15.1667 11.9707 15.1667H12.4478ZM14.0399 16.9854C13.8674 17.0399 13.7273 16.9373 13.7273 16.7566V16.3109C13.7273 16.1784 13.8078 16.0549 13.9328 16.0096C15.749 15.3349 17.0501 13.5698 17.0501 11.5006C17.0501 9.43141 15.749 7.66632 13.9328 6.99163C13.8197 6.94939 13.7273 6.81096 13.7273 6.69025V6.24459C13.7273 6.06392 13.8674 5.95857 14.0399 6.01547C16.3355 6.75676 17.9999 8.93434 17.9999 11.5036C17.9971 14.0668 16.3355 16.2415 14.0399 16.9854Z" fill="#1F2223"/>
</svg>
