<svg width="24" height="24" viewBox="0 0 24 24" fill="none" xmlns="http://www.w3.org/2000/svg">
<circle cx="12" cy="12" r="9" fill="#323436"/>
<path fill-rule="evenodd" clip-rule="evenodd" d="M15.1636 8.7997C14.8973 8.53342 14.4656 8.53342 14.1993 8.79972L11.9817 11.0173L9.76407 8.79972C9.49778 8.53342 9.06603 8.53342 8.79973 8.7997C8.53342 9.066 8.53341 9.49776 8.79971 9.76407L11.0173 11.9817L8.79971 14.1993C8.53341 14.4656 8.53342 14.8974 8.79973 15.1637C9.06603 15.43 9.49778 15.43 9.76407 15.1637L11.9817 12.9461L14.1993 15.1637C14.4656 15.43 14.8973 15.43 15.1636 15.1637C15.4299 14.8974 15.4299 14.4656 15.1636 14.1993L12.946 11.9817L15.1636 9.76407C15.4299 9.49776 15.4299 9.066 15.1636 8.7997Z" fill="white"/>
</svg>
