<svg width="24" height="24" viewBox="0 0 24 24" fill="none" xmlns="http://www.w3.org/2000/svg">
<path fill-rule="evenodd" clip-rule="evenodd" d="M12 21C16.9706 21 21 16.9706 21 12C21 7.02944 16.9706 3 12 3C7.02944 3 3 7.02944 3 12C3 16.9706 7.02944 21 12 21ZM14.1993 8.79974C14.4656 8.53345 14.8973 8.53344 15.1636 8.79973C15.4299 9.06602 15.4299 9.49779 15.1636 9.76409L12.946 11.9817L15.1636 14.1994C15.4299 14.4657 15.4299 14.8974 15.1636 15.1637C14.8973 15.43 14.4656 15.43 14.1993 15.1637L11.9817 12.9461L9.76409 15.1637C9.4978 15.43 9.06605 15.43 8.79975 15.1637C8.53344 14.8974 8.53343 14.4657 8.79974 14.1994L11.0173 11.9817L8.79973 9.76409C8.53343 9.49778 8.53344 9.06602 8.79975 8.79973C9.06605 8.53344 9.4978 8.53345 9.76409 8.79974L11.9817 11.0174L14.1993 8.79974Z" fill="#F05014"/>
</svg>
