<svg width="54" height="54" viewBox="0 0 54 54" fill="none" xmlns="http://www.w3.org/2000/svg">
<path fill-rule="evenodd" clip-rule="evenodd" d="M10 12H44C46.2091 12 48 13.7909 48 16V40C48 42.2091 46.2091 44 44 44H10C7.79086 44 6 42.2091 6 40V16C6 13.7909 7.79086 12 10 12Z" fill="url(#paint0_linear_20_459)"/>
<path opacity="0.7" d="M21 19H13C12.4477 19 12 19.4477 12 20V21C12 21.5523 12.4477 22 13 22H21C21.5523 22 22 21.5523 22 21V20C22 19.4477 21.5523 19 21 19Z" fill="white"/>
<path opacity="0.7" d="M31 25H13C12.4477 25 12 25.4477 12 26V27C12 27.5523 12.4477 28 13 28H31C31.5523 28 32 27.5523 32 27V26C32 25.4477 31.5523 25 31 25Z" fill="white"/>
<defs>
<linearGradient id="paint0_linear_20_459" x1="27" y1="59.5215" x2="27" y2="12" gradientUnits="userSpaceOnUse">
<stop stop-color="#34A467"/>
<stop offset="1" stop-color="#15C27E"/>
</linearGradient>
</defs>
</svg>
