<svg width="18" height="18" viewBox="0 0 18 18" fill="none" xmlns="http://www.w3.org/2000/svg">
<path fill-rule="evenodd" clip-rule="evenodd" d="M4.74365 1.5349C5.07812 1.19283 5.53635 1 6.01477 1H11.9852C12.4636 1 12.9219 1.19283 13.2563 1.5349L16.4933 4.84547C16.8181 5.17764 17 5.62376 17 6.08834V11.9117C17 12.3762 16.8181 12.8224 16.4933 13.1545L13.2563 16.4651C12.9219 16.8072 12.4636 17 11.9852 17H6.01478C5.53635 17 5.07812 16.8072 4.74365 16.4651L1.50665 13.1545C1.18186 12.8224 1 12.3762 1 11.9117V6.08834C1 5.62376 1.18186 5.17764 1.50665 4.84547L4.74365 1.5349Z" fill="#FCD632"/>
<path fill-rule="evenodd" clip-rule="evenodd" d="M8.25 4.75C8.25 4.33579 8.58579 4 9 4C9.41421 4 9.75 4.33579 9.75 4.75V10.25C9.75 10.6642 9.41421 11 9 11C8.58579 11 8.25 10.6642 8.25 10.25V4.75Z" fill="#292929"/>
<path fill-rule="evenodd" clip-rule="evenodd" d="M8 13C8 12.4477 8.44772 12 9 12C9.55228 12 10 12.4477 10 13C10 13.5523 9.55228 14 9 14C8.44772 14 8 13.5523 8 13Z" fill="#292929"/>
</svg>
