<svg width="20" height="20" viewBox="0 0 20 20" fill="none" xmlns="http://www.w3.org/2000/svg">
<path d="M11.9739 7.21532L15.1818 3.5495C15.4867 3.2472 15.5789 2.79498 15.4162 2.40027C15.2534 2.00556 14.8671 1.7445 14.4344 1.73685H14.3845C13.4337 1.73685 13.425 2.54861 12.5478 2.4737C11.8865 2.40124 11.6657 2.05861 11.4611 1.85966C11.2564 1.66071 10.9295 1 10 1C9.03677 1 8.73856 1.65211 8.53768 1.85966C8.3368 2.0672 8.11346 2.40247 7.45217 2.4737C6.57877 2.5523 6.5663 1.73685 5.61429 1.73685H5.56438C5.13144 1.74402 4.74466 2.0049 4.5816 2.39972C4.41853 2.79454 4.51069 3.24704 4.81575 3.5495L8.02612 7.21532C5.33979 9.82745 2.5 12.754 2.5 15.2998C2.5 18.2926 5.30611 19 10 19C14.6939 19 17.5 18.2926 17.5 15.2998C17.5 12.754 14.6602 9.82745 11.9739 7.21532Z" fill="#8271FF"/>
</svg>
