<svg width="20" height="20" viewBox="0 0 20 20" fill="none" xmlns="http://www.w3.org/2000/svg">
<rect y="1" width="20" height="2" rx="0.757668" fill="#585B60"/>
<path fill-rule="evenodd" clip-rule="evenodd" d="M1 3H19V18C19 18.5523 18.5523 19 18 19H2C1.44772 19 1 18.5523 1 18L1 3ZM13.6471 7.41491C14.0039 7.54478 14.2022 7.91724 14.1237 8.27822L14.0953 8.3762L13.504 9.99948L13.85 10C14.2642 10 14.6 10.3358 14.6 10.75C14.6 11.1642 14.2642 11.5 13.85 11.5L12.958 11.4995L12.2142 13.5445C12.0837 13.903 11.7084 14.1015 11.3459 14.02C11.0932 13.9992 10.8617 13.8408 10.758 13.5906C10.7506 13.5726 10.7439 13.5543 10.738 13.5358L9.864 10.8035L8.99008 13.5358C8.98416 13.5543 8.97746 13.5726 8.97002 13.5906C8.86038 13.8553 8.60748 14.0173 8.33838 14.0239C7.98061 14.0956 7.61434 13.8977 7.48579 13.5445L6.741 11.4995L5.75 11.5C5.33579 11.5 5 11.1642 5 10.75C5 10.3358 5.33579 10 5.75 10L6.195 9.99948L5.60468 8.3762C5.46301 7.98696 5.6637 7.55658 6.05293 7.41491C6.44216 7.27324 6.87254 7.47393 7.01421 7.86317L8.182 11.0705L9.09536 8.21163C9.10791 8.06443 9.16387 7.92429 9.25489 7.80925C9.39206 7.60655 9.62463 7.49172 9.86441 7.50125C10.1041 7.49203 10.3362 7.60683 10.4729 7.80908C10.5642 7.92429 10.6201 8.06443 10.6327 8.21163L11.532 11.0295L12.6858 7.86317C12.8275 7.47393 13.2578 7.27324 13.6471 7.41491Z" fill="#00A56A"/>
<path fill-rule="evenodd" clip-rule="evenodd" d="M13.6471 7.41491C14.0039 7.54477 14.2022 7.91724 14.1237 8.27822L14.0953 8.3762L13.504 9.99948L13.85 10C14.2642 10 14.6 10.3358 14.6 10.75C14.6 11.1642 14.2642 11.5 13.85 11.5L12.958 11.4995L12.2142 13.5445C12.0837 13.903 11.7084 14.1015 11.3459 14.02C11.0932 13.9992 10.8617 13.8408 10.758 13.5906C10.7506 13.5726 10.7439 13.5543 10.738 13.5358L9.864 10.8035L8.99008 13.5358C8.98416 13.5543 8.97746 13.5726 8.97002 13.5906C8.86038 13.8553 8.60748 14.0173 8.33838 14.0239C7.98061 14.0956 7.61434 13.8977 7.48579 13.5445L6.741 11.4995L5.75 11.5C5.33579 11.5 5 11.1642 5 10.75C5 10.3358 5.33579 10 5.75 10L6.195 9.99948L5.60468 8.3762C5.46301 7.98696 5.6637 7.55658 6.05293 7.41491C6.44216 7.27324 6.87254 7.47393 7.01421 7.86317L8.182 11.0705L9.09536 8.21163C9.10792 8.06442 9.16387 7.92429 9.25489 7.80925C9.39206 7.60654 9.62463 7.49171 9.86441 7.50124C10.1041 7.49203 10.3362 7.60683 10.4729 7.80908C10.5642 7.92429 10.6201 8.06442 10.6327 8.21163L11.532 11.0295L12.6858 7.86317C12.8275 7.47393 13.2578 7.27324 13.6471 7.41491Z" fill="white"/>
</svg>
