<svg width="20" height="20" viewBox="0 0 20 20" fill="none" xmlns="http://www.w3.org/2000/svg">
<path fill-rule="evenodd" clip-rule="evenodd" d="M12.8293 3H18C19.1046 3 20 3.89543 20 5V17C20 18.1046 19.1046 19 18 19H2C0.895431 19 0 18.1046 0 17V5C0 3.89543 0.895431 3 2 3H7.17071C7.58254 1.83481 8.69378 1 10 1C11.3062 1 12.4175 1.83481 12.8293 3ZM15 11.5C15 12.3284 14.3284 13 13.5 13C12.6716 13 12 12.3284 12 11.5C12 10.6716 12.6716 10 13.5 10C14.3284 10 15 10.6716 15 11.5ZM6.5 13C7.32843 13 8 12.3284 8 11.5C8 10.6716 7.32843 10 6.5 10C5.67157 10 5 10.6716 5 11.5C5 12.3284 5.67157 13 6.5 13Z" fill="#323436"/>
</svg>
