<svg width="20" height="20" viewBox="0 0 20 20" fill="none" xmlns="http://www.w3.org/2000/svg">
<path fill-rule="evenodd" clip-rule="evenodd" d="M12.8293 3H18C19.1046 3 20 3.89543 20 5V17C20 18.1046 19.1046 19 18 19H2C0.895431 19 0 18.1046 0 17V5C0 3.89543 0.895431 3 2 3H7.17071C7.58254 1.83481 8.69378 1 10 1C11.3062 1 12.4175 1.83481 12.8293 3ZM7.74762 9.16785C7.52382 8.94406 7.16099 8.94406 6.9372 9.16785L6 10.1051L5.0628 9.16785C4.83901 8.94406 4.47617 8.94406 4.25238 9.16785L4.16786 9.25236C3.94406 9.47615 3.94406 9.839 4.16786 10.0628L5.10506 11L4.16787 11.9372C3.94407 12.161 3.94408 12.5238 4.16788 12.7476L4.2524 12.8321C4.47619 13.0559 4.83903 13.0559 5.06282 12.8321L6 11.8949L6.93718 12.8321C7.16097 13.0559 7.52381 13.0559 7.7476 12.8321L7.83212 12.7476C8.05592 12.5238 8.05593 12.161 7.83213 11.9372L6.89494 11L7.83214 10.0628C8.05594 9.839 8.05594 9.47615 7.83214 9.25236L7.74762 9.16785ZM15.7476 9.16785C15.5238 8.94406 15.161 8.94406 14.9372 9.16785L14 10.1051L13.0628 9.16785C12.839 8.94406 12.4762 8.94406 12.2524 9.16785L12.1679 9.25236C11.9441 9.47615 11.9441 9.839 12.1679 10.0628L13.1051 11L12.1679 11.9372C11.9441 12.161 11.9441 12.5238 12.1679 12.7476L12.2524 12.8321C12.4762 13.0559 12.839 13.0559 13.0628 12.8321L14 11.8949L14.9372 12.8321C15.161 13.0559 15.5238 13.0559 15.7476 12.8321L15.8321 12.7476C16.0559 12.5238 16.0559 12.161 15.8321 11.9372L14.8949 11L15.8321 10.0628C16.0559 9.839 16.0559 9.47615 15.8321 9.25236L15.7476 9.16785Z" fill="#C2C4C6"/>
</svg>
