<svg width="18" height="18" viewBox="0 0 18 18" fill="none" xmlns="http://www.w3.org/2000/svg">
<rect x="2" y="2" width="14" height="14" rx="7" fill="#C2C4C6"/>
<path fill-rule="evenodd" clip-rule="evenodd" d="M8.25 5.75C8.25 5.33579 8.58579 5 9 5C9.41421 5 9.75 5.33579 9.75 5.75V9.25C9.75 9.66421 9.41421 10 9 10C8.58579 10 8.25 9.66421 8.25 9.25V5.75Z" fill="white"/>
<path fill-rule="evenodd" clip-rule="evenodd" d="M8 12C8 11.4477 8.44772 11 9 11C9.55228 11 10 11.4477 10 12C10 12.5523 9.55228 13 9 13C8.44772 13 8 12.5523 8 12Z" fill="white"/>
</svg>
