<svg width="20" height="20" viewBox="0 0 20 20" fill="none" xmlns="http://www.w3.org/2000/svg">
<mask id="mask0_0_1126" style="mask-type:alpha" maskUnits="userSpaceOnUse" x="0" y="2" width="20" height="16">
<path fill-rule="evenodd" clip-rule="evenodd" d="M0 2H20V18H0V2Z" fill="white"/>
</mask>
<g mask="url(#mask0_0_1126)">
<path fill-rule="evenodd" clip-rule="evenodd" d="M6.28983 18C13.8374 18 17.9646 11.845 17.9646 6.50781C17.9646 6.33279 17.9611 6.15869 17.9529 5.98563C18.754 5.41549 19.4505 4.70402 20 3.89422C19.2648 4.21573 18.4735 4.43234 17.6436 4.53007C18.4907 4.03006 19.1411 3.23895 19.4478 2.29571C18.6549 2.75836 17.777 3.09492 16.8424 3.27612C16.0937 2.49109 15.0272 2 13.8473 2C11.581 2 9.74326 3.80894 9.74326 6.03889C9.74326 6.35583 9.77933 6.66415 9.84982 6.95986C6.43954 6.79107 3.41546 5.18373 1.39195 2.73967C1.03913 3.33654 0.836217 4.03006 0.836217 4.76993C0.836217 6.17125 1.56069 7.40823 2.66219 8.13197C1.98923 8.11162 1.35683 7.92948 0.803834 7.62666C0.802937 7.64348 0.802937 7.6605 0.802937 7.67825C0.802937 9.6346 2.21741 11.2677 4.0949 11.6381C3.7502 11.7304 3.38756 11.7802 3.01312 11.7802C2.74883 11.7802 2.49176 11.7544 2.24182 11.7073C2.76407 13.312 4.27883 14.4798 6.07516 14.5128C4.67036 15.5961 2.90133 16.2417 0.978849 16.2417C0.647651 16.2417 0.321185 16.223 0 16.1858C1.81606 17.3313 3.97214 18 6.28983 18Z" fill="#323436"/>
</g>
</svg>
