<svg width="36" height="36" viewBox="0 0 36 36" fill="none" xmlns="http://www.w3.org/2000/svg">
<circle cx="18" cy="18" r="18" fill="#323436"/>
<path fill-rule="evenodd" clip-rule="evenodd" d="M17.9998 8.74286L12.3124 14.4306L14.4045 16.5227L17.9998 12.9274L21.5973 16.5246L23.6893 14.4327L17.9998 8.74286ZM8.74286 17.9998L10.8349 20.0918L12.927 17.9997L10.8349 15.9077L8.74286 17.9998ZM14.4045 19.4774L17.9998 23.0728L21.5971 19.4757L23.6902 21.5665L23.6893 21.5678L17.9998 27.2571L12.3123 21.5695L12.3092 21.5666L14.4045 19.4774ZM23.073 18.0008L25.1649 20.0927L27.2571 18.0008L25.1649 15.9086L23.073 18.0008ZM20.1228 17.9989H20.1219L20.1238 17.9999L20.1228 18.0011L17.9999 20.1241L15.8788 18.003L15.8759 17.9999L15.8788 17.997L16.2507 17.6252L16.4309 17.4449H16.431L17.9999 15.876L20.1228 17.9989Z" fill="white"/>
</svg>
