<svg width="36" height="36" viewBox="0 0 36 36" fill="none" xmlns="http://www.w3.org/2000/svg">
<circle cx="18" cy="18" r="18" fill="#323436"/>
<path fill-rule="evenodd" clip-rule="evenodd" d="M26.4293 13.7691L26.4292 13.769L26.4292 13.769C25.7679 13.1266 25.0691 12.4478 24.4524 11.9002L24.3899 11.8565C24.286 11.773 24.1688 11.7075 24.0432 11.6627L23.5673 11.5739L23.5672 11.5739L23.5671 11.5739C20.2827 10.9608 9.63754 8.97362 9.41856 9.00027C9.35379 9.00934 9.29188 9.03283 9.23739 9.06901L9.17804 9.11589C9.10497 9.19014 9.04946 9.27984 9.01562 9.37839L9 9.41901V9.64088V9.67526C9.72274 11.6886 11.6002 16.185 13.3338 20.3367L13.3338 20.3368L13.3338 20.3368L13.3338 20.3369C14.7994 23.8468 16.1621 27.1103 16.6372 28.4188L16.6374 28.4193C16.6999 28.6132 16.8186 28.9813 17.0401 29H17.0901C17.2088 29 17.7148 28.3313 17.7148 28.3313C17.7148 28.3313 26.7608 17.3564 27.676 16.1877C27.7944 16.0437 27.899 15.8889 27.9883 15.7252C28.0347 15.4647 27.941 15.1989 27.7416 15.0252C27.352 14.6653 26.9003 14.2266 26.4297 13.7694L26.4296 13.7694L26.4293 13.7691ZM20.0357 16.3033L23.8964 13.1002L26.161 15.1877L20.0357 16.3033ZM11.8893 10.644L18.5363 16.0939L22.6439 12.6283L11.8893 10.644ZM19.1361 17.522L25.9392 16.4252L18.1615 25.8L19.1361 17.522ZM17.9803 17.1252L10.9866 11.1877L16.9683 25.8063L17.9803 17.1252Z" fill="white"/>
</svg>
