<svg x="0px"
	 y="0px" viewBox="0 0 500 150" version="1.1" xmlns="http://www.w3.org/2000/svg" xmlns:xlink="http://www.w3.org/1999/xlink">
    <!-- Generator: Sketch 57.1 (83088) - https://sketch.com -->
    <title>Heybit_Horizontal_White_RGB_500x150</title>
    <desc>Created with Sketch.</desc>
    <g id="Heybit_Horizontal_White_RGB_500x150" stroke="none" stroke-width="1" fill="none" fill-rule="evenodd">
        <g id="word-mark">
            <path d="M47.1406187,35.7937476 C66.0773069,35.7937476 83.1792373,50.1169248 83.1792373,70.6860861 L83.1792373,120.966258 L57.2229147,120.966258 L57.2229147,76.2364947 C57.2229147,66.6049033 51.5092588,60.0750108 43.0203985,60.0750108 C32.8990652,60.0750108 26.2059254,67.0946453 26.2059254,82.9296345 L26.2059254,120.966258 L0.0863554622,120.966258 L0.0863554622,3.42819355 L26.2059254,3.42819355 L25.8474911,44.6658841 C32.2141362,38.1359916 36.6927908,35.7937476 47.1406187,35.7937476 Z" id="Path" fill="#36373a" fill-rule="nonzero"></path>
            <path d="M283.13945,39.3426022 L233.455486,149.357095 L205.064649,149.357095 L254.748613,39.3426022 L283.13945,39.3426022 Z M211.234651,38.6686383 L228.752343,77.2257152 L214.556925,109.165407 L182.843814,38.6686383 L211.234651,38.6686383 Z" id="Combined-Shape" fill="#36373a"></path>
            <path d="M139.173065,36.5673979 C162.354184,36.5673979 180.964377,53.2186237 181.454119,79.9911829 L181.454119,86.6843227 L121.379108,86.6843227 C123.501323,96.4791614 130.194463,102.519312 139.009818,102.519312 C145.049969,102.519312 152.069603,101.050086 156.47728,93.0509679 L157.69828,93.2993979 L178.750865,99.878867 C171.407656,115.761447 157.009566,123.414968 139.009818,123.414968 C115.338958,123.414968 95.7492803,105.947506 95.7492803,79.9911829 C95.7492803,54.1981076 115.338958,36.5673979 139.173065,36.5673979 Z M139.173065,57.7895485 C131.826936,57.7895485 124.31756,62.3604732 121.86885,70.6860861 L155.661044,70.6860861 C153.212334,61.8707313 146.682442,57.7895485 139.173065,57.7895485 Z" id="Combined-Shape" fill="#36373a" fill-rule="nonzero"></path>
            <path d="M320.525724,3.42819355 L320.525724,45.5460001 C326.892369,39.8323441 335.381229,36.5673979 345.992304,36.5673979 C367.704197,36.5673979 385.987896,54.1981076 385.987896,79.9911829 C385.987896,105.947506 367.704197,123.414968 345.992304,123.414968 C335.381229,123.414968 326.892369,120.150022 320.525724,114.436366 L320.525724,120.966258 L294.406154,120.966258 L294.406154,3.42819355 L320.525724,3.42819355 Z M341.993385,58.7690323 C330.648686,58.7690323 320.525724,67.4500767 320.525724,80.06216 C320.525724,92.8380366 330.648686,101.355288 341.993385,101.355288 C354.210753,101.355288 363.111979,92.8380366 363.111979,80.06216 C363.111979,67.4500767 354.210753,58.7690323 341.993385,58.7690323 Z" id="Combined-Shape" fill="#36373a" fill-rule="nonzero"></path>
            <path d="M413.903186,3.55271368e-14 C422.718541,3.55271368e-14 429.085186,6.85638711 429.085186,14.8555054 C429.085186,23.1811183 422.718541,29.3845162 413.903186,29.3845162 C405.087831,29.3845162 398.884433,23.1811183 398.884433,14.8555054 C398.884433,6.85638711 405.087831,3.55271368e-14 413.903186,3.55271368e-14 Z" id="Path" fill="#36373a" fill-rule="nonzero"></path>
            <polygon id="Path" fill="#36373a" fill-rule="nonzero" points="426.962971 120.966258 400.843401 120.966258 400.843401 39.0161076 426.962971 39.0161076"></polygon>
            <path d="M472.659752,14.5006199 L472.500342,48.4796199 L498.652291,48.4800839 L489.417989,69.2572627 L472.403342,69.2566199 L472.162912,120.966258 L446.043342,120.966258 L446.540182,14.5006199 L472.659752,14.5006199 Z" id="Combined-Shape" fill="#36373a" fill-rule="nonzero"></path>
        </g>
    </g>
</svg>