<svg width="24" height="24" viewBox="0 0 24 24" fill="none" xmlns="http://www.w3.org/2000/svg">
<path d="M6.4 19.2C5.95817 19.6418 5.24183 19.6418 4.8 19.2C4.35817 18.7582 4.35817 18.0418 4.8 17.6L10.4 12L4.8 6.4C4.35817 5.95817 4.35817 5.24183 4.8 4.8C5.24183 4.35817 5.95817 4.35817 6.4 4.8L12 10.4L17.6 4.8C18.0418 4.35817 18.7582 4.35817 19.2 4.8C19.6418 5.24183 19.6418 5.95817 19.2 6.4L13.6 12L19.2 17.6C19.6418 18.0418 19.6418 18.7582 19.2 19.2C18.7582 19.6418 18.0418 19.6418 17.6 19.2L12 13.6L6.4 19.2Z" fill="#1F2223"/>
</svg>
