<svg width="24" height="24" viewBox="0 0 24 24" fill="none" xmlns="http://www.w3.org/2000/svg">
<path fill-rule="evenodd" clip-rule="evenodd" d="M12 4.05102C7.6099 4.05102 4.05102 7.6099 4.05102 12C4.05102 16.3901 7.6099 19.949 12 19.949C16.3901 19.949 19.949 16.3901 19.949 12C19.949 7.6099 16.3901 4.05102 12 4.05102ZM2.5 12C2.5 6.7533 6.7533 2.5 12 2.5C17.2467 2.5 21.5 6.7533 21.5 12C21.5 17.2467 17.2467 21.5 12 21.5C6.7533 21.5 2.5 17.2467 2.5 12Z" fill="#1F2223"/>
<path fill-rule="evenodd" clip-rule="evenodd" d="M15.1507 8.97535C16.2067 9.72191 16.8814 10.5914 16.3596 11.7222C15.9791 12.5505 15.3935 12.8412 14.738 12.8186C15.4419 13.5022 15.6605 14.3154 14.8929 15.4095C13.9402 16.7689 12.7014 16.5661 11.1998 15.8156L10.6551 16.7591L9.57003 16.1327L10.1039 15.2094C9.98988 15.1435 9.54616 14.8776 9.11026 14.6164C8.68948 14.3642 8.276 14.1164 8.1734 14.0571L7.04958 13.4083L7.84651 12.4243C7.84651 12.4243 8.47884 12.8031 8.47377 12.7865C8.71845 12.9269 8.8895 12.7801 8.97145 12.6735L10.3453 10.2953L10.4363 10.3479C10.4038 10.3223 10.3734 10.303 10.349 10.2889L11.3292 8.5912C11.4025 8.38801 11.4119 8.10941 11.0619 7.90735C11.0799 7.90151 10.4349 7.5462 10.4349 7.5462L10.9942 6.57735L12.1843 7.26527L12.1817 7.26976C12.3577 7.37137 12.5405 7.47199 12.7264 7.57426L12.7358 7.57942C13.4858 7.97821 13.9363 8.22121 14.0874 8.30842L14.57 7.47244L15.6563 8.09958L15.1507 8.97535ZM13.2417 9.15165L13.2418 9.15166C13.8563 9.48405 15.1134 10.1639 14.5585 11.1237C14.0169 12.0618 12.7453 11.2993 12.16 10.9483L12.16 10.9483C12.106 10.9159 12.0578 10.887 12.0166 10.8633L13.062 9.05262C13.1114 9.08115 13.1725 9.1142 13.2417 9.15165ZM10.3363 13.7737L11.4895 11.7763C11.549 11.8109 11.6226 11.8511 11.7061 11.8967L11.7061 11.8967C12.4419 12.2987 13.9426 13.1185 13.3338 14.1731C12.7366 15.2074 11.2018 14.29 10.5017 13.8715C10.4396 13.8344 10.384 13.8012 10.3363 13.7737Z" fill="#1F2223"/>
</svg>
