<svg width="24" height="24" viewBox="0 0 24 24" fill="none" xmlns="http://www.w3.org/2000/svg">
<path fill-rule="evenodd" clip-rule="evenodd" d="M11.7605 4.6867C11.8786 4.50437 12.1215 4.50437 12.2396 4.6867L21.1429 18.4327C21.2162 18.546 21.2163 18.6752 21.1589 18.7857C21.1021 18.895 21.0101 18.95 20.9033 18.95H3.09681C2.99006 18.95 2.89807 18.895 2.84124 18.7857C2.78377 18.6752 2.78391 18.546 2.85725 18.4327L11.7605 4.6867ZM13.5825 3.81689C12.8339 2.66097 11.1663 2.66097 10.4176 3.81689L1.51433 17.5629C0.707109 18.8092 1.54697 20.5499 3.09681 20.5499H20.9033C22.4532 20.5499 23.293 18.8092 22.4858 17.5629L13.5825 3.81689ZM11.2 7.74995H12.8V14.25H11.2V7.74995ZM13.0001 16.25C13.0001 16.8022 12.5523 17.25 12.0001 17.25C11.4478 17.25 11.0001 16.8022 11.0001 16.25C11.0001 15.6977 11.4478 15.25 12.0001 15.25C12.5523 15.25 13.0001 15.6977 13.0001 16.25Z" fill="#1F2223"/>
</svg>
