<svg width="24" height="24" viewBox="0 0 24 24" fill="none" xmlns="http://www.w3.org/2000/svg">
<path fill-rule="evenodd" clip-rule="evenodd" d="M12 4.05102C7.6099 4.05102 4.05102 7.6099 4.05102 12C4.05102 16.3901 7.6099 19.949 12 19.949C16.3901 19.949 19.949 16.3901 19.949 12C19.949 7.6099 16.3901 4.05102 12 4.05102ZM2.5 12C2.5 6.7533 6.7533 2.5 12 2.5C17.2467 2.5 21.5 6.7533 21.5 12C21.5 17.2467 17.2467 21.5 12 21.5C6.7533 21.5 2.5 17.2467 2.5 12Z" fill="#1F2223"/>
<path fill-rule="evenodd" clip-rule="evenodd" d="M9.03127 7.8999L7.8999 9.03127L10.8698 12.0011L7.8999 14.971L9.03127 16.1024L12.0011 13.1325L14.971 16.1023L16.1023 14.971L13.1325 12.0011L16.1023 9.0313L14.971 7.89993L12.0011 10.8698L9.03127 7.8999Z" fill="#1F2223"/>
</svg>
