<svg width="24" height="24" viewBox="0 0 24 24" fill="none" xmlns="http://www.w3.org/2000/svg">
<path fill-rule="evenodd" clip-rule="evenodd" d="M12 21.5C17.2467 21.5 21.5 17.2467 21.5 12C21.5 6.75329 17.2467 2.5 12 2.5C6.75329 2.5 2.5 6.75329 2.5 12C2.5 17.2467 6.75329 21.5 12 21.5ZM13.954 8.70309L12 7.61598L10.046 8.70309L8.95402 8.07371L12 6.3L15.046 8.07371L13.954 8.70309ZM15.8506 8.53144L14.7586 9.16082L15.8506 9.79021V11.1062L16.9425 10.4768V9.16082L15.8506 8.53144ZM13.092 9.16082L12 8.53144L10.908 9.16082L12 9.79021L13.092 9.16082ZM13.092 12.651L15.046 11.5639V10.2479L13.954 9.61856L12 10.7057L10.046 9.61856L8.95402 10.2479V11.5639L10.908 12.651V14.8825L12 15.5119L13.092 14.8825V12.651ZM17 11.3923L15.8506 12.0216V14.2531L13.954 15.3402V16.6562L17 14.8825V11.3923ZM15.046 12.4794L13.954 13.1088V14.4247L15.046 13.7954V12.4794ZM12 16.4273L10.908 15.7979V17.1139L12 17.7433L13.092 17.1139V15.7979L12 16.4273ZM7 9.16082V10.4768L8.09195 11.1062V9.79021L9.24138 9.16082L8.14943 8.53144L7 9.16082ZM10.1034 15.3402L8.14943 14.2531V12.0216L7.05747 11.3923V14.8825L10.1034 16.6562V15.3402ZM8.95402 13.7954L10.046 14.4247V13.1088L8.95402 12.4794V13.7954Z" fill="#1F2223"/>
</svg>
