<svg width="24" height="24" viewBox="0 0 24 24" fill="none" xmlns="http://www.w3.org/2000/svg">
<path fill-rule="evenodd" clip-rule="evenodd" d="M4.5 2.5C3.39543 2.5 2.5 3.39543 2.5 4.5V19.5C2.5 20.6046 3.39543 21.5 4.5 21.5H10.0142V14.7029H7.71425V12.0283H10.0142V10.0604C10.0142 7.77869 11.4094 6.5358 13.4443 6.5358C14.13 6.53428 14.8155 6.56901 15.4975 6.63938V9.02462H14.0965C12.9874 9.02462 12.7711 9.54859 12.7711 10.3223V12.0252H15.4214L15.0771 14.6999H12.7559V21.5H19.5C20.6046 21.5 21.5 20.6046 21.5 19.5V4.5C21.5 3.39543 20.6046 2.5 19.5 2.5H4.5Z" fill="#323436"/>
</svg>
