<svg width="24" height="24" viewBox="0 0 24 24" fill="none" xmlns="http://www.w3.org/2000/svg">
<path d="M21.5 12C21.5 17.2467 17.2467 21.5 12 21.5C6.75329 21.5 2.5 17.2467 2.5 12C2.5 6.75329 6.75329 2.5 12 2.5C17.2467 2.5 21.5 6.75329 21.5 12Z" fill="#1F2223"/>
<path fill-rule="evenodd" clip-rule="evenodd" d="M15.1507 9.22535C16.2067 9.97191 16.8814 10.8414 16.3596 11.9722C15.9791 12.8005 15.3935 13.0912 14.738 13.0686C15.4419 13.7522 15.6605 14.5654 14.8929 15.6595C13.9402 17.0189 12.7014 16.8161 11.1998 16.0656L10.6551 17.0091L9.57003 16.3827L10.1039 15.4594C9.98988 15.3935 9.54616 15.1276 9.11026 14.8664C8.68948 14.6142 8.276 14.3664 8.1734 14.3071L7.04958 13.6583L7.84651 12.6743C7.84651 12.6743 8.47884 13.0531 8.47377 13.0365C8.71845 13.1769 8.8895 13.0301 8.97145 12.9235L10.3453 10.5453L10.4363 10.5979C10.4038 10.5723 10.3734 10.553 10.349 10.5389L11.3292 8.8412C11.4025 8.63801 11.4119 8.35941 11.0619 8.15735C11.0799 8.15151 10.4349 7.7962 10.4349 7.7962L10.9942 6.82735L12.1843 7.51527L12.1817 7.51976C12.3577 7.62137 12.5405 7.72199 12.7264 7.82426L12.7358 7.82942C13.4858 8.22821 13.9363 8.47121 14.0874 8.55842L14.57 7.72244L15.6563 8.34958L15.1507 9.22535ZM13.2417 9.40165L13.2418 9.40166C13.8563 9.73405 15.1134 10.4139 14.5585 11.3737C14.0169 12.3118 12.7453 11.5493 12.16 11.1983L12.16 11.1983C12.106 11.1659 12.0578 11.137 12.0166 11.1133L13.062 9.30262C13.1114 9.33115 13.1725 9.3642 13.2417 9.40165ZM10.3363 14.0237L11.4895 12.0263C11.549 12.0609 11.6226 12.1011 11.7061 12.1467L11.7061 12.1467C12.4419 12.5487 13.9426 13.3685 13.3338 14.4231C12.7366 15.4574 11.2018 14.54 10.5017 14.1215C10.4396 14.0844 10.384 14.0512 10.3363 14.0237Z" fill="white"/>
</svg>
