<svg width="24" height="24" viewBox="0 0 24 24" fill="none" xmlns="http://www.w3.org/2000/svg">
<path fill-rule="evenodd" clip-rule="evenodd" d="M12 21.5C17.2467 21.5 21.5 17.2467 21.5 12C21.5 6.75329 17.2467 2.5 12 2.5C6.75329 2.5 2.5 6.75329 2.5 12C2.5 17.2467 6.75329 21.5 12 21.5ZM12 6.69444L13.3765 8.10407L9.91047 11.5701L8.53402 10.1936L12 6.69444ZM14.0896 8.78402L15.466 10.1936L9.91047 15.7492L8.53402 14.3728L14.0896 8.78402ZM9.19735 12.2832L7.8209 10.8736L6.44444 12.2832L7.8209 13.6597L9.19735 12.2832ZM16.1792 10.8736L17.5556 12.2832L12 17.8388L10.6236 16.4623L16.1792 10.8736Z" fill="#1F2223"/>
</svg>
