<svg width="29" height="15" viewBox="0 0 29 15" fill="none" xmlns="http://www.w3.org/2000/svg">
<path d="M5.1286 5.63165L5.94881 5.63859C6.48182 5.65707 6.9597 5.768 7.38244 5.97136C7.80518 6.17011 8.13143 6.46591 8.36118 6.85877C8.59092 7.24701 8.68742 7.72538 8.65066 8.29388C8.60471 8.91784 8.4324 9.46554 8.13372 9.93697C7.83964 10.4038 7.44677 10.7666 6.95511 11.0254C6.46804 11.2796 5.91205 11.3998 5.28713 11.3859C4.88277 11.3767 4.50828 11.3051 4.16365 11.171C3.82362 11.0324 3.52954 10.8406 3.28141 10.5956C3.03328 10.346 2.84489 10.0525 2.71623 9.71512C2.58757 9.37772 2.53473 9.00103 2.5577 8.58506L3.24006 8.4464C3.21708 8.7838 3.2906 9.06343 3.46062 9.28528C3.63063 9.50251 3.85349 9.66659 4.12919 9.77752C4.40489 9.88382 4.69208 9.93928 4.99075 9.94391C5.32618 9.94391 5.62945 9.87458 5.90056 9.73592C6.17166 9.59726 6.39452 9.40314 6.56913 9.15356C6.74833 8.89935 6.85861 8.61048 6.89997 8.28695C6.93673 7.99577 6.92065 7.73 6.85172 7.48966C6.78739 7.24932 6.66562 7.05289 6.48642 6.90037C6.30721 6.74322 6.06368 6.65772 5.75582 6.64385L4.98386 6.63692L5.1286 5.63165ZM6.28654 1.00049C6.81956 1.00973 7.29973 1.12066 7.72707 1.33326C8.1544 1.54125 8.48754 1.84399 8.72648 2.24147C8.96542 2.63434 9.06651 3.11502 9.02975 3.68351C8.99299 4.24276 8.81378 4.71189 8.49213 5.09089C8.17508 5.46989 7.77761 5.75876 7.29973 5.9575C6.82185 6.15162 6.32789 6.24868 5.81785 6.24868H5.01832L5.15617 5.29887L5.57661 5.30581C5.88907 5.30118 6.16017 5.23648 6.38992 5.11169C6.61967 4.98227 6.80347 4.80433 6.94132 4.57785C7.08377 4.34676 7.17107 4.07638 7.20324 3.76671C7.23081 3.53099 7.20783 3.31376 7.13431 3.11502C7.06539 2.91627 6.94822 2.75682 6.7828 2.63665C6.62197 2.51185 6.41749 2.44484 6.16936 2.43559C5.87069 2.42635 5.60188 2.49337 5.36294 2.63665C5.1286 2.77993 4.93561 2.97405 4.78398 3.21901C4.63234 3.45935 4.53355 3.71818 4.4876 3.99549L2.77826 14.0135H1L2.70244 4.00242C2.78515 3.40157 2.99652 2.87468 3.33655 2.42173C3.68118 1.96878 4.10851 1.61751 4.61856 1.36793C5.13319 1.11372 5.68919 0.991243 6.28654 1.00049Z" fill="#6D40C6"/>
<path d="M12.924 11.379C12.414 11.3698 11.9591 11.2704 11.5593 11.0809C11.1595 10.8914 10.8264 10.6326 10.5599 10.3044C10.2934 9.97626 10.0981 9.59495 9.97402 9.16049C9.85455 8.72603 9.81319 8.26153 9.84995 7.76698L9.87752 7.48273C9.92807 6.9697 10.0498 6.47977 10.2428 6.01296C10.4404 5.54152 10.7023 5.12324 11.0286 4.75811C11.3594 4.38836 11.7477 4.09949 12.1934 3.8915C12.6437 3.68351 13.1423 3.58645 13.6891 3.60032C14.2083 3.60956 14.6494 3.71818 15.0124 3.92616C15.3754 4.12953 15.6649 4.40453 15.8809 4.75118C16.1014 5.0932 16.2508 5.48144 16.3289 5.9159C16.407 6.35036 16.4208 6.80331 16.3702 7.27475L16.2669 8.0443H10.5874L10.7873 6.78251L14.6678 6.78944L14.6954 6.62999C14.7367 6.35729 14.7229 6.10078 14.654 5.86044C14.5897 5.6201 14.4679 5.42598 14.2887 5.27808C14.1141 5.12555 13.8775 5.04467 13.5788 5.03542C13.2479 5.02618 12.9677 5.09782 12.7379 5.25034C12.5082 5.39825 12.3175 5.59468 12.1658 5.83964C12.0188 6.0846 11.9039 6.35267 11.8212 6.64385C11.7385 6.93041 11.6811 7.21004 11.6489 7.48273L11.6213 7.76005C11.5983 8.01888 11.6052 8.27539 11.642 8.5296C11.6834 8.7838 11.7592 9.0149 11.8695 9.22289C11.9843 9.43087 12.1429 9.59957 12.345 9.72899C12.5472 9.8584 12.7976 9.92773 13.0963 9.93697C13.4731 9.94622 13.8177 9.86995 14.1302 9.70819C14.4472 9.5418 14.7344 9.32457 14.9917 9.0565L15.8257 10.0063C15.6144 10.3206 15.3525 10.5817 15.04 10.7897C14.7275 10.9931 14.3875 11.1433 14.0199 11.2404C13.6569 11.3374 13.2916 11.3836 12.924 11.379Z" fill="#6D40C6"/>
<path d="M21.6085 3.73898L21.3811 5.05622H17.2249L17.4524 3.73898H21.6085ZM18.8791 1.89483H20.6574L19.4374 9.09116C19.419 9.25293 19.419 9.39159 19.4374 9.50713C19.4604 9.62268 19.5132 9.71281 19.5959 9.77752C19.6832 9.84222 19.8142 9.87689 19.9888 9.88151C20.0853 9.88613 20.1818 9.88151 20.2783 9.86764C20.3794 9.85378 20.4782 9.84222 20.5747 9.83298L20.4506 11.2196C20.276 11.2704 20.0991 11.3074 19.9199 11.3305C19.7407 11.3582 19.5592 11.3721 19.3754 11.3721C18.948 11.3628 18.5988 11.2658 18.3277 11.0809C18.0612 10.896 17.8728 10.6441 17.7625 10.3252C17.6522 10.0017 17.6155 9.63424 17.6522 9.22289L18.8791 1.89483Z" fill="#6D40C6"/>
<path d="M25.7647 9.64579L26.3092 6.15855C26.3368 5.9367 26.323 5.73565 26.2679 5.55539C26.2173 5.37051 26.1208 5.22261 25.9784 5.11169C25.8359 5.00076 25.6429 4.94299 25.3994 4.93836C25.1834 4.93374 24.9836 4.97072 24.7998 5.04929C24.6206 5.12786 24.4689 5.2411 24.3449 5.389C24.2208 5.5369 24.1358 5.71716 24.0898 5.92977L22.3116 5.94363C22.3391 5.5369 22.4563 5.18564 22.6631 4.88983C22.8699 4.58941 23.1318 4.34445 23.4488 4.15495C23.7659 3.96083 24.1105 3.81755 24.4827 3.72511C24.8549 3.63267 25.2202 3.59107 25.5786 3.60032C26.0887 3.60956 26.5436 3.71818 26.9433 3.92616C27.3431 4.13415 27.6486 4.42995 27.86 4.81357C28.0714 5.19257 28.1495 5.65476 28.0944 6.20015L27.5636 9.47247C27.5223 9.74054 27.4924 10.0179 27.474 10.3044C27.4557 10.5864 27.4924 10.8567 27.5843 11.1156L27.5774 11.2404L25.8198 11.2473C25.7417 10.9885 25.7027 10.7227 25.7027 10.45C25.7073 10.1773 25.7279 9.90924 25.7647 9.64579ZM26.516 6.67158L26.3368 7.76005L25.3098 7.75311C25.0984 7.75311 24.8848 7.77622 24.6688 7.82244C24.4574 7.86866 24.2598 7.94261 24.076 8.0443C23.8922 8.14136 23.7383 8.27308 23.6142 8.43947C23.4902 8.60586 23.4144 8.80922 23.3868 9.04956C23.3638 9.23444 23.3845 9.39621 23.4488 9.53487C23.5132 9.67352 23.6097 9.78445 23.7383 9.86764C23.8716 9.94622 24.0301 9.98781 24.2139 9.99244C24.4666 9.99706 24.7147 9.94853 24.9583 9.84685C25.2018 9.74054 25.4132 9.59264 25.5924 9.40314C25.7762 9.21364 25.9026 8.9941 25.9715 8.74452L26.3919 9.54873C26.2908 9.82142 26.153 10.071 25.9784 10.2975C25.8038 10.524 25.6016 10.7204 25.3718 10.8868C25.1421 11.0485 24.8917 11.1733 24.6206 11.2612C24.354 11.3536 24.0737 11.3975 23.7797 11.3929C23.3661 11.3836 22.987 11.2866 22.6424 11.1017C22.3024 10.9168 22.0336 10.6603 21.836 10.3321C21.6384 10.004 21.5488 9.62499 21.5672 9.19515C21.5902 8.70523 21.7119 8.2985 21.9325 7.97497C22.1576 7.64681 22.4471 7.38798 22.8009 7.19848C23.1547 7.00899 23.5407 6.87264 23.9589 6.78944C24.3816 6.70625 24.7975 6.66465 25.2064 6.66465L26.516 6.67158Z" fill="#6D40C6"/>
</svg>
