<svg width="36" height="21" viewBox="0 0 36 21" fill="none" xmlns="http://www.w3.org/2000/svg">
<path d="M0 6C0 2.68629 2.68629 0 6 0H30C33.3137 0 36 2.68629 36 6V15C36 18.3137 33.3137 21 30 21H6C2.68629 21 0 18.3137 0 15V6Z" fill="#EEE8F8"/>
<path d="M9.70227 9.15338L10.4378 9.15959C10.9158 9.17617 11.3443 9.27564 11.7234 9.45801C12.1025 9.63623 12.395 9.90149 12.601 10.2538C12.8071 10.6019 12.8936 11.0309 12.8606 11.5407C12.8194 12.1002 12.6649 12.5914 12.3971 13.0141C12.1334 13.4327 11.7811 13.7581 11.3402 13.9902C10.9034 14.2181 10.4048 14.3259 9.84443 14.3135C9.48182 14.3052 9.146 14.2409 8.83696 14.1207C8.53205 13.9964 8.26834 13.8244 8.04583 13.6047C7.82332 13.3809 7.65438 13.1177 7.53901 12.8152C7.42363 12.5126 7.37625 12.1748 7.39685 11.8018L8.00874 11.6775C7.98814 11.98 8.05407 12.2308 8.20653 12.4297C8.35899 12.6245 8.55883 12.7717 8.80606 12.8711C9.05329 12.9665 9.31082 13.0162 9.57865 13.0203C9.87945 13.0203 10.1514 12.9582 10.3945 12.8338C10.6376 12.7095 10.8375 12.5354 10.994 12.3116C11.1547 12.0836 11.2536 11.8246 11.2907 11.5345C11.3237 11.2734 11.3093 11.035 11.2475 10.8195C11.1898 10.604 11.0806 10.4279 10.9199 10.2911C10.7592 10.1502 10.5408 10.0735 10.2647 10.0611L9.57247 10.0548L9.70227 9.15338ZM10.7406 5.00044C11.2186 5.00873 11.6492 5.1082 12.0324 5.29885C12.4156 5.48536 12.7144 5.75684 12.9286 6.11328C13.1429 6.46557 13.2335 6.89661 13.2006 7.40641C13.1676 7.90791 13.0069 8.32859 12.7185 8.66845C12.4342 9.00831 12.0777 9.26735 11.6492 9.44557C11.2207 9.61965 10.7777 9.70669 10.3203 9.70669H9.60338L9.72699 8.85496L10.104 8.86118C10.3842 8.85703 10.6273 8.79901 10.8333 8.6871C11.0394 8.57105 11.2042 8.41148 11.3278 8.2084C11.4555 8.00116 11.5338 7.7587 11.5627 7.48101C11.5874 7.26963 11.5668 7.07483 11.5009 6.89661C11.4391 6.71839 11.334 6.5754 11.1856 6.46764C11.0414 6.35574 10.8581 6.29564 10.6356 6.28735C10.3677 6.27906 10.1267 6.33916 9.91242 6.46764C9.70227 6.59613 9.52921 6.7702 9.39323 6.98987C9.25726 7.20539 9.16866 7.43749 9.12746 7.68617L7.59463 16.6697H6L7.52665 7.69239C7.60081 7.15358 7.79036 6.68109 8.09527 6.27492C8.40431 5.86874 8.78752 5.55375 9.24489 5.32994C9.70639 5.10198 10.205 4.99215 10.7406 5.00044Z" fill="#6D40C6"/>
<path d="M16.6927 14.3073C16.2353 14.299 15.8274 14.2099 15.4689 14.0399C15.1104 13.87 14.8117 13.6379 14.5727 13.3436C14.3337 13.0493 14.1586 12.7074 14.0473 12.3178C13.9402 11.9282 13.9031 11.5117 13.9361 11.0682L13.9608 10.8133C14.0061 10.3533 14.1153 9.91392 14.2884 9.49531C14.4656 9.07256 14.7004 8.69746 14.993 8.37004C15.2897 8.03847 15.6378 7.77942 16.0375 7.59292C16.4413 7.40641 16.8884 7.31937 17.3788 7.3318C17.8444 7.34009 18.2399 7.43749 18.5655 7.624C18.891 7.80637 19.1506 8.05297 19.3442 8.36382C19.542 8.67052 19.6759 9.01868 19.746 9.40827C19.816 9.79787 19.8284 10.204 19.7831 10.6268L19.6904 11.3169H14.5974L14.7767 10.1854L18.2564 10.1916L18.2812 10.0486C18.3182 9.80409 18.3059 9.57406 18.2441 9.35854C18.1864 9.14301 18.0772 8.96894 17.9165 8.83631C17.7599 8.69954 17.5477 8.62701 17.2799 8.61872C16.9832 8.61043 16.7318 8.67467 16.5258 8.81144C16.3198 8.94407 16.1488 9.12022 16.0128 9.33989C15.881 9.55955 15.7779 9.79994 15.7038 10.0611C15.6296 10.318 15.5781 10.5688 15.5493 10.8133L15.5245 11.062C15.5039 11.2941 15.5101 11.5241 15.5431 11.7521C15.5802 11.98 15.6482 12.1873 15.747 12.3738C15.8501 12.5603 15.9922 12.7116 16.1735 12.8276C16.3548 12.9437 16.5794 13.0058 16.8472 13.0141C17.1851 13.0224 17.4941 12.954 17.7743 12.809C18.0586 12.6598 18.3162 12.465 18.5469 12.2246L19.2948 13.0763C19.1053 13.3581 18.8704 13.5923 18.5902 13.7788C18.31 13.9612 18.0051 14.0959 17.6754 14.1829C17.3499 14.2699 17.0223 14.3114 16.6927 14.3073Z" fill="#6D40C6"/>
<path d="M24.4804 7.45614L24.2765 8.63737H20.5495L20.7535 7.45614H24.4804ZM22.0329 5.80243H23.6275L22.5335 12.2556C22.517 12.4007 22.517 12.5251 22.5335 12.6287C22.5541 12.7323 22.6015 12.8131 22.6757 12.8711C22.754 12.9292 22.8714 12.9602 23.028 12.9644C23.1145 12.9685 23.201 12.9644 23.2876 12.9519C23.3782 12.9395 23.4668 12.9292 23.5533 12.9209L23.4421 14.1643C23.2855 14.2099 23.1269 14.243 22.9662 14.2637C22.8055 14.2886 22.6427 14.301 22.4779 14.301C22.0947 14.2927 21.7815 14.2057 21.5384 14.0399C21.2994 13.8741 21.1305 13.6483 21.0316 13.3623C20.9327 13.0721 20.8997 12.7426 20.9327 12.3738L22.0329 5.80243Z" fill="#6D40C6"/>
<path d="M28.2074 12.753L28.6957 9.62587C28.7204 9.42692 28.7081 9.24663 28.6586 9.08499C28.6133 8.9192 28.5268 8.78657 28.399 8.6871C28.2713 8.58763 28.0982 8.53582 27.8799 8.53168C27.6862 8.52753 27.507 8.56069 27.3421 8.63115C27.1814 8.70161 27.0455 8.80315 26.9342 8.93578C26.8229 9.06841 26.7467 9.23005 26.7055 9.42071L25.1109 9.43314C25.1356 9.06841 25.2407 8.75342 25.4261 8.48816C25.6115 8.21876 25.8464 7.99909 26.1307 7.82916C26.415 7.65509 26.7241 7.5266 27.0578 7.44371C27.3916 7.36082 27.7192 7.32351 28.0406 7.3318C28.4979 7.34009 28.9059 7.43749 29.2643 7.624C29.6228 7.81051 29.8968 8.07577 30.0864 8.41977C30.2759 8.75963 30.346 9.1741 30.2965 9.66317L29.8206 12.5976C29.7835 12.838 29.7567 13.0866 29.7403 13.3436C29.7238 13.5964 29.7567 13.8389 29.8392 14.071L29.833 14.1829L28.2569 14.1891C28.1868 13.957 28.1518 13.7187 28.1518 13.4742C28.1559 13.2296 28.1745 12.9893 28.2074 12.753ZM28.8811 10.0859L28.7204 11.062L27.7995 11.0558C27.61 11.0558 27.4184 11.0765 27.2247 11.1179C27.0352 11.1594 26.858 11.2257 26.6932 11.3169C26.5283 11.4039 26.3903 11.522 26.279 11.6713C26.1678 11.8205 26.0998 12.0028 26.0751 12.2183C26.0545 12.3841 26.073 12.5292 26.1307 12.6535C26.1884 12.7779 26.2749 12.8773 26.3903 12.9519C26.5098 13.0224 26.6519 13.0597 26.8168 13.0639C27.0434 13.068 27.2659 13.0245 27.4843 12.9333C27.7027 12.838 27.8922 12.7053 28.0529 12.5354C28.2177 12.3655 28.3311 12.1686 28.3929 11.9448L28.7699 12.666C28.6792 12.9105 28.5556 13.1343 28.399 13.3374C28.2425 13.5405 28.0612 13.7166 27.8551 13.8658C27.6491 14.0109 27.4245 14.1228 27.1814 14.2016C26.9424 14.2845 26.6911 14.3238 26.4274 14.3197C26.0565 14.3114 25.7166 14.2244 25.4076 14.0586C25.1026 13.8928 24.8616 13.6628 24.6844 13.3685C24.5072 13.0742 24.4269 12.7344 24.4434 12.3489C24.464 11.9096 24.5732 11.5448 24.7709 11.2547C24.9728 10.9604 25.2324 10.7283 25.5497 10.5584C25.867 10.3885 26.2131 10.2662 26.5881 10.1916C26.9672 10.117 27.3401 10.0797 27.7068 10.0797L28.8811 10.0859Z" fill="#6D40C6"/>
</svg>
