<svg width="36" height="36" viewBox="0 0 36 36" fill="none" xmlns="http://www.w3.org/2000/svg">
<circle cx="17.8704" cy="17.8704" r="17.8704" fill="#616161"/>
<path d="M17.8704 29.2421C11.5891 29.2421 6.49872 24.1517 6.49872 17.8704C6.49872 11.5891 11.5891 6.49872 17.8704 6.49872C21.0096 6.49872 23.8522 7.77168 25.9114 9.82944L30.5064 5.2344C27.2722 2.00016 22.8038 0 17.8704 0C8.00064 0 0 8.00064 0 17.8704C0 27.7402 8.00064 35.7408 17.8704 35.7408C22.8053 35.7408 27.2722 33.7406 30.5078 30.5078L25.9128 25.9128C23.8522 27.9691 21.0096 29.2421 17.8704 29.2421Z" fill="#9E9E9E"/>
<path d="M29.2421 17.8704H23.5555C23.5555 14.7312 21.0096 12.1838 17.869 12.1838C14.7283 12.1838 12.1838 14.7298 12.1838 17.8704C12.1838 19.3997 12.7886 20.7864 13.7722 21.8102L13.7678 21.8146L20.808 28.8547L20.8094 28.8562C25.6651 27.5602 29.2421 23.1336 29.2421 17.8704Z" fill="#424242"/>
<path d="M35.7394 17.8704H29.2406C29.2406 23.1336 25.6622 27.5602 20.8094 28.8562L25.8278 33.8746C31.703 30.9471 35.7394 24.8803 35.7394 17.8704Z" fill="#616161"/>
<path d="M17.8704 35.5363C8.0352 35.5363 0.0576 27.5904 0.00144 17.7682C0.00144 17.8027 0 17.8359 0 17.8704C0 27.7402 8.00064 35.7408 17.8704 35.7408C27.7402 35.7408 35.7408 27.7402 35.7408 17.8704C35.7408 17.8359 35.7394 17.8027 35.7394 17.7682C35.6832 27.5904 27.7042 35.5363 17.8704 35.5363Z" fill="#212121" fill-opacity="0.1"/>
<path d="M20.8109 28.8562L20.9693 29.0146C25.7414 27.6667 29.2421 23.2805 29.2421 18.0735V17.8704C29.2421 23.1336 25.6637 27.5602 20.8109 28.8562Z" fill="white" fill-opacity="0.05"/>
<path d="M32.4915 16.2454H17.8698C16.9726 16.2454 16.2454 16.9726 16.2454 17.8697C16.2454 18.7669 16.9726 19.4941 17.8698 19.4941H32.4901C33.3872 19.4941 34.1144 18.7669 34.1144 17.8697C34.1158 16.9726 33.3886 16.2454 32.4915 16.2454Z" fill="#9E9E9E"/>
<path opacity="0.5" d="M32.4915 16.2454H17.8698C16.9726 16.2454 16.2454 16.9726 16.2454 17.8697C16.2454 18.7669 16.9726 19.4941 17.8698 19.4941H32.4901C33.3872 19.4941 34.1144 18.7669 34.1144 17.8697C34.1158 16.9726 33.3886 16.2454 32.4915 16.2454Z" fill="#BDBDBD"/>
<circle cx="3.24864" cy="17.8704" r="1.21824" fill="#BDBDBD"/>
<circle cx="17.8704" cy="3.24864" r="1.21824" fill="#BDBDBD"/>
<circle cx="17.8704" cy="32.4907" r="1.21824" fill="#BDBDBD"/>
<circle cx="7.51391" cy="7.53117" r="1.21824" fill="#BDBDBD"/>
<circle cx="7.51391" cy="28.2268" r="1.21824" fill="#BDBDBD"/>
<circle cx="28.2269" cy="28.2269" r="1.21824" fill="#757575"/>
<path d="M17.8704 16.4491H32.4907C33.3533 16.4491 34.0589 17.1231 34.1093 17.9727C34.1107 17.9381 34.115 17.905 34.115 17.8704C34.115 16.9733 33.3878 16.2461 32.4907 16.2461H17.8704C16.9733 16.2461 16.2461 16.9733 16.2461 17.8704C16.2461 17.905 16.2475 17.9381 16.2518 17.9727C16.3022 17.1231 17.0064 16.4491 17.8704 16.4491Z" fill="white" fill-opacity="0.2"/>
<path d="M34.1093 17.9712C34.056 18.8194 33.3518 19.4947 32.4907 19.4947H17.8704C17.0078 19.4947 16.3022 18.8208 16.2518 17.9712C16.2475 18.0058 16.2461 18.0389 16.2461 18.072C16.2461 18.9691 16.9733 19.6963 17.8704 19.6963H32.4907C33.3878 19.6963 34.115 18.9691 34.115 18.072C34.115 18.0389 34.1136 18.0058 34.1093 17.9712Z" fill="#212121" fill-opacity="0.2"/>
<path d="M17.8704 6.70177C21.0096 6.70177 23.8522 7.97473 25.9114 10.0325L30.6058 5.33521C30.5712 5.30065 30.5381 5.26609 30.505 5.23297L25.9114 9.82801C23.8522 7.77025 21.0096 6.49729 17.8704 6.49729C11.5891 6.49729 6.49872 11.5877 6.49872 17.869C6.49872 17.9035 6.50016 17.9367 6.50016 17.9712C6.55488 11.7375 11.6237 6.70177 17.8704 6.70177Z" fill="#212121" fill-opacity="0.1"/>
<circle cx="18" cy="18" r="18" fill="url(#paint0_radial_0_1091)"/>
<defs>
<radialGradient id="paint0_radial_0_1091" cx="0" cy="0" r="1" gradientUnits="userSpaceOnUse" gradientTransform="translate(5.27861 5.23763) scale(35.9378)">
<stop stop-color="white" stop-opacity="0.1"/>
<stop offset="1" stop-color="white" stop-opacity="0.01"/>
</radialGradient>
</defs>
</svg>
