<svg width="36" height="36" viewBox="0 0 36 36" fill="none" xmlns="http://www.w3.org/2000/svg">
<path fill-rule="evenodd" clip-rule="evenodd" d="M3 17.925C3 9.64499 9.72 2.92499 18 2.92499C26.28 2.92499 33 9.64499 33 17.925V20.07C33 23.025 30.705 25.425 27.75 25.425C25.965 25.425 24.285 24.555 23.31 23.22C21.96 24.585 20.07 25.425 18 25.425C13.86 25.425 10.5 22.065 10.5 17.925C10.5 13.785 13.86 10.425 18 10.425C22.14 10.425 25.5 13.785 25.5 17.925V20.07C25.5 21.255 26.565 22.425 27.75 22.425C28.935 22.425 30 21.255 30 20.07V17.925C30 11.415 24.51 5.92499 18 5.92499C11.49 5.92499 6 11.415 6 17.925C6 24.435 11.49 29.925 18 29.925H25.5V32.925H18C9.72 32.925 3 26.205 3 17.925ZM13.5 17.925C13.5 20.415 15.51 22.425 18 22.425C20.49 22.425 22.5 20.415 22.5 17.925C22.5 15.435 20.49 13.425 18 13.425C15.51 13.425 13.5 15.435 13.5 17.925Z" fill="#323436"/>
</svg>
