<svg width="54" height="54" viewBox="0 0 54 54" fill="none" xmlns="http://www.w3.org/2000/svg">
<mask id="mask0_20_458" style="mask-type:alpha" maskUnits="userSpaceOnUse" x="5" y="13" width="44" height="32">
<path d="M9 13H40L49 22V41C49 43.2091 47.2091 45 45 45H9C6.79086 45 5 43.2091 5 41V17C5 14.7909 6.79086 13 9 13Z" fill="white"/>
</mask>
<g mask="url(#mask0_20_458)">
<path d="M9 13H40L49 22V41C49 43.2091 47.2091 45 45 45H9C6.79086 45 5 43.2091 5 41V17C5 14.7909 6.79086 13 9 13Z" fill="url(#paint0_linear_20_458)"/>
<path fill-rule="evenodd" clip-rule="evenodd" d="M40 13V22H49V13H40Z" fill="#FFAA00"/>
<path d="M15.4976 26.7484C15.4976 26.547 15.4242 26.372 15.2773 26.2232C15.1305 26.0744 14.9547 26 14.75 26C14.5453 26 14.3695 26.0744 14.2227 26.2232C14.0758 26.372 14.0024 26.547 14.0024 26.7484V27.733L13.1347 27.2341C13.019 27.1729 12.8944 27.1422 12.7609 27.1422C12.6897 27.1422 12.6096 27.1554 12.5206 27.1816C12.4316 27.2079 12.3493 27.2516 12.2737 27.3129C12.198 27.3742 12.1335 27.4486 12.0801 27.5361C12.0267 27.6236 12 27.733 12 27.8643C12 28.1357 12.129 28.3501 12.3871 28.5077L13.2549 29.0066L12.3871 29.4923C12.2625 29.5624 12.1669 29.6565 12.1001 29.7746C12.0334 29.8928 12 30.0175 12 30.1488C12 30.2801 12.0245 30.3895 12.0734 30.477C12.1224 30.5646 12.1847 30.6389 12.2603 30.7002C12.336 30.7615 12.4183 30.8053 12.5073 30.8315C12.5963 30.8578 12.6808 30.8709 12.7609 30.8709C12.8944 30.8709 13.019 30.8403 13.1347 30.779L14.0024 30.2801V31.2648C14.0024 31.4661 14.0758 31.6389 14.2227 31.7834C14.3695 31.9278 14.5453 32 14.75 32C14.9547 32 15.1305 31.9278 15.2773 31.7834C15.4242 31.6389 15.4976 31.4661 15.4976 31.2648V30.2801L16.3653 30.779C16.4632 30.8403 16.5878 30.8709 16.7391 30.8709C16.8192 30.8709 16.9037 30.8578 16.9927 30.8315C17.0817 30.8053 17.164 30.7615 17.2397 30.7002C17.3153 30.6389 17.3776 30.5646 17.4266 30.477C17.4755 30.3895 17.5 30.2801 17.5 30.1488C17.5 30.0263 17.4689 29.9037 17.4066 29.7812C17.3443 29.6586 17.2508 29.5624 17.1262 29.4923L16.2585 29.0066L17.1262 28.5077C17.2508 28.4376 17.3443 28.3435 17.4066 28.2254C17.4689 28.1072 17.5 27.9869 17.5 27.8643C17.5 27.6105 17.4177 27.4267 17.253 27.3129C17.0884 27.1991 16.9215 27.1422 16.7524 27.1422C16.6189 27.1422 16.4943 27.1729 16.3786 27.2341L15.4976 27.733V26.7484Z" fill="#FFE69C"/>
<path d="M23.4976 26.7484C23.4976 26.547 23.4242 26.372 23.2773 26.2232C23.1305 26.0744 22.9547 26 22.75 26C22.5453 26 22.3695 26.0744 22.2227 26.2232C22.0758 26.372 22.0024 26.547 22.0024 26.7484V27.733L21.1347 27.2341C21.019 27.1729 20.8944 27.1422 20.7609 27.1422C20.6897 27.1422 20.6096 27.1554 20.5206 27.1816C20.4316 27.2079 20.3493 27.2516 20.2737 27.3129C20.198 27.3742 20.1335 27.4486 20.0801 27.5361C20.0267 27.6236 20 27.733 20 27.8643C20 28.1357 20.129 28.3501 20.3871 28.5077L21.2549 29.0066L20.3871 29.4923C20.2625 29.5624 20.1669 29.6565 20.1001 29.7746C20.0334 29.8928 20 30.0175 20 30.1488C20 30.2801 20.0245 30.3895 20.0734 30.477C20.1224 30.5646 20.1847 30.6389 20.2603 30.7002C20.336 30.7615 20.4183 30.8053 20.5073 30.8315C20.5963 30.8578 20.6808 30.8709 20.7609 30.8709C20.8944 30.8709 21.019 30.8403 21.1347 30.779L22.0024 30.2801V31.2648C22.0024 31.4661 22.0758 31.6389 22.2227 31.7834C22.3695 31.9278 22.5453 32 22.75 32C22.9547 32 23.1305 31.9278 23.2773 31.7834C23.4242 31.6389 23.4976 31.4661 23.4976 31.2648V30.2801L24.3653 30.779C24.4632 30.8403 24.5878 30.8709 24.7391 30.8709C24.8192 30.8709 24.9037 30.8578 24.9927 30.8315C25.0817 30.8053 25.164 30.7615 25.2397 30.7002C25.3153 30.6389 25.3776 30.5646 25.4266 30.477C25.4755 30.3895 25.5 30.2801 25.5 30.1488C25.5 30.0263 25.4689 29.9037 25.4066 29.7812C25.3443 29.6586 25.2508 29.5624 25.1262 29.4923L24.2585 29.0066L25.1262 28.5077C25.2508 28.4376 25.3443 28.3435 25.4066 28.2254C25.4689 28.1072 25.5 27.9869 25.5 27.8643C25.5 27.6105 25.4177 27.4267 25.253 27.3129C25.0884 27.1991 24.9215 27.1422 24.7524 27.1422C24.6189 27.1422 24.4943 27.1729 24.3786 27.2341L23.4976 27.733V26.7484Z" fill="#FFE69C"/>
<path d="M31.4976 26.7484C31.4976 26.547 31.4242 26.372 31.2773 26.2232C31.1305 26.0744 30.9547 26 30.75 26C30.5453 26 30.3695 26.0744 30.2227 26.2232C30.0758 26.372 30.0024 26.547 30.0024 26.7484V27.733L29.1347 27.2341C29.019 27.1729 28.8944 27.1422 28.7609 27.1422C28.6897 27.1422 28.6096 27.1554 28.5206 27.1816C28.4316 27.2079 28.3493 27.2516 28.2737 27.3129C28.198 27.3742 28.1335 27.4486 28.0801 27.5361C28.0267 27.6236 28 27.733 28 27.8643C28 28.1357 28.129 28.3501 28.3871 28.5077L29.2549 29.0066L28.3871 29.4923C28.2625 29.5624 28.1669 29.6565 28.1001 29.7746C28.0334 29.8928 28 30.0175 28 30.1488C28 30.2801 28.0245 30.3895 28.0734 30.477C28.1224 30.5646 28.1847 30.6389 28.2603 30.7002C28.336 30.7615 28.4183 30.8053 28.5073 30.8315C28.5963 30.8578 28.6808 30.8709 28.7609 30.8709C28.8944 30.8709 29.019 30.8403 29.1347 30.779L30.0024 30.2801V31.2648C30.0024 31.4661 30.0758 31.6389 30.2227 31.7834C30.3695 31.9278 30.5453 32 30.75 32C30.9547 32 31.1305 31.9278 31.2773 31.7834C31.4242 31.6389 31.4976 31.4661 31.4976 31.2648V30.2801L32.3653 30.779C32.4632 30.8403 32.5878 30.8709 32.7391 30.8709C32.8192 30.8709 32.9037 30.8578 32.9927 30.8315C33.0817 30.8053 33.164 30.7615 33.2397 30.7002C33.3153 30.6389 33.3776 30.5646 33.4266 30.477C33.4755 30.3895 33.5 30.2801 33.5 30.1488C33.5 30.0263 33.4689 29.9037 33.4066 29.7812C33.3443 29.6586 33.2508 29.5624 33.1262 29.4923L32.2585 29.0066L33.1262 28.5077C33.2508 28.4376 33.3443 28.3435 33.4066 28.2254C33.4689 28.1072 33.5 27.9869 33.5 27.8643C33.5 27.6105 33.4177 27.4267 33.253 27.3129C33.0884 27.1991 32.9215 27.1422 32.7524 27.1422C32.6189 27.1422 32.4943 27.1729 32.3786 27.2341L31.4976 27.733V26.7484Z" fill="#FFE69C"/>
<path d="M39.4976 26.7484C39.4976 26.547 39.4242 26.372 39.2773 26.2232C39.1305 26.0744 38.9547 26 38.75 26C38.5453 26 38.3695 26.0744 38.2227 26.2232C38.0758 26.372 38.0024 26.547 38.0024 26.7484V27.733L37.1347 27.2341C37.019 27.1729 36.8944 27.1422 36.7609 27.1422C36.6897 27.1422 36.6096 27.1554 36.5206 27.1816C36.4316 27.2079 36.3493 27.2516 36.2737 27.3129C36.198 27.3742 36.1335 27.4486 36.0801 27.5361C36.0267 27.6236 36 27.733 36 27.8643C36 28.1357 36.129 28.3501 36.3871 28.5077L37.2549 29.0066L36.3871 29.4923C36.2625 29.5624 36.1669 29.6565 36.1001 29.7746C36.0334 29.8928 36 30.0175 36 30.1488C36 30.2801 36.0245 30.3895 36.0734 30.477C36.1224 30.5646 36.1847 30.6389 36.2603 30.7002C36.336 30.7615 36.4183 30.8053 36.5073 30.8315C36.5963 30.8578 36.6808 30.8709 36.7609 30.8709C36.8944 30.8709 37.019 30.8403 37.1347 30.779L38.0024 30.2801V31.2648C38.0024 31.4661 38.0758 31.6389 38.2227 31.7834C38.3695 31.9278 38.5453 32 38.75 32C38.9547 32 39.1305 31.9278 39.2773 31.7834C39.4242 31.6389 39.4976 31.4661 39.4976 31.2648V30.2801L40.3653 30.779C40.4632 30.8403 40.5878 30.8709 40.7391 30.8709C40.8192 30.8709 40.9037 30.8578 40.9927 30.8315C41.0817 30.8053 41.164 30.7615 41.2397 30.7002C41.3153 30.6389 41.3776 30.5646 41.4266 30.477C41.4755 30.3895 41.5 30.2801 41.5 30.1488C41.5 30.0263 41.4689 29.9037 41.4066 29.7812C41.3443 29.6586 41.2508 29.5624 41.1262 29.4923L40.2585 29.0066L41.1262 28.5077C41.2508 28.4376 41.3443 28.3435 41.4066 28.2254C41.4689 28.1072 41.5 27.9869 41.5 27.8643C41.5 27.6105 41.4177 27.4267 41.253 27.3129C41.0884 27.1991 40.9215 27.1422 40.7524 27.1422C40.6189 27.1422 40.4943 27.1729 40.3786 27.2341L39.4976 27.733V26.7484Z" fill="#FFE69C"/>
</g>
<defs>
<linearGradient id="paint0_linear_20_458" x1="27" y1="13" x2="27" y2="45" gradientUnits="userSpaceOnUse">
<stop stop-color="#FFC107"/>
<stop offset="1" stop-color="#FFB629"/>
</linearGradient>
</defs>
</svg>
