<svg width="18" height="18" viewBox="0 0 18 18" fill="none" xmlns="http://www.w3.org/2000/svg">
<path fill-rule="evenodd" clip-rule="evenodd" d="M1 9C1 4.58172 4.58172 1 9 1C13.4183 1 17 4.58172 17 9C17 13.4183 13.4183 17 9 17C4.58172 17 1 13.4183 1 9Z" fill="#00A56A"/>
<path d="M7.25 11.4325L5.22875 9.41125C5.00139 9.18389 4.63296 9.18324 4.4048 9.4098C4.17549 9.63749 4.17483 10.0082 4.40334 10.2367L7.25 13.0833L13.8387 6.49468C14.0658 6.2675 14.0658 5.89917 13.8387 5.67199C13.6115 5.44488 13.2434 5.44479 13.0162 5.67179L7.25 11.4325Z" fill="white"/>
</svg>
