<svg width="20" height="20" viewBox="0 0 20 20" fill="none" xmlns="http://www.w3.org/2000/svg">
<path fill-rule="evenodd" clip-rule="evenodd" d="M10 20C15.5228 20 20 15.5228 20 10C20 4.47715 15.5228 0 10 0C4.47715 0 0 4.47715 0 10C0 15.5228 4.47715 20 10 20ZM14.774 7.8196C15.0436 7.52784 15.0294 7.07374 14.742 6.79947C14.448 6.5189 13.9811 6.53355 13.7053 6.832L8.43719 12.5325L6.54628 10.5356C6.26684 10.2405 5.79952 10.2325 5.51013 10.5178C5.22889 10.7951 5.22115 11.2465 5.49272 11.5333L7.92254 14.0992C8.20198 14.3943 8.6693 14.4023 8.95869 14.117C8.98561 14.0904 9.01003 14.0623 9.03194 14.0329L14.774 7.8196Z" fill="#258AF7"/>
</svg>
