<svg width="20" height="20" viewBox="0 0 20 20" fill="none" xmlns="http://www.w3.org/2000/svg">
<path fill-rule="evenodd" clip-rule="evenodd" d="M10 20C15.5228 20 20 15.5228 20 10C20 4.47715 15.5228 0 10 0C4.47715 0 0 4.47715 0 10C0 15.5228 4.47715 20 10 20ZM12.2749 6.4144C12.5402 6.14917 12.9702 6.14916 13.2354 6.41438L13.3356 6.51454C13.6008 6.77977 13.6008 7.20981 13.3356 7.47505L10.8107 10L13.3356 12.5249C13.6008 12.7902 13.6008 13.2202 13.3356 13.4854L13.2354 13.5856C12.9701 13.8508 12.5401 13.8508 12.2749 13.5856L9.75 11.0607L7.22509 13.5856C6.95986 13.8508 6.52985 13.8508 6.26461 13.5856L6.16445 13.4854C5.8992 13.2202 5.89919 12.7902 6.16443 12.5249L8.68934 10L6.1644 7.47505C5.89916 7.20981 5.89917 6.77977 6.16442 6.51454L6.26458 6.41438C6.52982 6.14917 6.95983 6.14917 7.22506 6.4144L9.75 8.93934L12.2749 6.4144Z" fill="#FFA000"/>
</svg>
