<svg width="25" height="25" viewBox="0 0 25 25" fill="none" xmlns="http://www.w3.org/2000/svg">
<path fill-rule="evenodd" clip-rule="evenodd" d="M12.5 2C6.70101 2 2 6.70101 2 12.5C2 18.299 6.70101 23 12.5 23C18.299 23 23 18.299 23 12.5C23 6.70101 18.299 2 12.5 2ZM12 8.5C12 8.22386 12.2239 8 12.5 8C12.7761 8 13 8.22386 13 8.5V12H16.5C16.7761 12 17 12.2239 17 12.5C17 12.7761 16.7761 13 16.5 13H13V16.5C13 16.7761 12.7761 17 12.5 17C12.2239 17 12 16.7761 12 16.5V13H8.5C8.22386 13 8 12.7761 8 12.5C8 12.2239 8.22386 12 8.5 12H12V8.5Z" fill="#323436"/>
</svg>
