<svg width="36" height="36" viewBox="0 0 36 36" fill="none" xmlns="http://www.w3.org/2000/svg">
<circle cx="18" cy="18" r="18" fill="#FB9924"/>
<path fill-rule="evenodd" clip-rule="evenodd" d="M19.9816 11.7278C22.0226 11.9157 23.6379 12.5744 23.8178 14.5401C23.9519 15.9785 23.3785 16.8416 22.4608 17.3301C23.9687 17.7105 24.9132 18.6535 24.7266 20.7636C24.4963 23.3845 22.6352 24.0879 19.9793 24.2476V25.9744H17.9936L17.9947 24.284C17.786 24.284 16.9662 24.2706 16.1608 24.2575C15.3834 24.2448 14.6195 24.2323 14.4317 24.2323H12.375L12.6891 22.2502C12.6891 22.2502 13.8572 22.269 13.8371 22.2502C14.2842 22.249 14.4027 21.912 14.4306 21.7006L14.4317 17.3477H14.5983C14.5335 17.3383 14.4764 17.336 14.4317 17.336V14.2289C14.3714 13.8919 14.1635 13.5021 13.523 13.5021C13.5431 13.4797 12.3761 13.5032 12.3761 13.5032V11.7301L14.5547 11.7313V11.7395C14.8768 11.7395 15.2075 11.7327 15.5437 11.7258L15.5607 11.7254C16.9061 11.6785 17.7171 11.655 17.9936 11.655V10.125H19.9816V11.7278ZM17.5011 13.4826L17.5012 13.4826C18.6081 13.4518 20.8723 13.3889 20.8713 15.146C20.8713 16.8628 18.5216 16.8238 17.4401 16.8059C17.3403 16.8042 17.2513 16.8028 17.1759 16.8029V13.4891C17.2664 13.4891 17.3764 13.4861 17.5011 13.4826ZM17.1759 22.1292V18.4738C17.2851 18.474 17.418 18.4709 17.5687 18.4674C18.8972 18.436 21.6068 18.3721 21.6068 20.3021C21.6068 22.195 18.773 22.1521 17.4805 22.1325C17.3658 22.1308 17.2633 22.1292 17.1759 22.1292Z" fill="white"/>
</svg>
