<svg width="20" height="20" viewBox="0 0 20 20" fill="none" xmlns="http://www.w3.org/2000/svg">
<path fill-rule="evenodd" clip-rule="evenodd" d="M1.9931 1C1.44472 1 1 1.44472 1 1.9931V18.0069C1 18.5556 1.44472 19 1.9931 19H10.6207V12.039H8.27759V9.31414H10.6207V7.30931C10.6207 4.98483 12.0421 3.71862 14.1152 3.71862C14.8138 3.71707 15.512 3.75245 16.2069 3.82414V6.25414H14.7796C13.6497 6.25414 13.4293 6.78793 13.4293 7.57621V9.31103H16.1293L15.7786 12.0359H13.4138V19H18.0069C18.5556 19 19 18.5556 19 18.0069V1.9931C19 1.44472 18.5556 1 18.0069 1H1.9931Z" fill="#323436"/>
</svg>
