<svg width="36" height="36" viewBox="0 0 36 36" fill="none" xmlns="http://www.w3.org/2000/svg">
<path fill-rule="evenodd" clip-rule="evenodd" d="M18 36C27.9411 36 36 27.9411 36 18C36 8.05887 27.9411 0 18 0C8.05887 0 0 8.05887 0 18C0 27.9411 8.05887 36 18 36ZM18.0229 19.6786C19.2672 19.6786 19.825 19.6462 19.9329 19.6384L19.9293 19.6375C23.7466 19.4732 26.594 18.8265 26.594 18.054C26.594 17.2815 23.7457 16.6348 19.9293 16.4696V18.9952C19.8223 19.0048 19.2276 19.0529 18.04 19.0529C17.0504 19.0529 16.3343 19.0118 16.0842 18.9943V16.4679C12.2597 16.6339 9.40506 17.2797 9.40506 18.054C9.40506 18.8283 12.2597 19.475 16.0842 19.6384C16.3307 19.6497 17.0333 19.6786 18.0229 19.6786ZM25.2589 13.9475H19.9329L19.932 16.2074C24.2531 16.4015 27.5 17.2334 27.5 18.2305C27.5 19.2277 24.2504 20.0596 19.932 20.2527V27.5H16.0833V20.2554C11.755 20.0614 8.5 19.2294 8.5 18.2314C8.5 17.2334 11.755 16.4006 16.0833 16.2074V13.9475H10.7582V10.5H25.2589V13.9475Z" fill="#22A17A"/>
<path fill-rule="evenodd" clip-rule="evenodd" d="M19.9329 19.6384C19.825 19.6462 19.2672 19.6786 18.0229 19.6786C17.0333 19.6786 16.3307 19.6497 16.0842 19.6384C12.2597 19.475 9.40506 18.8283 9.40506 18.054C9.40506 17.2797 12.2597 16.6339 16.0842 16.4679V18.9943C16.3343 19.0118 17.0504 19.0529 18.04 19.0529C19.2276 19.0529 19.8223 19.0048 19.9293 18.9952V16.4696C23.7457 16.6348 26.594 17.2815 26.594 18.054C26.594 18.8265 23.7466 19.4732 19.9293 19.6375L19.9329 19.6384ZM19.9329 13.9475H25.2589V10.5H10.7582V13.9475H16.0833V16.2074C11.755 16.4006 8.5 17.2334 8.5 18.2314C8.5 19.2294 11.755 20.0614 16.0833 20.2554V27.5H19.932V20.2527C24.2504 20.0596 27.5 19.2277 27.5 18.2305C27.5 17.2334 24.2531 16.4015 19.932 16.2074L19.9329 13.9475Z" fill="white"/>
</svg>
