<svg width="18" height="18" viewBox="0 0 18 18" fill="none" xmlns="http://www.w3.org/2000/svg">
<path d="M1.07293 12.3906L7.3359 2.99615C8.12754 1.80868 9.87246 1.80868 10.6641 2.99615L16.9271 12.3906C17.8131 13.7197 16.8604 15.5 15.263 15.5H2.73703C1.13964 15.5 0.186859 13.7197 1.07293 12.3906Z" fill="#E04450"/>
<path fill-rule="evenodd" clip-rule="evenodd" d="M9 5C8.58579 5 8.25 5.33579 8.25 5.75V10.25C8.25 10.6642 8.58579 11 9 11C9.41421 11 9.75 10.6642 9.75 10.25V5.75C9.75 5.33579 9.41421 5 9 5ZM9 14C9.55228 14 10 13.5523 10 13C10 12.4477 9.55228 12 9 12C8.44772 12 8 12.4477 8 13C8 13.5523 8.44772 14 9 14Z" fill="#3D3D3E"/>
</svg>
