<svg width="18" height="18" viewBox="0 0 18 18" fill="none" xmlns="http://www.w3.org/2000/svg">
<path fill-rule="evenodd" clip-rule="evenodd" d="M9 17C13.4183 17 17 13.4183 17 9C17 4.58172 13.4183 1 9 1C4.58172 1 1 4.58172 1 9C1 13.4183 4.58172 17 9 17ZM8.25 5.75C8.25 5.33579 8.58579 5 9 5C9.41421 5 9.75 5.33579 9.75 5.75V9.25C9.75 9.66421 9.41421 10 9 10C8.58579 10 8.25 9.66421 8.25 9.25V5.75ZM10 12C10 12.5523 9.55228 13 9 13C8.44772 13 8 12.5523 8 12C8 11.4477 8.44772 11 9 11C9.55228 11 10 11.4477 10 12Z" fill="white"/>
</svg>
