<svg width="18" height="18" viewBox="0 0 18 18" fill="none" xmlns="http://www.w3.org/2000/svg">
<path fill-rule="evenodd" clip-rule="evenodd" d="M9 17C13.4183 17 17 13.4183 17 9C17 4.58172 13.4183 1 9 1C4.58172 1 1 4.58172 1 9C1 13.4183 4.58172 17 9 17ZM12.995 6.99497C13.2683 6.72161 13.2683 6.27839 12.995 6.00503C12.7216 5.73166 12.2784 5.73166 12.005 6.00503L7.5 10.5101L5.99497 9.00502C5.72161 8.73166 5.27839 8.73166 5.00503 9.00502C4.73166 9.27839 4.73166 9.72161 5.00503 9.99498L7.00503 11.995L7.5 12.49L7.99498 11.995L12.995 6.99497Z" fill="#2DBC82"/>
</svg>
