<svg width="24" height="24" viewBox="0 0 24 24" fill="none" xmlns="http://www.w3.org/2000/svg">
<path fill-rule="evenodd" clip-rule="evenodd" d="M4.05102 12C4.05102 7.6099 7.6099 4.05102 12 4.05102C16.3901 4.05102 19.949 7.6099 19.949 12C19.949 16.3901 16.3901 19.949 12 19.949C7.6099 19.949 4.05102 16.3901 4.05102 12ZM12 2.5C6.7533 2.5 2.5 6.7533 2.5 12C2.5 17.2467 6.7533 21.5 12 21.5C17.2467 21.5 21.5 17.2467 21.5 12C21.5 6.7533 17.2467 2.5 12 2.5ZM12.3657 9.5446C11.5486 9.88443 9.91573 10.5878 7.46696 11.6547C7.06932 11.8128 6.86102 11.9675 6.84205 12.1188C6.81001 12.3744 7.13014 12.4751 7.56607 12.6121C7.62537 12.6308 7.6868 12.6501 7.74979 12.6706C8.17868 12.81 8.75561 12.9731 9.05554 12.9796C9.3276 12.9855 9.63125 12.8733 9.96648 12.6431C12.2544 11.0987 13.4355 10.318 13.5097 10.3012C13.562 10.2893 13.6345 10.2744 13.6836 10.318C13.7327 10.3617 13.7279 10.4444 13.7227 10.4666C13.6909 10.6017 12.4343 11.77 11.784 12.3746C11.5813 12.5631 11.4375 12.6968 11.4081 12.7273C11.3422 12.7957 11.2751 12.8604 11.2106 12.9226C10.8122 13.3067 10.5134 13.5947 11.2272 14.0651C11.5702 14.2912 11.8447 14.4781 12.1185 14.6646C12.4176 14.8682 12.7158 15.0713 13.1018 15.3243C13.2001 15.3888 13.294 15.4557 13.3855 15.5209C13.7335 15.769 14.0462 15.9919 14.4324 15.9564C14.6569 15.9357 14.8888 15.7247 15.0065 15.0952C15.2848 13.6076 15.8318 10.3843 15.9582 9.05603C15.9693 8.93966 15.9553 8.79073 15.9441 8.72535C15.933 8.65997 15.9096 8.56682 15.8246 8.49787C15.7239 8.4162 15.5686 8.39898 15.4991 8.40021C15.1832 8.40577 14.6984 8.57432 12.3657 9.5446Z" fill="#404244"/>
</svg>
