<svg width="24" height="24" viewBox="0 0 24 24" fill="none" xmlns="http://www.w3.org/2000/svg">
<path fill-rule="evenodd" clip-rule="evenodd" d="M4.05102 12C4.05102 7.6099 7.6099 4.05102 12 4.05102C16.3901 4.05102 19.949 7.6099 19.949 12C19.949 16.3901 16.3901 19.949 12 19.949C7.6099 19.949 4.05102 16.3901 4.05102 12ZM12 2.5C6.7533 2.5 2.5 6.7533 2.5 12C2.5 17.2467 6.7533 21.5 12 21.5C17.2467 21.5 21.5 17.2467 21.5 12C21.5 6.7533 17.2467 2.5 12 2.5ZM12 7L13.2388 8.26866L10.1194 11.3881L8.88061 10.1493L12 7ZM13.8806 8.88061L15.1194 10.1493L10.1194 15.1493L8.88061 13.9105L13.8806 8.88061ZM9.47762 12.0299L8.23881 10.7612L7 12.0299L8.23881 13.2687L9.47762 12.0299ZM15.7612 10.7612L17 12.0299L12 17.0299L10.7612 15.7911L15.7612 10.7612Z" fill="#404244"/>
</svg>
