<svg width="24" height="24" viewBox="0 0 24 24" fill="none" xmlns="http://www.w3.org/2000/svg">
<path fill-rule="evenodd" clip-rule="evenodd" d="M4.5 4.1H19.5C19.7209 4.1 19.9 4.27909 19.9 4.5V19.5C19.9 19.7209 19.7209 19.9 19.5 19.9H4.5C4.27909 19.9 4.1 19.7209 4.1 19.5V4.5C4.1 4.27909 4.27909 4.1 4.5 4.1ZM2.5 4.5C2.5 3.39543 3.39543 2.5 4.5 2.5H19.5C20.6046 2.5 21.5 3.39543 21.5 4.5V19.5C21.5 20.6046 20.6046 21.5 19.5 21.5H4.5C3.39543 21.5 2.5 20.6046 2.5 19.5V4.5ZM7.42996 9.11017C7.52892 9.19937 7.57946 9.33037 7.56605 9.46291V14.2349C7.59541 14.407 7.54115 14.5829 7.41987 14.7086L6.28577 16.0842V16.2656H9.50159V16.0842L8.36748 14.7086C8.24532 14.5831 8.18769 14.4084 8.21123 14.2349V10.1079L11.0339 16.2656H11.3615L13.786 10.1079V15.0159C13.786 15.147 13.786 15.1722 13.7003 15.2578L12.8283 16.1044V16.2858H17.0623V16.1044L16.2205 15.278C16.1462 15.2213 16.1094 15.1282 16.1248 15.0361V8.96404C16.1094 8.8719 16.1462 8.77881 16.2205 8.72217L17.0825 7.89576V7.71436H14.0985L11.9714 13.0205L9.552 7.71436H6.42186V7.89576L7.42996 9.11017Z" fill="#404244"/>
</svg>
