<svg width="24" height="24" viewBox="0 0 24 24" fill="none" xmlns="http://www.w3.org/2000/svg">
<path fill-rule="evenodd" clip-rule="evenodd" d="M4.05102 12C4.05102 7.6099 7.6099 4.05102 12 4.05102C16.3901 4.05102 19.949 7.6099 19.949 12C19.949 16.3901 16.3901 19.949 12 19.949C7.6099 19.949 4.05102 16.3901 4.05102 12ZM12 2.5C6.7533 2.5 2.5 6.7533 2.5 12C2.5 17.2467 6.7533 21.5 12 21.5C17.2467 21.5 21.5 17.2467 21.5 12C21.5 6.7533 17.2467 2.5 12 2.5ZM12.012 12.8309C12.6669 12.8309 12.9605 12.8139 13.0173 12.8098L13.0154 12.8093C15.0245 12.7228 16.5231 12.3825 16.5231 11.9759C16.5231 11.5693 15.024 11.2289 13.0154 11.142V12.4713C12.959 12.4763 12.646 12.5016 12.021 12.5016C11.5002 12.5016 11.1233 12.48 10.9916 12.4708V11.1411C8.97874 11.2285 7.4763 11.5684 7.4763 11.9759C7.4763 12.3834 8.97874 12.7238 10.9916 12.8098C11.1214 12.8158 11.4912 12.8309 12.012 12.8309ZM15.8205 9.8145H13.0173L13.0169 11.0039C15.2911 11.106 17 11.5439 17 12.0687C17 12.5935 15.2897 13.0314 13.0169 13.133V16.9474H10.9912V13.1344C8.71315 13.0323 7 12.5944 7 12.0692C7 11.5439 8.71315 11.1056 10.9912 11.0039V9.8145H8.1885V8H15.8205V9.8145Z" fill="#1F2223"/>
</svg>
