<svg width="24" height="24" viewBox="0 0 24 24" fill="none" xmlns="http://www.w3.org/2000/svg">
<path fill-rule="evenodd" clip-rule="evenodd" d="M4.05102 12C4.05102 7.6099 7.6099 4.05102 12 4.05102C16.3901 4.05102 19.949 7.6099 19.949 12C19.949 16.3901 16.3901 19.949 12 19.949C7.6099 19.949 4.05102 16.3901 4.05102 12ZM12 2.5C6.7533 2.5 2.5 6.7533 2.5 12C2.5 17.2467 6.7533 21.5 12 21.5C17.2467 21.5 21.5 17.2467 21.5 12C21.5 6.7533 17.2467 2.5 12 2.5ZM16.3596 11.7222C16.8814 10.5914 16.2067 9.72191 15.1507 8.97535L15.6563 8.09958L14.57 7.47244L14.0874 8.30842C13.9363 8.22121 13.4858 7.97821 12.7358 7.57942L12.7264 7.57426L12.7264 7.57426C12.5405 7.47198 12.3577 7.37137 12.1817 7.26976L12.1843 7.26527L10.9942 6.57735L10.4349 7.5462C10.4349 7.5462 11.0799 7.90151 11.0619 7.90735C11.4119 8.10941 11.4025 8.38801 11.3292 8.5912L10.349 10.2889C10.3734 10.303 10.4038 10.3223 10.4363 10.3479L10.3453 10.2953L8.97145 12.6735C8.8895 12.7801 8.71845 12.9269 8.47377 12.7865C8.47884 12.8031 7.84651 12.4243 7.84651 12.4243L7.04958 13.4083L8.1734 14.0571C8.27598 14.1164 8.68934 14.3641 9.11005 14.6162L9.11026 14.6164C9.54616 14.8776 9.98988 15.1435 10.1039 15.2094L9.57003 16.1327L10.6551 16.7591L11.1998 15.8156C12.7014 16.5661 13.9402 16.7689 14.8929 15.4095C15.6605 14.3154 15.4419 13.5022 14.738 12.8186C15.3935 12.8412 15.9791 12.5505 16.3596 11.7222ZM14.5585 11.1237C15.1134 10.1639 13.8563 9.48405 13.2417 9.15165L13.2417 9.15163C13.1725 9.11418 13.1114 9.08115 13.062 9.05262L12.0166 10.8633C12.0578 10.887 12.1059 10.9158 12.1598 10.9482L12.16 10.9483L12.16 10.9483C12.7453 11.2993 14.0169 12.0618 14.5585 11.1237ZM11.4895 11.7763L10.3363 13.7737C10.384 13.8012 10.4395 13.8344 10.5015 13.8715L10.5017 13.8715C11.2017 14.29 12.7366 15.2074 13.3338 14.1731C13.9426 13.1185 12.4419 12.2987 11.7061 11.8967L11.7061 11.8967L11.706 11.8967C11.6226 11.8511 11.549 11.8109 11.4895 11.7763Z" fill="#404244"/>
</svg>
