<svg width="24" height="24" viewBox="0 0 24 24" fill="none" xmlns="http://www.w3.org/2000/svg">
<path fill-rule="evenodd" clip-rule="evenodd" d="M12 4.05102C7.6099 4.05102 4.05102 7.6099 4.05102 12C4.05102 16.3901 7.6099 19.949 12 19.949C16.3901 19.949 19.949 16.3901 19.949 12C19.949 7.6099 16.3901 4.05102 12 4.05102ZM2.5 12C2.5 6.7533 6.7533 2.5 12 2.5C17.2467 2.5 21.5 6.7533 21.5 12C21.5 17.2467 17.2467 21.5 12 21.5C6.7533 21.5 2.5 17.2467 2.5 12Z" fill="#1F2223"/>
<path fill-rule="evenodd" clip-rule="evenodd" d="M12.8 7H11.2V11.2H7V12.8H11.2V17H12.8V12.8H17V11.2H12.8V7Z" fill="#1F2223"/>
</svg>
