<svg width="24" height="24" viewBox="0 0 24 24" fill="none" xmlns="http://www.w3.org/2000/svg">
<path fill-rule="evenodd" clip-rule="evenodd" d="M4.05102 12C4.05102 7.6099 7.6099 4.05102 12 4.05102C16.3901 4.05102 19.949 7.6099 19.949 12C19.949 16.3901 16.3901 19.949 12 19.949C7.6099 19.949 4.05102 16.3901 4.05102 12ZM12 2.5C6.7533 2.5 2.5 6.7533 2.5 12C2.5 17.2467 6.7533 21.5 12 21.5C17.2467 21.5 21.5 17.2467 21.5 12C21.5 6.7533 17.2467 2.5 12 2.5ZM16.2146 9.8845L16.2147 9.88454L16.2148 9.8847L16.2148 9.88472L16.215 9.8849C16.4503 10.1134 16.676 10.3327 16.8708 10.5126C16.9705 10.5995 17.0173 10.7323 16.9942 10.8626C16.9495 10.9444 16.8972 11.0219 16.838 11.0938C16.3804 11.6782 11.8574 17.1656 11.8574 17.1656C11.8574 17.1656 11.6044 17.5 11.5451 17.5H11.5201C11.4093 17.4906 11.3499 17.3066 11.3187 17.2097L11.3186 17.2094C11.0811 16.5551 10.3997 14.9234 9.66692 13.1684L9.66692 13.1684L9.6669 13.1684L9.66688 13.1683C8.80011 11.0925 7.86137 8.84432 7.5 7.83763V7.82044V7.70951L7.50781 7.68919C7.52473 7.63992 7.55248 7.59507 7.58902 7.55794L7.6187 7.53451C7.64594 7.51642 7.6769 7.50467 7.70928 7.50013C7.81877 7.48681 13.1413 8.48037 14.7835 8.78693L14.7836 8.78693L14.7836 8.78694L14.7836 8.78695L15.0216 8.83137C15.0844 8.85374 15.143 8.88649 15.195 8.92824L15.2262 8.95011C15.5346 9.22392 15.8839 9.56329 16.2146 9.88448L16.2146 9.8845ZM14.9481 9.54987L13.0177 11.1514L16.0804 10.5936L14.9481 9.54987ZM12.2681 11.0468L8.94455 8.32184L14.3218 9.31401L12.2681 11.0468ZM15.9697 11.2125L12.5681 11.7609L12.0808 15.8999L15.9697 11.2125ZM8.49319 8.59406L11.9901 11.5628L11.484 15.9033L8.49319 8.59406Z" fill="#404244"/>
</svg>
