<svg width="24" height="24" viewBox="0 0 24 24" fill="none" xmlns="http://www.w3.org/2000/svg">
<path fill-rule="evenodd" clip-rule="evenodd" d="M11.9961 19.123C4.89513 19.123 2.49609 11.998 2.49609 11.998C2.49609 11.998 4.82357 4.87305 11.9961 4.87305C19.1686 4.87305 21.4961 11.998 21.4961 11.998C21.4961 11.998 19.0971 19.123 11.9961 19.123ZM4.76874 12.2129C4.72921 12.1343 4.69293 12.0597 4.65981 11.9897C4.69172 11.9211 4.72664 11.8481 4.76466 11.7712C5.04449 11.2053 5.47941 10.455 6.09536 9.71288C7.31295 8.24591 9.16903 6.87305 11.9961 6.87305C14.8232 6.87305 16.6792 8.24591 17.8968 9.71288C18.5128 10.455 18.9477 11.2053 19.2275 11.7712C19.2655 11.8481 19.3005 11.9211 19.3324 11.9897C19.2993 12.0597 19.263 12.1343 19.2235 12.2129C18.9378 12.7809 18.4957 13.5339 17.8738 14.2787C16.6413 15.7546 14.7829 17.123 11.9961 17.123C9.20931 17.123 7.35088 15.7546 6.1184 14.2787C5.4965 13.5339 5.05435 12.7809 4.76874 12.2129ZM4.38927 11.3531C4.38853 11.351 4.38835 11.3505 4.38873 11.3516L4.38927 11.3531ZM19.6035 11.3516C19.6038 11.3505 19.6037 11.351 19.6029 11.3531L19.6035 11.3516ZM11.9954 14.9712C13.6356 14.9712 14.9653 13.6415 14.9653 12.0012C14.9653 10.361 13.6356 9.03125 11.9954 9.03125C10.3551 9.03125 9.02539 10.361 9.02539 12.0012C9.02539 13.6415 10.3551 14.9712 11.9954 14.9712Z" fill="#D3D5D9"/>
</svg>
