<svg width="24" height="24" viewBox="0 0 24 24" fill="none" xmlns="http://www.w3.org/2000/svg">
<path fill-rule="evenodd" clip-rule="evenodd" d="M4.05102 12.02C4.05102 7.62992 7.6099 4.07104 12 4.07104C16.3901 4.07104 19.949 7.62992 19.949 12.02C19.949 16.4101 16.3901 19.969 12 19.969C7.6099 19.969 4.05102 16.4101 4.05102 12.02ZM12 2.52002C6.7533 2.52002 2.5 6.77331 2.5 12.02C2.5 17.2667 6.7533 21.52 12 21.52C17.2467 21.52 21.5 17.2667 21.5 12.02C21.5 6.77331 17.2467 2.52002 12 2.52002ZM9.96001 17.4854C10.1327 17.5399 10.2726 17.4373 10.2726 17.2567V16.8051C10.2726 16.6845 10.1805 16.5461 10.0672 16.5039C8.25092 15.8299 6.94984 14.0652 6.94984 11.9969C6.94984 9.92862 8.25092 8.1643 10.0672 7.48991C10.1805 7.45074 10.2726 7.30923 10.2726 7.18901V6.74319C10.2726 6.5626 10.1327 6.46035 9.96001 6.51453C7.6644 7.25505 6 9.43177 6 12C6 14.5682 7.6644 16.7449 9.96001 17.4854ZM12.4478 15.6667C12.5798 15.6667 12.6878 15.5633 12.6878 15.4367H12.6908V14.7127C13.6779 14.5605 14.308 13.9024 14.308 13.0893C14.308 12.0173 13.6298 11.6582 12.316 11.4858C11.3439 11.3505 11.1577 11.1323 11.1577 10.6984C11.1577 10.2875 11.4848 9.9945 12.1178 9.9945C12.6908 9.9945 13.0209 10.1841 13.1559 10.6264C13.1889 10.7269 13.2789 10.7959 13.3868 10.7959H13.891C14.0319 10.7959 14.1399 10.6726 14.11 10.5402C13.9509 9.84488 13.4619 9.42563 12.6908 9.29324V8.56333C12.6908 8.43685 12.5829 8.33335 12.4509 8.33335H11.9738C11.8419 8.33335 11.7338 8.43685 11.7338 8.56333V9.27309C10.7859 9.40248 10.1738 10.0058 10.1738 10.7816C10.1738 11.7873 10.8068 12.1753 12.1448 12.3477C13.0508 12.4915 13.3089 12.6782 13.3089 13.1726C13.3089 13.6666 12.8708 13.9971 12.2528 13.9971C11.4158 13.9971 11.1429 13.6494 11.0408 13.1953C11.0168 13.0863 10.9207 13.0087 10.8068 13.0087H10.2607C10.1227 13.0087 10.0147 13.1264 10.0388 13.2559C10.1768 14.0173 10.6867 14.5777 11.7308 14.7127V15.4367C11.7308 15.5633 11.8388 15.6667 11.9707 15.6667H12.4478ZM14.0399 17.4854C13.8674 17.5399 13.7273 17.4373 13.7273 17.2566V16.811C13.7273 16.6784 13.8078 16.555 13.9328 16.5096C15.749 15.8349 17.0501 14.0698 17.0501 12.0006C17.0501 9.93143 15.749 8.16634 13.9328 7.49165C13.8197 7.44941 13.7273 7.31098 13.7273 7.19027V6.74461C13.7273 6.56394 13.8674 6.45859 14.0399 6.51549C16.3355 7.25678 17.9999 9.43436 17.9999 12.0037C17.9971 14.5669 16.3355 16.7415 14.0399 17.4854Z" fill="#404244"/>
</svg>
