<svg width="24" height="24" viewBox="0 0 24 24" fill="none" xmlns="http://www.w3.org/2000/svg">
<path fill-rule="evenodd" clip-rule="evenodd" d="M8.03915 18.272C9.1562 18.7917 10.4688 19.123 12 19.123C19.101 19.123 21.5 11.998 21.5 11.998C21.5 11.998 20.7252 9.62606 18.6919 7.61928L17.7022 8.60898C17.9405 8.84399 18.1602 9.08603 18.3624 9.32968C19.0154 10.1163 19.4743 10.9087 19.7693 11.5053C19.8607 11.6902 19.9355 11.8546 19.9948 11.992C19.934 12.1303 19.8572 12.296 19.7634 12.4824C19.4627 13.0804 18.9967 13.8747 18.3382 14.6632C17.0293 16.2308 15.0159 17.723 12 17.723C10.9091 17.723 9.94943 17.5278 9.10677 17.2044L8.03915 18.272ZM7.28138 16.2014C6.64939 15.7365 6.1136 15.2043 5.66176 14.6632C5.00332 13.8747 4.53728 13.0804 4.23659 12.4824C4.14285 12.296 4.06603 12.1303 4.00518 11.992C4.06445 11.8546 4.13928 11.6902 4.23071 11.5053C4.52568 10.9087 4.98465 10.1163 5.63758 9.32968C6.93342 7.76843 8.94518 6.27305 12 6.27305C13.6619 6.27305 15.015 6.7156 16.1122 7.37057L17.128 6.35474C15.7938 5.48713 14.1057 4.87305 12 4.87305C4.82748 4.87305 2.5 11.998 2.5 11.998C2.5 11.998 3.54122 15.0904 6.28211 17.2006L7.28138 16.2014Z" fill="#D3D5D9"/>
<path fill-rule="evenodd" clip-rule="evenodd" d="M3.96875 18.5709L18.6588 3.88086L20.073 5.29507L5.38296 19.9851L3.96875 18.5709Z" fill="#D3D5D9"/>
</svg>
