<svg width="24" height="24" viewBox="0 0 24 24" fill="none" xmlns="http://www.w3.org/2000/svg">
<path fill-rule="evenodd" clip-rule="evenodd" d="M4.05102 12C4.05102 7.6099 7.6099 4.05102 12 4.05102C16.3901 4.05102 19.949 7.6099 19.949 12C19.949 16.3901 16.3901 19.949 12 19.949C7.6099 19.949 4.05102 16.3901 4.05102 12ZM12 2.5C6.7533 2.5 2.5 6.7533 2.5 12C2.5 17.2467 6.7533 21.5 12 21.5C17.2467 21.5 21.5 17.2467 21.5 12C21.5 6.7533 17.2467 2.5 12 2.5ZM13.954 8.70314L12 7.61603L10.046 8.70314L8.95402 8.07376L12 6.30005L15.046 8.07376L13.954 8.70314ZM15.8506 8.53149L14.7586 9.16087L15.8506 9.79025V11.1062L16.9425 10.4769V9.16087L15.8506 8.53149ZM13.092 9.16087L12 8.53149L10.908 9.16087L12 9.79025L13.092 9.16087ZM13.092 12.6511L15.046 11.564V10.248L13.954 9.61861L12 10.7057L10.046 9.61861L8.95402 10.248V11.564L10.908 12.6511V14.8825L12 15.5119L13.092 14.8825V12.6511ZM17 11.3923L15.8506 12.0217V14.2531L13.954 15.3403V16.6562L17 14.8825V11.3923ZM15.046 12.4794L13.954 13.1088V14.4248L15.046 13.7954V12.4794ZM12 16.4274L10.908 15.798V17.114L12 17.7433L13.092 17.114V15.798L12 16.4274ZM7 9.16087V10.4769L8.09195 11.1062V9.79025L9.24138 9.16087L8.14943 8.53149L7 9.16087ZM10.1034 15.3403L8.14943 14.2531V12.0217L7.05747 11.3923V14.8825L10.1034 16.6562V15.3403ZM8.95402 13.7954L10.046 14.4248V13.1088L8.95402 12.4794V13.7954Z" fill="#1F2223"/>
</svg>
