<svg width="24" height="24" viewBox="0 0 24 24" fill="none" xmlns="http://www.w3.org/2000/svg">
<path fill-rule="evenodd" clip-rule="evenodd" d="M4.05102 12C4.05102 7.6099 7.6099 4.05102 12 4.05102C16.3901 4.05102 19.949 7.6099 19.949 12C19.949 16.3901 16.3901 19.949 12 19.949C7.6099 19.949 4.05102 16.3901 4.05102 12ZM12 2.5C6.7533 2.5 2.5 6.7533 2.5 12C2.5 17.2467 6.7533 21.5 12 21.5C17.2467 21.5 21.5 17.2467 21.5 12C21.5 6.7533 17.2467 2.5 12 2.5ZM8.928 10.0721L11.9999 7L15.0729 10.0732L13.943 11.2031L11.9999 9.26016L10.058 11.2021L8.928 10.0721ZM8.12998 13.1298L7 11.9998L8.12998 10.8698L9.25995 11.9998L8.12998 13.1298ZM11.9999 14.74L10.058 12.7981L8.92627 13.9265L8.92793 13.9281L11.9999 17.0001L15.0729 13.9271L13.9429 12.7971L11.9999 14.74ZM15.87 13.1302L14.7401 12.0002L15.87 10.8702L17 12.0002L15.87 13.1302ZM13.1461 11.9994L11.9999 10.8527L11.1526 11.7001L11.0552 11.7975L10.8543 11.9984L10.8527 12L10.8543 12.0016L11.9999 13.1473L13.1466 12.0006L13.1461 11.9994Z" fill="#404244"/>
</svg>
