<svg width="24" height="24" viewBox="0 0 24 24" fill="none" xmlns="http://www.w3.org/2000/svg">
<path fill-rule="evenodd" clip-rule="evenodd" d="M4.05102 12C4.05102 7.6099 7.6099 4.05102 12 4.05102C16.3901 4.05102 19.949 7.6099 19.949 12C19.949 16.3901 16.3901 19.949 12 19.949C7.6099 19.949 4.05102 16.3901 4.05102 12ZM12 2.5C6.7533 2.5 2.5 6.7533 2.5 12C2.5 17.2467 6.7533 21.5 12 21.5C17.2467 21.5 21.5 17.2467 21.5 12C21.5 6.7533 17.2467 2.5 12 2.5ZM8.33194 10.5929C8.5288 10.7244 8.76023 10.7946 8.99695 10.7945C9.3143 10.7943 9.6186 10.6682 9.84297 10.4438C10.0673 10.2193 10.1934 9.915 10.1935 9.59766C10.1935 9.36093 10.1233 9.12952 9.99177 8.93269C9.86025 8.73587 9.67331 8.58246 9.45459 8.49189C9.23588 8.40131 8.99522 8.37762 8.76305 8.42383C8.53087 8.47003 8.31762 8.58405 8.15025 8.75147C7.98288 8.91888 7.86891 9.13216 7.82277 9.36435C7.77662 9.59653 7.80036 9.83719 7.891 10.0559C7.98163 10.2746 8.13508 10.4615 8.33194 10.5929ZM11.3353 16.5982C11.5321 16.7297 11.7635 16.7999 12.0001 16.7999C12.3175 16.7999 12.6218 16.6738 12.8462 16.4494C13.0706 16.225 13.1967 15.9207 13.1967 15.6034C13.1967 15.3667 13.1265 15.1354 12.995 14.9386C12.8635 14.7418 12.6766 14.5885 12.458 14.4979C12.2394 14.4073 11.9988 14.3836 11.7667 14.4298C11.5346 14.476 11.3214 14.5899 11.154 14.7573C10.9867 14.9246 10.8727 15.1378 10.8266 15.3699C10.7804 15.602 10.8041 15.8426 10.8946 16.0613C10.9852 16.2799 11.1386 16.4668 11.3353 16.5982ZM11.3353 13.5951C11.5321 13.7266 11.7635 13.7967 12.0001 13.7967V13.7977C12.1573 13.7977 12.313 13.7667 12.4582 13.7065C12.6034 13.6463 12.7354 13.5581 12.8465 13.4469C12.9576 13.3357 13.0458 13.2037 13.1058 13.0584C13.1659 12.9131 13.1968 12.7574 13.1967 12.6002C13.1967 12.3636 13.1265 12.1322 12.995 11.9354C12.8635 11.7387 12.6766 11.5853 12.458 11.4947C12.2394 11.4042 11.9988 11.3805 11.7667 11.4267C11.5346 11.4728 11.3214 11.5868 11.154 11.7541C10.9867 11.9215 10.8727 12.1347 10.8266 12.3668C10.7804 12.5989 10.8041 12.8395 10.8946 13.0581C10.9852 13.2767 11.1386 13.4636 11.3353 13.5951ZM11.3351 10.592C11.532 10.7235 11.7634 10.7937 12.0001 10.7936V10.7945C12.1573 10.7945 12.313 10.7634 12.4582 10.7032C12.6035 10.643 12.7354 10.5548 12.8465 10.4435C12.9576 10.3323 13.0458 10.2003 13.1058 10.055C13.1659 9.90968 13.1968 9.75397 13.1967 9.59675C13.1967 9.36002 13.1264 9.12861 12.9949 8.93179C12.8634 8.73496 12.6765 8.58156 12.4577 8.49098C12.239 8.4004 11.9984 8.37672 11.7662 8.42292C11.534 8.46913 11.3208 8.58315 11.1534 8.75056C10.986 8.91797 10.8721 9.13126 10.8259 9.36344C10.7798 9.59563 10.8035 9.83628 10.8941 10.055C10.9848 10.2737 11.1382 10.4606 11.3351 10.592ZM14.3383 10.5919C14.5351 10.7234 14.7665 10.7936 15.0033 10.7936V10.7945C15.1605 10.7945 15.3162 10.7635 15.4615 10.7033C15.6068 10.6431 15.7387 10.5549 15.8499 10.4436C15.961 10.3324 16.0492 10.2004 16.1093 10.055C16.1694 9.90973 16.2002 9.754 16.2001 9.59675C16.2001 9.36003 16.1299 9.12864 15.9984 8.93182C15.8669 8.735 15.68 8.58159 15.4613 8.49101C15.2426 8.40042 15.0019 8.37672 14.7698 8.4229C14.5376 8.46908 14.3243 8.58307 14.157 8.75045C13.9896 8.91783 13.8756 9.13109 13.8294 9.36326C13.7832 9.59542 13.8069 9.83607 13.8975 10.0548C13.9881 10.2735 14.1415 10.4604 14.3383 10.5919Z" fill="#1F2223"/>
</svg>
