<svg width="24" height="24" viewBox="0 0 24 24" fill="none" xmlns="http://www.w3.org/2000/svg">
<path fill-rule="evenodd" clip-rule="evenodd" d="M11.9961 19.123C4.89513 19.123 2.49609 11.998 2.49609 11.998C2.49609 11.998 4.82357 4.87305 11.9961 4.87305C19.1686 4.87305 21.4961 11.998 21.4961 11.998C21.4961 11.998 19.0971 19.123 11.9961 19.123ZM4.23268 12.4824C4.13894 12.296 4.06213 12.1303 4.00127 11.992C4.06054 11.8546 4.13537 11.6902 4.22681 11.5053C4.52177 10.9087 4.98074 10.1163 5.63367 9.32968C6.92951 7.76843 8.94127 6.27305 11.9961 6.27305C15.0509 6.27305 17.0627 7.76843 18.3585 9.32968C19.0114 10.1163 19.4704 10.9087 19.7654 11.5053C19.8568 11.6902 19.9316 11.8546 19.9909 11.992C19.9301 12.1303 19.8532 12.296 19.7595 12.4824C19.4588 13.0804 18.9928 13.8747 18.3343 14.6632C17.0254 16.2308 15.012 17.723 11.9961 17.723C8.9802 17.723 6.9668 16.2308 5.65785 14.6632C4.99941 13.8747 4.53338 13.0804 4.23268 12.4824ZM11.9954 14.9712C13.6356 14.9712 14.9653 13.6415 14.9653 12.0012C14.9653 10.361 13.6356 9.03125 11.9954 9.03125C10.3551 9.03125 9.02539 10.361 9.02539 12.0012C9.02539 13.6415 10.3551 14.9712 11.9954 14.9712Z" fill="#D3D5D9"/>
</svg>
