<svg width="24" height="24" viewBox="0 0 24 24" fill="none" xmlns="http://www.w3.org/2000/svg">
<path d="M12.0063 7.13227C9.31166 7.13227 7.13649 9.30744 7.13649 12.0021C7.13649 14.6968 9.31166 16.872 12.0063 16.872C14.701 16.872 16.8762 14.6968 16.8762 12.0021C16.8762 9.30744 14.701 7.13227 12.0063 7.13227ZM12.0063 15.1698C10.262 15.1698 8.83861 13.7507 8.83861 12.0021C8.83861 10.2535 10.2578 8.83439 12.0063 8.83439C13.7549 8.83439 15.1741 10.2535 15.1741 12.0021C15.1741 13.7507 13.7465 15.1698 12.0063 15.1698ZM18.2108 6.92953C18.2108 7.56308 17.704 8.06569 17.0747 8.06569C16.4411 8.06569 15.9385 7.55885 15.9385 6.92953C15.9385 6.30021 16.4454 5.79338 17.0747 5.79338C17.704 5.79338 18.2108 6.30443 18.2108 6.92953ZM21.4377 8.08258C21.3659 6.56208 21.0196 5.21051 19.9045 4.0997C18.7937 2.98889 17.4464 2.64255 15.9216 2.56652C14.3547 2.47783 9.64955 2.47783 8.08258 2.56652C6.5663 2.63832 5.21474 2.98466 4.0997 4.09548C2.98466 5.20629 2.64255 6.55363 2.56652 8.07836C2.47783 9.64533 2.47783 14.3505 2.56652 15.9174C2.63832 17.4379 2.98466 18.7895 4.0997 19.9003C5.21474 21.0111 6.55785 21.3575 8.08258 21.4335C9.64955 21.5222 14.3547 21.5222 15.9216 21.4335C17.4421 21.3617 18.7937 21.0153 19.9045 19.9003C21.0153 18.7895 21.3617 17.4421 21.4377 15.9174C21.5264 14.3505 21.5264 9.65377 21.4377 8.08258ZM19.4104 17.6026C19.0809 18.4347 18.4389 19.0725 17.6026 19.4104C16.3525 19.9045 13.3832 19.7905 12.0021 19.7905C10.621 19.7905 7.64755 19.9003 6.40158 19.4104C5.56952 19.0809 4.93176 18.4389 4.59386 17.6026C4.0997 16.3525 4.21374 13.3832 4.21374 12.0021C4.21374 10.621 4.10392 7.64755 4.59386 6.40158C4.92331 5.56952 5.5653 4.93176 6.40158 4.59386C7.65177 4.0997 10.621 4.21374 12.0021 4.21374C13.3832 4.21374 16.3567 4.10392 17.6026 4.59386C18.4347 4.92331 19.0725 5.5653 19.4104 6.40158C19.9045 7.65177 19.7905 10.621 19.7905 12.0021C19.7905 13.3832 19.9087 16.3567 19.4104 17.6026Z" fill="#404244"/>
</svg>
