<svg width="24" height="24" viewBox="0 0 24 24" fill="none" xmlns="http://www.w3.org/2000/svg">
<path fill-rule="evenodd" clip-rule="evenodd" d="M8.03915 18.272C9.1562 18.7917 10.4688 19.123 12 19.123C19.101 19.123 21.5 11.998 21.5 11.998C21.5 11.998 20.7252 9.62606 18.6919 7.61928L17.278 9.03314C17.5022 9.25409 17.7094 9.48232 17.9007 9.71288C18.5167 10.455 18.9516 11.2053 19.2314 11.7712C19.2695 11.8481 19.3044 11.9211 19.3363 11.9897C19.3032 12.0597 19.2669 12.1343 19.2274 12.2129C18.9417 12.7809 18.4996 13.5339 17.8777 14.2787C16.6452 15.7546 14.7868 17.123 12 17.123C11.098 17.123 10.2932 16.9797 9.57546 16.7357L8.03915 18.272ZM7.71075 15.772C7.09075 15.3274 6.56597 14.81 6.12231 14.2787C5.50041 13.5339 5.05826 12.7809 4.77264 12.2129C4.73312 12.1343 4.69684 12.0597 4.66371 11.9897C4.69562 11.9211 4.73054 11.8481 4.76856 11.7712C5.04839 11.2053 5.48332 10.455 6.09927 9.71288C7.31685 8.24591 9.17294 6.87305 12 6.87305C13.4721 6.87305 14.681 7.24531 15.6735 7.80927L17.128 6.35474C15.7938 5.48713 14.1057 4.87305 12 4.87305C4.82748 4.87305 2.5 11.998 2.5 11.998C2.5 11.998 3.54122 15.0904 6.28211 17.2006L7.71075 15.772ZM4.39317 11.3531C4.39243 11.351 4.39226 11.3505 4.39263 11.3516L4.39317 11.3531ZM19.6074 11.3516C19.6077 11.3505 19.6076 11.351 19.6068 11.3531L19.6074 11.3516Z" fill="#D3D5D9"/>
<path d="M11.9981 14.9705C13.6384 14.9705 14.9681 13.6408 14.9681 12.0005C14.9681 11.1893 14.6429 10.454 14.1156 9.91797L11.2266 14.8693C11.4726 14.9353 11.7313 14.9705 11.9981 14.9705Z" fill="#D3D5D9"/>
<path fill-rule="evenodd" clip-rule="evenodd" d="M9.29705 13.2426L3.96875 18.5709L5.38296 19.9851L10.6958 14.6723C10.8637 14.7541 11.0405 14.8207 11.2244 14.87L12.2418 13.1262L20.073 5.29507L18.6588 3.88086L13.2373 9.30233C12.8596 9.12831 12.4391 9.03125 11.9959 9.03125C10.3557 9.03125 9.02597 10.361 9.02597 12.0012C9.02597 12.4444 9.12303 12.8649 9.29705 13.2426Z" fill="#D3D5D9"/>
</svg>
