<svg width="24" height="24" viewBox="0 0 24 24" fill="none" xmlns="http://www.w3.org/2000/svg">
<path fill-rule="evenodd" clip-rule="evenodd" d="M4.5 4.1H19.5C19.7209 4.1 19.9 4.27909 19.9 4.5V19.5C19.9 19.7209 19.7209 19.9 19.5 19.9H4.5C4.27909 19.9 4.1 19.7209 4.1 19.5V4.5C4.1 4.27909 4.27909 4.1 4.5 4.1ZM2.5 4.5C2.5 3.39543 3.39543 2.5 4.5 2.5H19.5C20.6046 2.5 21.5 3.39543 21.5 4.5V19.5C21.5 20.6046 20.6046 21.5 19.5 21.5H4.5C3.39543 21.5 2.5 20.6046 2.5 19.5V4.5ZM16.569 16.0713V7.92847H13.5319V12.1927L10.5569 7.92847H7.52136V16.0713H10.5569V11.9719L13.5319 16.0713H16.569Z" fill="#404244"/>
</svg>
