<?xml version="1.0" standalone="no"?>
<!DOCTYPE svg PUBLIC "-//W3C//DTD SVG 1.1//EN" "http://www.w3.org/Graphics/SVG/1.1/DTD/svg11.dtd" >
<svg xmlns="http://www.w3.org/2000/svg">
<defs>
  <font id="hb-icon" horiz-adv-x="1000">
    <font-face font-family="hb-icon"
      units-per-em="1000" ascent="1000"
      descent="0" />
    <missing-glyph horiz-adv-x="0" />
    <glyph glyph-name="ic-account-clear-24-black"
      unicode="&#xEA01;"
      horiz-adv-x="1000" d="M125 500A375 375 0 0 1 875 500A375 375 0 0 1 125 500M631.8166666666666 633.3458333333333C620.7208333333333 644.4408333333333 602.7333333333333 644.4408333333333 591.6374999999999 633.345L499.2375 540.9458333333333L406.83625 633.345C395.7408333333334 644.4408333333333 377.75125 644.4408333333333 366.6554166666667 633.3458333333333C355.5591666666666 622.25 355.55875 604.26 366.6545833333333 593.1637499999999L459.0541666666667 500.7625L366.6545833333333 408.3625000000001C355.55875 397.2666666666667 355.5591666666666 379.2750000000001 366.6554166666667 368.1791666666667C377.75125 357.0833333333334 395.7408333333334 357.0833333333334 406.83625 368.1791666666667L499.2375 460.5791666666668L591.6374999999999 368.1791666666667C602.7333333333333 357.0833333333334 620.7208333333333 357.0833333333334 631.8166666666666 368.1791666666667C642.9124999999999 379.2750000000001 642.9124999999999 397.2666666666667 631.8166666666666 408.3625000000001L539.4166666666666 500.7625L631.8166666666666 593.1637499999999C642.9124999999999 604.26 642.9124999999999 622.25 631.8166666666666 633.3458333333333z" />
    <glyph glyph-name="ic-account-clear-24-grey"
      unicode="&#xEA02;"
      horiz-adv-x="1000" d="M500 125C707.1083333333333 125 875 292.8916666666667 875 500C875 707.1066666666667 707.1083333333333 875 500 875C292.8933333333333 875 125 707.1066666666667 125 500C125 292.8916666666667 292.8933333333333 125 500 125zM591.6374999999999 633.3441666666668C602.7333333333333 644.4395833333333 620.7208333333333 644.44 631.8166666666666 633.3445833333333C642.9124999999999 622.2491666666667 642.9124999999999 604.25875 631.8166666666666 593.1629166666667L539.4166666666666 500.7625L631.8166666666666 408.3583333333334C642.9124999999999 397.2625000000001 642.9124999999999 379.2750000000001 631.8166666666666 368.1791666666667C620.7208333333333 357.0833333333334 602.7333333333333 357.0833333333334 591.6374999999999 368.1791666666667L499.2375 460.5791666666668L406.8370833333333 368.1791666666667C395.7416666666666 357.0833333333334 377.7520833333334 357.0833333333334 366.65625 368.1791666666667C355.56 379.2750000000001 355.5595833333333 397.2625000000001 366.6558333333333 408.3583333333334L459.0541666666667 500.7625L366.6554166666667 593.1629166666667C355.5595833333333 604.2591666666667 355.56 622.2491666666667 366.65625 633.3445833333333C377.7520833333334 644.44 395.7416666666666 644.4395833333333 406.8370833333333 633.3441666666668L499.2375 540.9416666666666L591.6374999999999 633.3441666666668z" />
    <glyph glyph-name="ic-account-clear-24-red"
      unicode="&#xEA03;"
      horiz-adv-x="1000" d="M500 125C707.1083333333333 125 875 292.8916666666667 875 500C875 707.1066666666667 707.1083333333333 875 500 875C292.8933333333333 875 125 707.1066666666667 125 500C125 292.8916666666667 292.8933333333333 125 500 125zM591.6374999999999 633.3441666666668C602.7333333333333 644.4395833333333 620.7208333333333 644.44 631.8166666666666 633.3445833333333C642.9124999999999 622.2491666666667 642.9124999999999 604.25875 631.8166666666666 593.1629166666667L539.4166666666666 500.7625L631.8166666666666 408.3583333333334C642.9124999999999 397.2625000000001 642.9124999999999 379.2750000000001 631.8166666666666 368.1791666666667C620.7208333333333 357.0833333333334 602.7333333333333 357.0833333333334 591.6374999999999 368.1791666666667L499.2375 460.5791666666668L406.8370833333333 368.1791666666667C395.7416666666666 357.0833333333334 377.7520833333334 357.0833333333334 366.65625 368.1791666666667C355.56 379.2750000000001 355.5595833333333 397.2625000000001 366.6558333333333 408.3583333333334L459.0541666666667 500.7625L366.6554166666667 593.1629166666667C355.5595833333333 604.2591666666667 355.56 622.2491666666667 366.65625 633.3445833333333C377.7520833333334 644.44 395.7416666666666 644.4395833333333 406.8370833333333 633.3441666666668L499.2375 540.9416666666666L591.6374999999999 633.3441666666668z" />
    <glyph glyph-name="ic-account-email-36"
      unicode="&#xEA04;"
      horiz-adv-x="1000" d="M83.3333333333333 502.0833333333333C83.3333333333333 732.0836111111112 270 918.7502777777778 500 918.7502777777778C730 918.7502777777778 916.6666666666669 732.0836111111112 916.6666666666669 502.0833333333333V442.5C916.6666666666669 360.4166666666668 852.9166666666666 293.75 770.8333333333334 293.75C721.25 293.75 674.5833333333334 317.9166666666667 647.5 355C610 317.0833333333333 557.5 293.75 500 293.75C385 293.75 291.6666666666667 387.0833333333333 291.6666666666667 502.0833333333333C291.6666666666667 617.0833333333333 385 710.4166666666666 500 710.4166666666666C615 710.4166666666666 708.3333333333334 617.0833333333333 708.3333333333334 502.0833333333333V442.5C708.3333333333334 409.5833333333334 737.9166666666667 377.0833333333333 770.8333333333334 377.0833333333333C803.75 377.0833333333333 833.3333333333334 409.5833333333334 833.3333333333334 442.5V502.0833333333333C833.3333333333334 682.9166666666667 680.8333333333334 835.4169444444444 500 835.4169444444444C319.1666666666667 835.4169444444444 166.6666666666667 682.9166666666667 166.6666666666667 502.0833333333333C166.6666666666667 321.25 319.1666666666667 168.75 500 168.75H708.3333333333334V85.4166666666667H500C270 85.4166666666667 83.3333333333333 272.0833333333334 83.3333333333333 502.0833333333333zM375 502.0833333333333C375 432.9166666666667 430.8333333333333 377.0833333333333 500 377.0833333333333C569.1666666666666 377.0833333333333 625 432.9166666666667 625 502.0833333333333C625 571.25 569.1666666666666 627.0833333333333 500 627.0833333333333C430.8333333333333 627.0833333333333 375 571.25 375 502.0833333333333z" />
    <glyph glyph-name="ic-account-googleotp-36"
      unicode="&#xEA05;"
      horiz-adv-x="1000" d="M0 503.6A496.4 496.4 0 0 1 992.8 503.6A496.4 496.4 0 0 1 0 503.6M496.4 187.7194444444444C321.9194444444445 187.7194444444444 180.52 329.1194444444444 180.52 503.6C180.52 678.0805555555555 321.9194444444445 819.48 496.4 819.48C583.6 819.48 662.5611111111111 784.12 719.7611111111112 726.96L847.4 854.6C757.5611111111111 944.44 633.4388888888889 1000 496.4 1000C222.2400000000001 1000 0 777.76 0 503.6C0 229.4388888888889 222.2400000000001 7.1999999999999 496.4 7.1999999999999C633.4805555555555 7.1999999999999 757.5611111111111 62.7611111111111 847.4388888888889 152.5611111111111L719.8000000000001 280.2C662.5611111111111 223.0805555555555 583.6 187.7194444444444 496.4 187.7194444444444zM812.2805555555556 503.6H654.3194444444445C654.3194444444445 590.8 583.6 661.5611111111111 496.3611111111111 661.5611111111111C409.1194444444445 661.5611111111111 338.4388888888889 590.838888888889 338.4388888888889 503.6C338.4388888888889 461.1194444444444 355.238888888889 422.6 382.5611111111112 394.1611111111112L382.4388888888889 394.0388888888889L578 198.4805555555555L578.0388888888889 198.4388888888889C712.9194444444445 234.4388888888889 812.2805555555556 357.4 812.2805555555556 503.6zM992.7611111111112 503.6H812.2388888888889C812.2388888888889 357.4 712.8388888888888 234.4388888888889 578.0388888888889 198.4388888888889L717.4388888888889 59.0388888888889C880.6388888888889 140.3583333333334 992.7611111111112 308.8805555555556 992.7611111111112 503.6zM496.4 12.8805555555556C223.2 12.8805555555556 1.6 233.6 0.04 506.4388888888889C0.04 505.4805555555555 0 504.5583333333333 0 503.6C0 229.4388888888889 222.2400000000001 7.1999999999999 496.4 7.1999999999999C770.5611111111111 7.1999999999999 992.8 229.4388888888889 992.8 503.6C992.8 504.5583333333333 992.7611111111112 505.4805555555555 992.7611111111112 506.4388888888889C991.2 233.6 769.5611111111111 12.8805555555556 496.4 12.8805555555556zM578.0805555555555 198.4388888888889L582.4805555555556 194.0388888888888C715.0388888888889 231.4805555555556 812.2805555555556 353.3194444444445 812.2805555555556 497.9583333333333V503.6C812.2805555555556 357.4 712.8805555555556 234.4388888888889 578.0805555555555 198.4388888888889zM902.5416666666669 548.7388888888888H496.3833333333334C471.4611111111111 548.7388888888888 451.2611111111111 528.5388888888889 451.2611111111111 503.6194444444444C451.2611111111111 478.6972222222222 471.4611111111111 458.4972222222223 496.3833333333334 458.4972222222223H902.5027777777779C927.4222222222222 458.4972222222223 947.6222222222224 478.6972222222222 947.6222222222224 503.6194444444444C947.6611111111112 528.5388888888889 927.461111111111 548.7388888888888 902.5416666666669 548.7388888888888zM902.5416666666669 548.7388888888888H496.3833333333334C471.4611111111111 548.7388888888888 451.2611111111111 528.5388888888889 451.2611111111111 503.6194444444444C451.2611111111111 478.6972222222222 471.4611111111111 458.4972222222223 496.3833333333334 458.4972222222223H902.5027777777779C927.4222222222222 458.4972222222223 947.6222222222224 478.6972222222222 947.6222222222224 503.6194444444444C947.6611111111112 528.5388888888889 927.461111111111 548.7388888888888 902.5416666666669 548.7388888888888zM56.4 503.6A33.84 33.84 0 0 1 124.08 503.6A33.84 33.84 0 0 1 56.4 503.6M462.5599999999999 909.76A33.84 33.84 0 0 1 530.24 909.76A33.84 33.84 0 0 1 462.5599999999999 909.76M462.5599999999999 97.4805555555556A33.84 33.84 0 0 1 530.24 97.4805555555556A33.84 33.84 0 0 1 462.5599999999999 97.4805555555556M174.8797222222222 790.8008333333333A33.84 33.84 0 0 1 242.5597222222223 790.8008333333333A33.84 33.84 0 0 1 174.8797222222222 790.8008333333333M174.8797222222222 215.9222222222222A33.84 33.84 0 0 1 242.5597222222223 215.9222222222222A33.84 33.84 0 0 1 174.8797222222222 215.9222222222222M750.2405555555556 215.9194444444444A33.84 33.84 0 0 1 817.9205555555557 215.9194444444444A33.84 33.84 0 0 1 750.2405555555556 215.9194444444444M496.4 543.0805555555555H902.5194444444444C926.4805555555554 543.0805555555555 946.0805555555556 524.3583333333333 947.4805555555554 500.7583333333333C947.5194444444446 501.7194444444445 947.638888888889 502.6388888888889 947.638888888889 503.6C947.638888888889 528.5194444444445 927.4388888888888 548.7194444444444 902.5194444444444 548.7194444444444H496.4C471.4805555555555 548.7194444444444 451.2805555555555 528.5194444444445 451.2805555555555 503.6C451.2805555555555 502.6388888888889 451.3194444444444 501.7194444444445 451.4388888888889 500.7583333333333C452.8388888888889 524.3583333333333 472.4 543.0805555555555 496.4 543.0805555555555zM947.4805555555554 500.8C946 477.2388888888888 926.4388888888888 458.4805555555555 902.5194444444444 458.4805555555555H496.4C472.4388888888889 458.4805555555555 452.8388888888889 477.2 451.4388888888889 500.8C451.3194444444444 499.8388888888888 451.2805555555555 498.9194444444444 451.2805555555555 498C451.2805555555555 473.0805555555555 471.4805555555555 452.8805555555555 496.4 452.8805555555555H902.5194444444444C927.4388888888888 452.8805555555555 947.638888888889 473.0805555555555 947.638888888889 498C947.638888888889 498.9194444444444 947.6 499.8388888888888 947.4805555555554 500.8zM496.4 813.8397222222222C583.6 813.8397222222222 662.5611111111111 778.4797222222222 719.7611111111112 721.3194444444443L850.161111111111 851.7997222222223C849.2 852.7597222222222 848.2805555555556 853.7197222222222 847.3611111111111 854.6397222222222L719.7611111111112 726.9997222222222C662.5611111111111 784.1597222222222 583.6 819.5197222222223 496.4 819.5197222222223C321.9194444444445 819.5197222222223 180.52 678.1194444444444 180.52 503.6388888888889C180.52 502.6805555555555 180.56 501.7583333333334 180.56 500.8C182.08 673.9583333333333 322.8805555555556 813.8397222222222 496.4 813.8397222222222zM0 500A500 500 0 0 1 1000 500A500 500 0 0 1 0 500" />
    <glyph glyph-name="ic-identification-step-01"
      unicode="&#xEA06;"
      horiz-adv-x="1000" d="M296.2962962962963 833.3333333333333H703.7037037037037C734.3870370370371 833.3333333333333 759.2592592592592 808.4611111111111 759.2592592592592 777.7777777777778V222.2222222222222C759.2592592592592 191.5388888888889 734.3870370370371 166.6666666666666 703.7037037037037 166.6666666666666H296.2962962962963C265.612962962963 166.6666666666666 240.7407407407408 191.5388888888889 240.7407407407408 222.2222222222222V777.7777777777778C240.7407407407408 808.4611111111111 265.612962962963 833.3333333333333 296.2962962962963 833.3333333333333zM500 222.2222222222222C520.4555555555556 222.2222222222222 537.0370370370371 238.8037037037037 537.0370370370371 259.2592592592593C537.0370370370371 279.7148148148148 520.4555555555556 296.2962962962963 500 296.2962962962963C479.5444444444444 296.2962962962963 462.962962962963 279.7148148148148 462.962962962963 259.2592592592593C462.962962962963 238.8037037037037 479.5444444444444 222.2222222222222 500 222.2222222222222zM761.1111111111112 658.8296296296296C842.9314814814816 658.8296296296296 909.2592592592594 725.1574074074074 909.2592592592594 806.9777777777778C909.2592592592594 888.797962962963 842.9314814814816 955.126111111111 761.1111111111112 955.126111111111C679.2907407407407 955.126111111111 612.962962962963 888.797962962963 612.962962962963 806.9777777777778C612.962962962963 725.1574074074074 679.2907407407407 658.8296296296296 761.1111111111112 658.8296296296296zM707.7981481481481 805.2166666666667L743.3074074074074 770.4611111111111L815.4148148148149 844.5357407407407" />
    <glyph glyph-name="ic-identification-step-02"
      unicode="&#xEA07;"
      horiz-adv-x="1000" d="M185.1851851851852 777.7777777777778H814.8148148148148C855.7240740740741 777.7777777777778 888.8888888888889 744.6129629629629 888.8888888888889 703.7037037037037V259.2592592592593C888.8888888888889 218.35 855.7240740740741 185.1851851851852 814.8148148148148 185.1851851851852H185.1851851851852C144.2751851851852 185.1851851851852 111.1111111111111 218.35 111.1111111111111 259.2592592592593V703.7037037037037C111.1111111111111 744.6129629629629 144.2751851851852 777.7777777777778 185.1851851851852 777.7777777777778zM388.8888888888889 648.1481481481482H240.7407407407408C230.512962962963 648.1481481481482 222.2222222222222 639.8574074074074 222.2222222222222 629.6296296296296V611.1111111111111C222.2222222222222 600.8833333333333 230.512962962963 592.5925925925926 240.7407407407408 592.5925925925926H388.8888888888889C399.1166666666667 592.5925925925926 407.4074074074074 600.8833333333333 407.4074074074074 611.1111111111111V629.6296296296296C407.4074074074074 639.8574074074074 399.1166666666667 648.1481481481482 388.8888888888889 648.1481481481482zM574.0740740740741 537.037037037037H240.7407407407408C230.512962962963 537.037037037037 222.2222222222222 528.7462962962962 222.2222222222222 518.5185185185185V500C222.2222222222222 489.7722222222222 230.512962962963 481.4814814814815 240.7407407407408 481.4814814814815H574.0740740740741C584.3018518518519 481.4814814814815 592.5925925925926 489.7722222222222 592.5925925925926 500V518.5185185185185C592.5925925925926 528.7462962962962 584.3018518518519 537.037037037037 574.0740740740741 537.037037037037z" />
    <glyph glyph-name="ic-identification-step-03"
      unicode="&#xEA08;"
      horiz-adv-x="1000" d="M166.6666666666667 759.2592592592592H740.7407407407408L907.4074074074074 592.5925925925926V240.7407407407408C907.4074074074074 199.8314814814814 874.2425925925926 166.6666666666666 833.3333333333334 166.6666666666666H166.6666666666667C125.7566666666667 166.6666666666666 92.5925925925926 199.8314814814814 92.5925925925926 240.7407407407408V685.1851851851852C92.5925925925926 726.0944444444444 125.7566666666667 759.2592592592592 166.6666666666667 759.2592592592592zM166.6666666666667 759.2592592592592H740.7407407407408L907.4074074074074 592.5925925925926V240.7407407407408C907.4074074074074 199.8314814814814 874.2425925925926 166.6666666666666 833.3333333333334 166.6666666666666H166.6666666666667C125.7566666666667 166.6666666666666 92.5925925925926 199.8314814814814 92.5925925925926 240.7407407407408V685.1851851851852C92.5925925925926 726.0944444444444 125.7566666666667 759.2592592592592 166.6666666666667 759.2592592592592zM740.7407407407408 759.2592592592592V592.5925925925926H907.4074074074074V759.2592592592592H740.7407407407408zM286.9925925925926 504.6592592592592C286.9925925925926 508.3888888888889 285.6333333333334 511.6296296296296 282.912962962963 514.3851851851853C280.1944444444445 517.1407407407407 276.938888888889 518.5185185185185 273.1481481481482 518.5185185185185C269.3574074074074 518.5185185185185 266.1018518518519 517.1407407407407 263.3833333333334 514.3851851851853C260.662962962963 511.6296296296296 259.3037037037037 508.3888888888889 259.3037037037037 504.6592592592592V486.4259259259259L243.2351851851852 495.6648148148147C241.0925925925926 496.7981481481482 238.7851851851852 497.3666666666667 236.312962962963 497.3666666666667C234.9944444444445 497.3666666666667 233.5111111111111 497.1222222222222 231.862962962963 496.637037037037C230.2148148148148 496.15 228.6907407407408 495.3407407407407 227.2907407407408 494.2055555555556C225.8888888888889 493.0703703703704 224.6944444444445 491.6925925925926 223.7055555555556 490.0722222222222C222.7166666666667 488.4518518518519 222.2222222222222 486.4259259259259 222.2222222222222 483.9944444444444C222.2222222222222 478.9685185185185 224.6111111111111 474.9981481481481 229.3907407407408 472.0796296296296L245.4611111111111 462.8407407407408L229.3907407407408 453.8462962962963C227.0833333333333 452.5481481481481 225.312962962963 450.8055555555555 224.0759259259259 448.6185185185185C222.8407407407408 446.4296296296297 222.2222222222222 444.1203703703705 222.2222222222222 441.6888888888889C222.2222222222222 439.2574074074074 222.6759259259259 437.2314814814814 223.5814814814815 435.6111111111111C224.4888888888889 433.988888888889 225.6425925925926 432.6129629629629 227.0425925925927 431.4777777777778C228.4444444444445 430.3425925925925 229.9685185185185 429.5314814814815 231.6166666666667 429.0462962962963C233.2648148148148 428.5592592592592 234.8296296296297 428.3166666666667 236.312962962963 428.3166666666667C238.7851851851852 428.3166666666667 241.0925925925926 428.8833333333334 243.2351851851852 430.0185185185185L259.3037037037037 439.2574074074074V421.0222222222223C259.3037037037037 417.2944444444444 260.662962962963 414.0944444444445 263.3833333333334 411.4185185185185C266.1018518518519 408.7444444444444 269.3574074074074 407.4074074074074 273.1481481481482 407.4074074074074C276.938888888889 407.4074074074074 280.1944444444445 408.7444444444444 282.912962962963 411.4185185185185C285.6333333333334 414.0944444444445 286.9925925925926 417.2944444444444 286.9925925925926 421.0222222222223V439.2574074074074L303.0611111111112 430.0185185185185C304.8740740740741 428.8833333333334 307.1814814814815 428.3166666666667 309.9833333333334 428.3166666666667C311.4666666666667 428.3166666666667 313.0314814814815 428.5592592592592 314.6796296296297 429.0462962962963C316.3277777777779 429.5314814814815 317.8518518518519 430.3425925925925 319.2537037037037 431.4777777777778C320.6537037037038 432.6129629629629 321.8074074074074 433.988888888889 322.7148148148148 435.6111111111111C323.6203703703704 437.2314814814814 324.0740740740741 439.2574074074074 324.0740740740741 441.6888888888889C324.0740740740741 443.9574074074075 323.4981481481482 446.2277777777778 322.3444444444445 448.4962962962964C321.1907407407408 450.7666666666667 319.4592592592593 452.5481481481481 317.1518518518519 453.8462962962963L301.0833333333334 462.8407407407408L317.1518518518519 472.0796296296296C319.4592592592593 473.3777777777777 321.1907407407408 475.1203703703703 322.3444444444445 477.3074074074074C323.4981481481482 479.4962962962964 324.0740740740741 481.7240740740741 324.0740740740741 483.9944444444444C324.0740740740741 488.6944444444445 322.55 492.0981481481481 319.5 494.2055555555556C316.4518518518519 496.3129629629629 313.3611111111112 497.3666666666667 310.2296296296297 497.3666666666667C307.7574074074074 497.3666666666667 305.45 496.7981481481482 303.3074074074074 495.6648148148147L286.9925925925926 486.4259259259259V504.6592592592592zM435.1407407407408 504.6592592592592C435.1407407407408 508.3888888888889 433.7814814814815 511.6296296296296 431.0611111111112 514.3851851851853C428.3425925925926 517.1407407407407 425.087037037037 518.5185185185185 421.2962962962963 518.5185185185185C417.5055555555556 518.5185185185185 414.25 517.1407407407407 411.5314814814815 514.3851851851853C408.8111111111112 511.6296296296296 407.4518518518519 508.3888888888889 407.4518518518519 504.6592592592592V486.4259259259259L391.3833333333334 495.6648148148147C389.2407407407407 496.7981481481482 386.9333333333334 497.3666666666667 384.4611111111111 497.3666666666667C383.1425925925926 497.3666666666667 381.6592592592593 497.1222222222222 380.0111111111112 496.637037037037C378.362962962963 496.15 376.8388888888889 495.3407407407407 375.438888888889 494.2055555555556C374.0370370370371 493.0703703703704 372.8425925925926 491.6925925925926 371.8537037037038 490.0722222222222C370.8648148148149 488.4518518518519 370.3703703703704 486.4259259259259 370.3703703703704 483.9944444444444C370.3703703703704 478.9685185185185 372.7592592592593 474.9981481481481 377.5388888888889 472.0796296296296L393.6092592592593 462.8407407407408L377.5388888888889 453.8462962962963C375.2314814814815 452.5481481481481 373.4611111111111 450.8055555555555 372.2240740740741 448.6185185185185C370.9888888888889 446.4296296296297 370.3703703703704 444.1203703703705 370.3703703703704 441.6888888888889C370.3703703703704 439.2574074074074 370.8240740740741 437.2314814814814 371.7296296296297 435.6111111111111C372.6370370370371 433.988888888889 373.7907407407407 432.6129629629629 375.1907407407408 431.4777777777778C376.5925925925926 430.3425925925925 378.1166666666667 429.5314814814815 379.7648148148149 429.0462962962963C381.412962962963 428.5592592592592 382.9777777777778 428.3166666666667 384.4611111111111 428.3166666666667C386.9333333333334 428.3166666666667 389.2407407407407 428.8833333333334 391.3833333333334 430.0185185185185L407.4518518518519 439.2574074074074V421.0222222222223C407.4518518518519 417.2944444444444 408.8111111111112 414.0944444444445 411.5314814814815 411.4185185185185C414.25 408.7444444444444 417.5055555555556 407.4074074074074 421.2962962962963 407.4074074074074C425.087037037037 407.4074074074074 428.3425925925926 408.7444444444444 431.0611111111112 411.4185185185185C433.7814814814815 414.0944444444445 435.1407407407408 417.2944444444444 435.1407407407408 421.0222222222223V439.2574074074074L451.2092592592593 430.0185185185185C453.0222222222222 428.8833333333334 455.3296296296297 428.3166666666667 458.1314814814815 428.3166666666667C459.6148148148148 428.3166666666667 461.1796296296296 428.5592592592592 462.8277777777778 429.0462962962963C464.475925925926 429.5314814814815 466.0000000000001 430.3425925925925 467.4018518518519 431.4777777777778C468.8018518518519 432.6129629629629 469.9555555555556 433.988888888889 470.862962962963 435.6111111111111C471.7685185185185 437.2314814814814 472.2222222222222 439.2574074074074 472.2222222222222 441.6888888888889C472.2222222222222 443.9574074074075 471.6462962962963 446.2277777777778 470.4925925925926 448.4962962962964C469.3388888888889 450.7666666666667 467.6074074074074 452.5481481481481 465.3 453.8462962962963L449.2314814814815 462.8407407407408L465.3 472.0796296296296C467.6074074074074 473.3777777777777 469.3388888888889 475.1203703703703 470.4925925925926 477.3074074074074C471.6462962962963 479.4962962962964 472.2222222222222 481.7240740740741 472.2222222222222 483.9944444444444C472.2222222222222 488.6944444444445 470.6981481481482 492.0981481481481 467.6481481481482 494.2055555555556C464.6 496.3129629629629 461.5092592592593 497.3666666666667 458.3777777777778 497.3666666666667C455.9055555555556 497.3666666666667 453.5981481481481 496.7981481481482 451.4555555555555 495.6648148148147L435.1407407407408 486.4259259259259V504.6592592592592zM583.2888888888889 504.6592592592592C583.2888888888889 508.3888888888889 581.9296296296296 511.6296296296296 579.2092592592593 514.3851851851853C576.4907407407408 517.1407407407407 573.2351851851852 518.5185185185185 569.4444444444445 518.5185185185185C565.6537037037037 518.5185185185185 562.3981481481482 517.1407407407407 559.6796296296296 514.3851851851853C556.9592592592593 511.6296296296296 555.6 508.3888888888889 555.6 504.6592592592592V486.4259259259259L539.5314814814815 495.6648148148147C537.3888888888889 496.7981481481482 535.0814814814815 497.3666666666667 532.6092592592593 497.3666666666667C531.2907407407407 497.3666666666667 529.8074074074075 497.1222222222222 528.1592592592593 496.637037037037C526.5111111111111 496.15 524.987037037037 495.3407407407407 523.5870370370371 494.2055555555556C522.1851851851852 493.0703703703704 520.9907407407408 491.6925925925926 520.0018518518519 490.0722222222222C519.012962962963 488.4518518518519 518.5185185185185 486.4259259259259 518.5185185185185 483.9944444444444C518.5185185185185 478.9685185185185 520.9074074074074 474.9981481481481 525.687037037037 472.0796296296296L541.7574074074074 462.8407407407408L525.687037037037 453.8462962962963C523.3796296296297 452.5481481481481 521.6092592592593 450.8055555555555 520.3722222222223 448.6185185185185C519.1370370370371 446.4296296296297 518.5185185185185 444.1203703703705 518.5185185185185 441.6888888888889C518.5185185185185 439.2574074074074 518.9722222222223 437.2314814814814 519.8777777777777 435.6111111111111C520.7851851851851 433.988888888889 521.9388888888889 432.6129629629629 523.338888888889 431.4777777777778C524.7407407407408 430.3425925925925 526.2648148148148 429.5314814814815 527.912962962963 429.0462962962963C529.5611111111111 428.5592592592592 531.1259259259259 428.3166666666667 532.6092592592593 428.3166666666667C535.0814814814815 428.3166666666667 537.3888888888889 428.8833333333334 539.5314814814815 430.0185185185185L555.6 439.2574074074074V421.0222222222223C555.6 417.2944444444444 556.9592592592593 414.0944444444445 559.6796296296296 411.4185185185185C562.3981481481482 408.7444444444444 565.6537037037037 407.4074074074074 569.4444444444445 407.4074074074074C573.2351851851852 407.4074074074074 576.4907407407408 408.7444444444444 579.2092592592593 411.4185185185185C581.9296296296296 414.0944444444445 583.2888888888889 417.2944444444444 583.2888888888889 421.0222222222223V439.2574074074074L599.3574074074074 430.0185185185185C601.1703703703704 428.8833333333334 603.4777777777779 428.3166666666667 606.2796296296297 428.3166666666667C607.762962962963 428.3166666666667 609.3277777777778 428.5592592592592 610.9759259259259 429.0462962962963C612.6240740740741 429.5314814814815 614.1481481481482 430.3425925925925 615.55 431.4777777777778C616.95 432.6129629629629 618.1037037037038 433.988888888889 619.0111111111112 435.6111111111111C619.9166666666666 437.2314814814814 620.3703703703704 439.2574074074074 620.3703703703704 441.6888888888889C620.3703703703704 443.9574074074075 619.7944444444444 446.2277777777778 618.6407407407407 448.4962962962964C617.487037037037 450.7666666666667 615.7555555555556 452.5481481481481 613.4481481481481 453.8462962962963L597.3796296296296 462.8407407407408L613.4481481481481 472.0796296296296C615.7555555555556 473.3777777777777 617.487037037037 475.1203703703703 618.6407407407407 477.3074074074074C619.7944444444444 479.4962962962964 620.3703703703704 481.7240740740741 620.3703703703704 483.9944444444444C620.3703703703704 488.6944444444445 618.8462962962964 492.0981481481481 615.7962962962963 494.2055555555556C612.7481481481482 496.3129629629629 609.6574074074075 497.3666666666667 606.525925925926 497.3666666666667C604.0537037037036 497.3666666666667 601.7462962962964 496.7981481481482 599.6037037037037 495.6648148148147L583.2888888888889 486.4259259259259V504.6592592592592zM731.437037037037 504.6592592592592C731.437037037037 508.3888888888889 730.0777777777778 511.6296296296296 727.3574074074073 514.3851851851853C724.6388888888889 517.1407407407407 721.3833333333334 518.5185185185185 717.5925925925926 518.5185185185185C713.8018518518518 518.5185185185185 710.5462962962963 517.1407407407407 707.8277777777779 514.3851851851853C705.1074074074074 511.6296296296296 703.7481481481482 508.3888888888889 703.7481481481482 504.6592592592592V486.4259259259259L687.6796296296297 495.6648148148147C685.5370370370371 496.7981481481482 683.2296296296296 497.3666666666667 680.7574074074074 497.3666666666667C679.438888888889 497.3666666666667 677.9555555555556 497.1222222222222 676.3074074074075 496.637037037037C674.6592592592593 496.15 673.1351851851852 495.3407407407407 671.7351851851852 494.2055555555556C670.3333333333334 493.0703703703704 669.1388888888889 491.6925925925926 668.1500000000001 490.0722222222222C667.161111111111 488.4518518518519 666.6666666666667 486.4259259259259 666.6666666666667 483.9944444444444C666.6666666666667 478.9685185185185 669.0555555555555 474.9981481481481 673.8351851851852 472.0796296296296L689.9055555555556 462.8407407407408L673.8351851851852 453.8462962962963C671.5277777777778 452.5481481481481 669.7574074074074 450.8055555555555 668.5203703703703 448.6185185185185C667.2851851851852 446.4296296296297 666.6666666666667 444.1203703703705 666.6666666666667 441.6888888888889C666.6666666666667 439.2574074074074 667.1203703703704 437.2314814814814 668.0259259259259 435.6111111111111C668.9333333333333 433.988888888889 670.087037037037 432.6129629629629 671.4870370370371 431.4777777777778C672.8888888888889 430.3425925925925 674.412962962963 429.5314814814815 676.0611111111111 429.0462962962963C677.7092592592593 428.5592592592592 679.2740740740741 428.3166666666667 680.7574074074074 428.3166666666667C683.2296296296296 428.3166666666667 685.5370370370371 428.8833333333334 687.6796296296297 430.0185185185185L703.7481481481482 439.2574074074074V421.0222222222223C703.7481481481482 417.2944444444444 705.1074074074074 414.0944444444445 707.8277777777779 411.4185185185185C710.5462962962963 408.7444444444444 713.8018518518518 407.4074074074074 717.5925925925926 407.4074074074074C721.3833333333334 407.4074074074074 724.6388888888889 408.7444444444444 727.3574074074073 411.4185185185185C730.0777777777778 414.0944444444445 731.437037037037 417.2944444444444 731.437037037037 421.0222222222223V439.2574074074074L747.5055555555556 430.0185185185185C749.3185185185185 428.8833333333334 751.625925925926 428.3166666666667 754.4277777777778 428.3166666666667C755.9111111111112 428.3166666666667 757.4759259259259 428.5592592592592 759.1240740740741 429.0462962962963C760.7722222222222 429.5314814814815 762.2962962962963 430.3425925925925 763.6981481481481 431.4777777777778C765.0981481481482 432.6129629629629 766.2518518518519 433.988888888889 767.1592592592593 435.6111111111111C768.0648148148148 437.2314814814814 768.5185185185186 439.2574074074074 768.5185185185186 441.6888888888889C768.5185185185186 443.9574074074075 767.9425925925925 446.2277777777778 766.7888888888889 448.4962962962964C765.6351851851852 450.7666666666667 763.9037037037037 452.5481481481481 761.5962962962963 453.8462962962963L745.5277777777777 462.8407407407408L761.5962962962963 472.0796296296296C763.9037037037037 473.3777777777777 765.6351851851852 475.1203703703703 766.7888888888889 477.3074074074074C767.9425925925925 479.4962962962964 768.5185185185186 481.7240740740741 768.5185185185186 483.9944444444444C768.5185185185186 488.6944444444445 766.9944444444445 492.0981481481481 763.9444444444445 494.2055555555556C760.8962962962963 496.3129629629629 757.8055555555557 497.3666666666667 754.6740740740742 497.3666666666667C752.2018518518518 497.3666666666667 749.8944444444445 496.7981481481482 747.7518518518518 495.6648148148147L731.437037037037 486.4259259259259V504.6592592592592z" />
    <glyph glyph-name="ic-invest-states-caution-18-yellow"
      unicode="&#xEA09;"
      horiz-adv-x="1000" d="M263.5361111111111 914.7277777777778C282.1177777777778 933.7316666666666 307.575 944.4444444444443 334.1538888888889 944.4444444444443H665.8444444444445C692.4222222222222 944.4444444444443 717.8833333333334 933.7316666666666 736.4611111111111 914.7277777777778L916.2944444444446 730.8072222222222C934.338888888889 712.3533333333332 944.4444444444443 687.5688888888889 944.4444444444443 661.7588888888889V338.238888888889C944.4444444444443 312.4333333333333 934.338888888889 287.6444444444444 916.2944444444446 269.1944444444444L736.4611111111111 85.2722222222222C717.8833333333334 66.2666666666665 692.4222222222222 55.5555555555555 665.8444444444445 55.5555555555555H334.1544444444445C307.575 55.5555555555555 282.1177777777778 66.2666666666665 263.5361111111111 85.2722222222222L83.7027777777778 269.1944444444444C65.6588888888889 287.6444444444444 55.5555555555556 312.4333333333333 55.5555555555556 338.238888888889V661.7588888888889C55.5555555555556 687.5688888888889 65.6588888888889 712.3533333333332 83.7027777777778 730.8072222222222L263.5361111111111 914.7277777777778zM458.3333333333334 736.1111111111111C458.3333333333334 759.1227777777777 476.9883333333333 777.7777777777778 500 777.7777777777778C523.0116666666668 777.7777777777778 541.6666666666666 759.1227777777777 541.6666666666666 736.1111111111111V430.5555555555556C541.6666666666666 407.5444444444445 523.0116666666668 388.8888888888889 500 388.8888888888889C476.9883333333333 388.8888888888889 458.3333333333334 407.5444444444445 458.3333333333334 430.5555555555556V736.1111111111111zM444.4444444444445 277.7777777777777C444.4444444444445 308.4611111111111 469.3177777777778 333.3333333333333 500 333.3333333333333C530.6822222222222 333.3333333333333 555.5555555555555 308.4611111111111 555.5555555555555 277.7777777777777C555.5555555555555 247.0944444444445 530.6822222222222 222.2222222222222 500 222.2222222222222C469.3177777777778 222.2222222222222 444.4444444444445 247.0944444444445 444.4444444444445 277.7777777777777z" />
    <glyph glyph-name="ic-invest-states-danger-18-red"
      unicode="&#xEA0A;"
      horiz-adv-x="1000" d="M263.5361111111111 914.7277777777778C282.1177777777778 933.7316666666666 307.575 944.4444444444443 334.1538888888889 944.4444444444443H665.8444444444445C692.4222222222222 944.4444444444443 717.8833333333334 933.7316666666666 736.4611111111111 914.7277777777778L916.2944444444446 730.8072222222222C934.338888888889 712.3533333333332 944.4444444444443 687.5688888888889 944.4444444444443 661.7588888888889V338.238888888889C944.4444444444443 312.4333333333333 934.338888888889 287.6444444444444 916.2944444444446 269.1944444444444L736.4611111111111 85.2722222222222C717.8833333333334 66.2666666666665 692.4222222222222 55.5555555555555 665.8444444444445 55.5555555555555H334.1544444444445C307.575 55.5555555555555 282.1177777777778 66.2666666666665 263.5361111111111 85.2722222222222L83.7027777777778 269.1944444444444C65.6588888888889 287.6444444444444 55.5555555555556 312.4333333333333 55.5555555555556 338.238888888889V661.7588888888889C55.5555555555556 687.5688888888889 65.6588888888889 712.3533333333332 83.7027777777778 730.8072222222222L263.5361111111111 914.7277777777778zM458.3333333333334 736.1111111111111C458.3333333333334 759.1227777777777 476.9883333333333 777.7777777777778 500 777.7777777777778C523.0116666666668 777.7777777777778 541.6666666666666 759.1227777777777 541.6666666666666 736.1111111111111V430.5555555555556C541.6666666666666 407.5444444444445 523.0116666666668 388.8888888888889 500 388.8888888888889C476.9883333333333 388.8888888888889 458.3333333333334 407.5444444444445 458.3333333333334 430.5555555555556V736.1111111111111zM444.4444444444445 277.7777777777777C444.4444444444445 308.4611111111111 469.3177777777778 333.3333333333333 500 333.3333333333333C530.6822222222222 333.3333333333333 555.5555555555555 308.4611111111111 555.5555555555555 277.7777777777777C555.5555555555555 247.0944444444445 530.6822222222222 222.2222222222222 500 222.2222222222222C469.3177777777778 222.2222222222222 444.4444444444445 247.0944444444445 444.4444444444445 277.7777777777777z" />
    <glyph glyph-name="ic-invest-states-normal_18-green"
      unicode="&#xEA0B;"
      horiz-adv-x="1000" d="M55.5555555555556 500C55.5555555555556 745.46 254.54 944.4444444444443 500 944.4444444444443C745.4611111111111 944.4444444444443 944.4444444444443 745.46 944.4444444444443 500C944.4444444444443 254.5388888888889 745.4611111111111 55.5555555555555 500 55.5555555555555C254.54 55.5555555555555 55.5555555555556 254.5388888888889 55.5555555555556 500zM402.7777777777778 364.8611111111111L290.4861111111111 477.1527777777777C277.855 489.7838888888889 257.3866666666667 489.82 244.7111111111111 477.2333333333332C231.9716666666667 464.5838888888889 231.935 443.9888888888888 244.63 431.2944444444444L402.7777777777778 273.15L768.8166666666666 639.1844444444445C781.4333333333333 651.8055555555555 781.4333333333333 672.2683333333333 768.8166666666666 684.8894444444445C756.1944444444445 697.5066666666667 735.7444444444444 697.5116666666667 723.1222222222223 684.9005555555556L402.7777777777778 364.8611111111111z" />
    <glyph glyph-name="ic-my-setting-botname"
      unicode="&#xEA0C;"
      horiz-adv-x="1000" d="M641.465 850H900C955.23 850 1000 805.2284999999999 1000 750V150C1000 94.77 955.23 50 900 50H100C44.77155 50 0 94.77 0 150V750C0 805.2284999999999 44.77155 850 100 850H358.5355C379.127 908.2595 434.689 950 500 950C565.3100000000001 950 620.875 908.2595 641.465 850zM750 425C750 383.5800000000001 716.42 350 675 350C633.58 350 600 383.5800000000001 600 425C600 466.42 633.58 500 675 500C716.42 500 750 466.42 750 425zM325 350C366.4215 350 400 383.5800000000001 400 425C400 466.42 366.4215 500 325 500C283.5785 500 250 466.42 250 425C250 383.5800000000001 283.5785 350 325 350z" />
    <glyph glyph-name="ic-my-setting-delete"
      unicode="&#xEA0D;"
      horiz-adv-x="1000" d="M641.465 850H900C955.23 850 1000 805.2284999999999 1000 750V150C1000 94.77 955.23 50 900 50H100C44.77155 50 0 94.77 0 150V750C0 805.2284999999999 44.77155 850 100 850H358.5355C379.127 908.2595 434.689 950 500 950C565.3100000000001 950 620.875 908.2595 641.465 850zM387.3810000000001 541.6075000000001C376.191 552.797 358.0495 552.797 346.86 541.6075000000001L300 494.745L253.14 541.6075000000001C241.9505 552.797 223.8085 552.797 212.619 541.6075000000001L208.393 537.3820000000001C197.203 526.1925 197.203 508.05 208.393 496.86L255.253 450L208.3935 403.14C197.2035 391.9500000000001 197.204 373.8100000000001 208.394 362.62L212.62 358.395C223.8095 347.2050000000001 241.9515 347.2050000000001 253.141 358.395L300 405.255L346.859 358.395C358.0485 347.2050000000001 376.1905 347.2050000000001 387.38 358.395L391.606 362.62C402.7960000000001 373.8100000000001 402.7965 391.9500000000001 391.6065000000001 403.14L344.747 450L391.607 496.86C402.797 508.05 402.797 526.1925 391.607 537.3820000000001L387.3810000000001 541.6075000000001zM787.38 541.6075000000001C776.1899999999999 552.797 758.05 552.797 746.86 541.6075000000001L700 494.745L653.14 541.6075000000001C641.95 552.797 623.8100000000001 552.797 612.62 541.6075000000001L608.395 537.3820000000001C597.205 526.1925 597.205 508.05 608.395 496.86L655.255 450L608.395 403.14C597.205 391.9500000000001 597.205 373.8100000000001 608.395 362.62L612.62 358.395C623.8100000000001 347.2050000000001 641.95 347.2050000000001 653.14 358.395L700 405.255L746.86 358.395C758.05 347.2050000000001 776.1899999999999 347.2050000000001 787.38 358.395L791.605 362.62C802.7950000000001 373.8100000000001 802.7950000000001 391.9500000000001 791.605 403.14L744.745 450L791.605 496.86C802.7950000000001 508.05 802.7950000000001 526.1925 791.605 537.3820000000001L787.38 541.6075000000001z" />
    <glyph glyph-name="ic-my-setting-referral"
      unicode="&#xEA0E;"
      horiz-adv-x="1000" d="M598.695 639.2339999999999L759.09 822.525C774.335 837.64 778.945 860.251 770.81 879.9865C762.67 899.722 743.355 912.775 721.72 913.1575H719.2249999999999C671.685 913.1575 671.25 872.5695000000001 627.39 876.315C594.325 879.938 583.285 897.0695000000001 573.055 907.017C562.8199999999999 916.9645 546.475 950 500 950C451.8385 950 436.928 917.3945 426.884 907.017C416.8400000000001 896.64 405.673 879.8765 372.6085 876.315C328.9385 872.385 328.315 913.1575 280.7145 913.1575H278.219C256.572 912.799 237.233 899.755 229.08 880.014C220.9265 860.273 225.5345 837.648 240.7875 822.525L401.3060000000001 639.2339999999999C266.9895 508.6274999999999 125 362.3000000000001 125 235.01C125 85.37 265.3055 50 500 50C734.6949999999999 50 875 85.37 875 235.01C875 362.3000000000001 733.01 508.6274999999999 598.695 639.2339999999999z" />
    <glyph glyph-name="ic-my-setting-renewal"
      unicode="&#xEA0F;"
      horiz-adv-x="1000" d="M500 0C776.14 0 1000 223.86 1000 500C1000 776.1425 776.14 1000 500 1000C223.8575 1000 0 776.1425 0 500C0 223.86 223.8575 0 500 0zM738.6999999999999 609.02C752.18 623.608 751.47 646.313 737.1 660.0264999999999C722.4 674.0550000000001 699.055 673.3225 685.265 658.4000000000001L421.8595 373.375L327.314 473.22C313.342 487.9749999999999 289.976 488.375 275.5065 474.11C261.4445 460.245 261.0575 437.6750000000001 274.636 423.3349999999999L396.127 295.04C410.0990000000001 280.2850000000001 433.465 279.885 447.9345 294.15C449.2805 295.48 450.5015 296.885 451.597 298.355L738.6999999999999 609.02z" />
    <glyph glyph-name="ic-my-setting-revocation"
      unicode="&#xEA10;"
      horiz-adv-x="1000" d="M500 0C776.14 0 1000 223.86 1000 500C1000 776.1425 776.14 1000 500 1000C223.8575 1000 0 776.1425 0 500C0 223.86 223.8575 0 500 0zM613.745 679.28C627.01 692.5415 648.51 692.5419999999999 661.77 679.281L666.78 674.2729999999999C680.04 661.0115000000001 680.04 639.5095 666.78 626.2475L540.5350000000001 500L666.78 373.755C680.04 360.49 680.04 338.99 666.78 325.73L661.77 320.7200000000001C648.505 307.4600000000001 627.005 307.4600000000001 613.745 320.7200000000001L487.5 446.9649999999999L361.2545 320.7200000000001C347.993 307.4600000000001 326.4925 307.4600000000001 313.2305 320.7200000000001L308.2225000000001 325.73C294.9600000000001 338.99 294.9595 360.49 308.2215 373.755L434.467 500L308.22 626.2475C294.9580000000001 639.5095 294.9585 661.0115000000001 308.221 674.2729999999999L313.229 679.281C326.491 692.5415 347.9915000000001 692.5415 361.253 679.28L487.5 553.033L613.745 679.28z" />
    <glyph glyph-name="ic-my-setting-withdraw"
      unicode="&#xEA11;"
      horiz-adv-x="1000" d="M37.8834 950H962.1165999999998A37.8834 37.8834 0 0 0 999.9999999999998 912.1166V887.8833999999999A37.8834 37.8834 0 0 0 962.1165999999998 850H37.8833999999999A37.8834 37.8834 0 0 0 -1e-13 887.8833999999999V912.1166A37.8834 37.8834 0 0 0 37.8833999999999 950zM50 850H950V100C950 72.3850000000001 927.6149999999998 50 900 50H100C72.386 50 50 72.3850000000001 50 100L50 850zM682.355 629.2545C700.1949999999999 622.761 710.11 604.138 706.185 586.089L704.765 581.1899999999999L675.1999999999999 500.026L692.5 500C713.21 500 730 483.2099999999999 730 462.5C730 441.7900000000001 713.21 425 692.5 425L647.9 425.025L610.71 322.7750000000001C604.1850000000001 304.85 585.42 294.9250000000001 567.2950000000001 299C554.66 300.04 543.085 307.9600000000001 537.9 320.4700000000001C537.53 321.37 537.195 322.285 536.9 323.2100000000001L493.2 459.825L449.504 323.2100000000001C449.208 322.285 448.8730000000001 321.37 448.501 320.4700000000001C443.019 307.235 430.374 299.135 416.9190000000001 298.8050000000001C399.0305 295.2200000000001 380.7170000000001 305.115 374.2895 322.7750000000001L337.05 425.025L287.5 425C266.7895000000001 425 250 441.7900000000001 250 462.5C250 483.2099999999999 266.7895000000001 500 287.5 500L309.75 500.026L280.234 581.1899999999999C273.1505 600.652 283.185 622.171 302.6465 629.2545C322.108 636.338 343.627 626.3035 350.7105 606.8415L409.1 446.475L454.768 589.4185C455.3955 596.7785 458.1935 603.7855 462.7445 609.5375C469.6030000000001 619.6724999999999 481.2315 625.414 493.2205 624.9375C505.205 625.3985 516.81 619.6585 523.645 609.546C528.21 603.7855 531.005 596.7785 531.635 589.4185L576.6 448.525L634.29 606.8415C641.375 626.3035 662.89 636.338 682.355 629.2545zM682.355 629.2545C700.1949999999999 622.7615000000001 710.11 604.138 706.185 586.089L704.765 581.1899999999999L675.1999999999999 500.026L692.5 500C713.21 500 730 483.2099999999999 730 462.5C730 441.7900000000001 713.21 425 692.5 425L647.9 425.025L610.71 322.7750000000001C604.1850000000001 304.85 585.42 294.9250000000001 567.2950000000001 299C554.66 300.04 543.085 307.9600000000001 537.9 320.4700000000001C537.53 321.37 537.195 322.285 536.9 323.2100000000001L493.2 459.825L449.504 323.2100000000001C449.208 322.285 448.8730000000001 321.37 448.501 320.4700000000001C443.019 307.235 430.374 299.135 416.9190000000001 298.8050000000001C399.0305 295.2200000000001 380.7170000000001 305.115 374.2895 322.7750000000001L337.05 425.025L287.5 425C266.7895000000001 425 250 441.7900000000001 250 462.5C250 483.2099999999999 266.7895000000001 500 287.5 500L309.75 500.026L280.234 581.1899999999999C273.1505 600.652 283.185 622.171 302.6465 629.2545C322.108 636.338 343.627 626.3035 350.7105 606.8415L409.1 446.475L454.768 589.4185C455.396 596.779 458.1935 603.7855 462.7445 609.5375C469.6030000000001 619.673 481.2315 625.4145 493.2205 624.938C505.205 625.3985 516.81 619.6585 523.645 609.546C528.21 603.7855 531.005 596.779 531.635 589.4185L576.6 448.525L634.29 606.8415C641.375 626.3035 662.89 636.338 682.355 629.2545z" />
    <glyph glyph-name="ic-system-add-24-black"
      unicode="&#xEA12;"
      horiz-adv-x="1000" d="M500 920C268.0404 920 80 731.9596 80 500C80 268.04 268.0404 80 500 80C731.96 80 920 268.04 920 500C920 731.9596 731.96 920 500 920zM480 660C480 671.0455999999999 488.956 680 500 680C511.044 680 520 671.0455999999999 520 660V520H660C671.044 520 680 511.044 680 500C680 488.956 671.044 480 660 480H520V340C520 328.956 511.044 320 500 320C488.956 320 480 328.956 480 340V480H340C328.9544 480 320 488.956 320 500C320 511.044 328.9544 520 340 520H480V660z" />
    <glyph glyph-name="ic-system-arrow-down-18-black-1"
      unicode="&#xEA13;"
      horiz-adv-x="1000" d="M748.3166666666667 609.4261111111111C732.0444444444445 625.6977777777777 705.6611111111112 625.6977777777777 689.3888888888889 609.4261111111111L511.0983333333333 431.1333333333334L332.8077777777778 609.4261111111111C316.5355555555556 625.6977777777777 290.1538888888889 625.6977777777777 273.8822222222222 609.4261111111111C257.61 593.1544444444444 257.61 566.7722222222222 273.8822222222222 550.5005555555556L480.1216666666667 344.2611111111111C488.6422222222222 335.738888888889 499.9361111111111 331.6833333333333 511.0983333333333 332.0833333333333C522.2605555555556 331.6833333333333 533.5538888888889 335.738888888889 542.075 344.2611111111111L748.3166666666667 550.5005555555556C764.588888888889 566.7722222222222 764.588888888889 593.1544444444444 748.3166666666667 609.4261111111111z" />
    <glyph glyph-name="ic-system-arrow-down-18-black"
      unicode="&#xEA14;"
      horiz-adv-x="1000" d="M287.118888888889 593.521111111111C272.2794444444445 611.6583333333333 285.1838888888889 638.8888888888889 308.6177777777778 638.8888888888889H691.3833333333333C714.8166666666667 638.8888888888889 727.7222222222223 611.6583333333333 712.8833333333333 593.521111111111L521.4988888888889 359.6111111111111C510.385 346.0277777777779 489.615 346.0277777777779 478.5011111111111 359.6111111111111L287.118888888889 593.521111111111z" />
    <glyph glyph-name="ic-system-arrow-right-18-black"
      unicode="&#xEA15;"
      horiz-adv-x="1000" d="M390.5744444444445 748.3149999999999C374.3027777777778 732.0433333333333 374.3027777777778 705.661111111111 390.5744444444445 689.3894444444445L568.8666666666667 511.0988888888889L390.5744444444445 332.8055555555556C374.3027777777778 316.5388888888888 374.3027777777778 290.1555555555555 390.5744444444445 273.8833333333334C406.8461111111111 257.6111111111111 433.2283333333334 257.6111111111111 449.5 273.8833333333334L655.7388888888889 480.1216666666667C664.2611111111111 488.6427777777777 668.3166666666667 499.9366666666667 667.9166666666667 511.0988888888889C668.3166666666667 522.2611111111112 664.2611111111111 533.5544444444445 655.7388888888889 542.0755555555556L449.5 748.3149999999999C433.2283333333334 764.5866666666666 406.8461111111111 764.5866666666666 390.5744444444445 748.3149999999999z" />
    <glyph glyph-name="ic-system-arrow-right-24-black"
      unicode="&#xEA16;"
      horiz-adv-x="1000" d="M362.795 779.4629166666666C346.5229166666666 763.1908333333333 346.5229166666666 736.8091666666667 362.795 720.5370833333334L570.2791666666666 513.0541666666667L362.795 305.5708333333335C346.5229166666666 289.3000000000001 346.5229166666666 262.9166666666667 362.795 246.6458333333334C379.0666666666667 230.375 405.44875 230.375 421.7208333333333 246.6458333333334L657.4208333333333 482.35C665.875 490.8 669.9374999999999 501.9791666666667 669.6083333333332 513.0541666666667C669.9374999999999 524.1291666666667 665.875 535.3083333333334 657.4208333333333 543.7625L421.7208333333333 779.4629166666666C405.44875 795.7345833333334 379.0666666666667 795.7345833333334 362.795 779.4629166666666z" />
    <glyph glyph-name="ic-system-arrow-right-24-white"
      unicode="&#xEA17;"
      horiz-adv-x="1000" d="M0 1000H1000V0H0V1000zM362.795 779.4629166666666C346.5229166666666 763.1908333333333 346.5229166666666 736.8091666666667 362.795 720.5370833333334L570.2791666666666 513.0541666666667L362.795 305.5708333333335C346.5229166666666 289.3000000000001 346.5229166666666 262.9166666666667 362.795 246.6458333333334C379.0666666666667 230.375 405.44875 230.375 421.7208333333333 246.6458333333334L657.4208333333333 482.35C665.875 490.8 669.9374999999999 501.9791666666667 669.6083333333332 513.0541666666667C669.9374999999999 524.1291666666667 665.875 535.3083333333334 657.4208333333333 543.7625L421.7208333333333 779.4629166666666C405.44875 795.7345833333334 379.0666666666667 795.7345833333334 362.795 779.4629166666666z" />
    <glyph glyph-name="ic-system-back-24-black"
      unicode="&#xEA18;"
      horiz-adv-x="1000" d="M625 770.8333333333334L333.3333333333333 500L625 229.1666666666668" />
    <glyph glyph-name="ic-system-check-18-black"
      unicode="&#xEA19;"
      horiz-adv-x="1000" d="M375 326.25L230.625 470.6244444444444C214.3844444444445 486.865 188.0683333333333 486.9111111111112 171.7711111111112 470.7283333333334C155.3916666666667 454.465 155.345 427.9888888888888 171.6666666666667 411.6666666666667L375 208.3333333333333L845.6166666666667 678.9511111111111C861.8444444444444 695.1783333333333 861.8444444444444 721.4877777777779 845.6166666666667 737.715C829.3944444444445 753.9366666666666 803.1 753.9427777777778 786.8666666666667 737.7288888888888L375 326.25z" />
    <glyph glyph-name="ic-system-check-18-green"
      unicode="&#xEA1A;"
      horiz-adv-x="1000" d="M375 326.25L230.625 470.6244444444444C214.3844444444445 486.865 188.0683333333333 486.9111111111112 171.7711111111112 470.7283333333334C155.3916666666667 454.465 155.345 427.9888888888888 171.6666666666667 411.6666666666667L375 208.3333333333333L845.6166666666667 678.9511111111111C861.8444444444444 695.1783333333333 861.8444444444444 721.4877777777779 845.6166666666667 737.715C829.3944444444445 753.9366666666666 803.1 753.9427777777778 786.8666666666667 737.7288888888888L375 326.25z" />
    <glyph glyph-name="ic-system-close-24-black"
      unicode="&#xEA1B;"
      horiz-adv-x="1000" d="M750.8666666666667 750L250 249.1333333333334M750.8666666666667 249.1333333333334L250 750" />
    <glyph glyph-name="ic-system-infomation-black"
      unicode="&#xEA1C;"
      horiz-adv-x="1000" d="M500 888.8888888888889H500A388.8888888888889 388.8888888888889 0 0 0 888.8888888888889 500V500A388.8888888888889 388.8888888888889 0 0 0 500 111.1111111111111H500A388.8888888888889 388.8888888888889 0 0 0 111.1111111111111 500V500A388.8888888888889 388.8888888888889 0 0 0 500 888.8888888888889zM458.3333333333334 680.5555555555555C458.3333333333334 703.5672222222222 476.9883333333333 722.2222222222222 500 722.2222222222222C523.0116666666668 722.2222222222222 541.6666666666666 703.5672222222222 541.6666666666666 680.5555555555555V486.1111111111111C541.6666666666666 463.0994444444444 523.0116666666668 444.4444444444445 500 444.4444444444445C476.9883333333333 444.4444444444445 458.3333333333334 463.0994444444444 458.3333333333334 486.1111111111111V680.5555555555555zM444.4444444444445 333.3333333333333C444.4444444444445 364.0166666666667 469.3177777777778 388.8888888888889 500 388.8888888888889C530.6822222222222 388.8888888888889 555.5555555555555 364.0166666666667 555.5555555555555 333.3333333333333C555.5555555555555 302.65 530.6822222222222 277.7777777777777 500 277.7777777777777C469.3177777777778 277.7777777777777 444.4444444444445 302.65 444.4444444444445 333.3333333333333z" />
    <glyph glyph-name="ic-system-menu-24-black"
      unicode="&#xEA1D;"
      horiz-adv-x="1000" d="M125 708.3333333333334C125 731.345 143.655 750 166.6666666666667 750H833.3333333333333C856.3458333333332 750 875 731.345 875 708.3333333333334V687.5C875 664.4883333333333 856.3458333333332 645.8333333333334 833.3333333333333 645.8333333333334H166.6666666666667C143.655 645.8333333333334 125 664.4883333333333 125 687.5V708.3333333333334zM125 333.3333333333334C125 356.3458333333334 143.655 375 166.6666666666667 375H833.3333333333333C856.3458333333332 375 875 356.3458333333334 875 333.3333333333334V312.5C875 289.4875000000001 856.3458333333332 270.8333333333334 833.3333333333333 270.8333333333334H166.6666666666667C143.655 270.8333333333334 125 289.4875000000001 125 312.5V333.3333333333334z" />
    <glyph glyph-name="ic-system-service-binance"
      unicode="&#xEA1E;"
      horiz-adv-x="1000" d="M0 500A500 500 0 0 1 1000 500A500 500 0 0 1 0 500M499.9944444444445 757.1427777777777L342.0111111111111 599.15L400.125 541.036111111111L499.9944444444445 640.9055555555556L599.9250000000001 540.9833333333333L658.0361111111112 599.0916666666667L499.9944444444445 757.1427777777777zM242.8572222222223 500.0055555555555L300.9694444444445 441.8944444444445L359.0833333333333 500.0083333333333L300.9694444444445 558.1194444444444L242.8572222222223 500.0055555555555zM400.125 458.9611111111111L499.9944444444445 359.0888888888889L599.9194444444445 459.0083333333333L658.0611111111111 400.9305555555556L658.0361111111112 400.8944444444445L499.9944444444445 242.8583333333333L342.0083333333334 400.8472222222222L341.9222222222223 400.9277777777777L400.125 458.9611111111111zM640.9166666666667 499.9777777777777L699.025 441.8694444444444L757.1416666666668 499.9777777777777L699.025 558.0944444444444L640.9166666666667 499.9777777777777zM558.9666666666667 500.0305555555556H558.9416666666667L558.9944444444444 500.0027777777777L558.9666666666667 499.9694444444444L499.9972222222223 440.9972222222223L441.0777777777778 499.9166666666666L440.9972222222222 500.0027777777777L441.0777777777778 500.0833333333333L451.4083333333333 510.4111111111111L456.4138888888889 515.4194444444445H456.4166666666667L499.9972222222223 559L558.9666666666667 500.0305555555556z" />
    <glyph glyph-name="ic-system-service-bit"
      unicode="&#xEA1F;"
      horiz-adv-x="1000" d="M0 500A500 500 0 0 1 1000 500A500 500 0 0 1 0 500M555.0444444444445 674.2277777777778C611.7388888888889 669.0083333333333 656.6083333333333 650.7111111111111 661.6055555555555 596.1083333333333C665.3305555555555 556.1527777777778 649.4027777777777 532.1777777777777 623.9111111111112 518.6083333333333C665.7972222222222 508.0416666666667 692.0333333333333 481.8472222222222 686.85 423.2333333333334C680.4527777777778 350.4305555555556 628.7555555555556 330.8916666666667 554.9805555555555 326.4555555555557V278.488888888889H499.8222222222223L499.8527777777778 325.4444444444445C494.0555555555556 325.4444444444445 471.2833333333334 325.8166666666666 448.9111111111111 326.1805555555556C427.3166666666667 326.5333333333333 406.0972222222223 326.8805555555556 400.8805555555556 326.8805555555556H343.75L352.475 381.9388888888889C352.475 381.9388888888889 384.9222222222223 381.4166666666668 384.3638888888889 381.9388888888889C396.7833333333334 381.9722222222223 400.075 391.3333333333334 400.85 397.2055555555555L400.8805555555556 518.1194444444444H405.5083333333334C403.7083333333334 518.3805555555555 402.1222222222222 518.4444444444445 400.8805555555556 518.4444444444445V604.7527777777777C399.2055555555556 614.1138888888888 393.4305555555556 624.9416666666666 375.6388888888889 624.9416666666666C376.1972222222223 625.5638888888889 343.7805555555556 624.911111111111 343.7805555555556 624.911111111111V674.1638888888889L404.2972222222222 674.1305555555556V673.9027777777778C413.2444444444444 673.9027777777778 422.4305555555556 674.0916666666667 431.7694444444445 674.2833333333333L432.2416666666667 674.2944444444445C469.6138888888889 675.5972222222222 492.1416666666667 676.25 499.8222222222223 676.25V718.75H555.0444444444445V674.2277777777778zM486.1416666666667 625.4833333333333L486.1444444444445 625.4833333333333C516.8916666666667 626.3388888888888 579.7861111111112 628.0861111111111 579.7583333333334 579.2777777777778C579.7583333333334 531.588888888889 514.4888888888889 532.6722222222222 484.4472222222223 533.1694444444445C481.675 533.2166666666666 479.2027777777778 533.2555555555555 477.1083333333333 533.2527777777777V625.3027777777777C479.6222222222223 625.3027777777777 482.6777777777778 625.3861111111111 486.1416666666667 625.4833333333333zM477.1083333333333 385.3V486.8388888888888C480.1416666666667 486.8333333333333 483.8333333333333 486.9194444444444 488.0194444444444 487.0166666666667C524.9222222222223 487.8888888888889 600.1888888888889 489.6638888888889 600.1888888888889 436.0527777777778C600.1888888888889 383.4722222222222 521.4722222222222 384.6638888888889 485.5694444444445 385.2083333333333C482.3833333333333 385.2555555555555 479.5361111111112 385.3 477.1083333333333 385.3z" />
    <glyph glyph-name="ic-system-service-eth"
      unicode="&#xEA20;"
      horiz-adv-x="1000" d="M0 500A500 500 0 0 1 1000 500A500 500 0 0 1 0 500M655.7861111111112 494.6944444444445L499.8 780.7194444444444L343.75 494.6944444444445L499.8 392.8472222222222L655.7861111111112 494.6944444444445zM499.8 360.1861111111112L343.75 462.0333333333333L499.8 219.1722222222222L655.9111111111112 462.0333333333333L499.8 360.1861111111112z" />
    <glyph glyph-name="ic-system-service-fb_black"
      unicode="&#xEA21;"
      horiz-adv-x="1000" d="M99.655 950C72.236 950 50 927.764 50 900.345V99.655C50 72.22 72.236 50 99.655 50H531.035V398.0500000000001H413.8795V534.293H531.035V634.5345C531.035 750.7585 602.105 814.069 705.76 814.069C740.69 814.1465000000001 775.6 812.3775 810.345 808.793V687.293H738.98C682.485 687.293 671.465 660.6034999999999 671.465 621.1895V534.4485H806.465L788.9300000000001 398.2050000000001H670.69V50H900.345C927.78 50 950 72.22 950 99.655V900.345C950 927.764 927.78 950 900.345 950H99.655z" />
    <glyph glyph-name="ic-system-service-tether"
      unicode="&#xEA22;"
      horiz-adv-x="1000" d="M500 0C776.1416666666667 0 1000 223.8583333333334 1000 500C1000 776.1424999999999 776.1416666666667 1000 500 1000C223.8575 1000 0 776.1424999999999 0 500C0 223.8583333333334 223.8575 0 500 0zM500.6361111111111 453.3722222222223C535.1999999999999 453.3722222222223 550.6944444444445 454.2722222222222 553.6916666666667 454.4888888888888L553.5916666666667 454.5138888888889C659.6277777777779 459.0777777777778 738.7222222222223 477.0416666666666 738.7222222222223 498.5C738.7222222222223 519.9583333333333 659.6027777777778 537.9222222222222 553.5916666666667 542.5111111111112V472.3555555555555C550.6194444444444 472.0888888888888 534.1 470.7527777777777 501.1111111111111 470.7527777777777C473.6222222222222 470.7527777777777 453.7305555555556 471.8944444444444 446.7833333333333 472.3805555555556V542.5583333333334C340.5472222222222 537.9472222222222 261.2516666666667 520.0083333333334 261.2516666666667 498.5C261.2516666666667 476.9916666666667 340.5472222222222 459.0277777777777 446.7833333333333 454.4888888888888C453.6305555555556 454.175 473.1472222222222 453.3722222222223 500.6361111111111 453.3722222222223zM701.6361111111112 612.5694444444445H553.6916666666667L553.6666666666666 549.7944444444445C673.6972222222222 544.4027777777778 763.8888888888889 521.2944444444445 763.8888888888889 493.5972222222222C763.8888888888889 465.8972222222222 673.6222222222223 442.7888888888889 553.6666666666666 437.425V236.1111111111111H446.7583333333334V437.3499999999999C326.5277777777779 442.738888888889 236.1111111111111 465.85 236.1111111111111 493.5722222222222C236.1111111111111 521.2944444444445 326.5277777777779 544.4277777777777 446.7583333333334 549.7944444444445V612.5694444444445H298.8388888888889V708.3333333333333H701.6361111111112V612.5694444444445zM553.6916666666667 454.4888888888888C550.6944444444445 454.2722222222222 535.1999999999999 453.3722222222223 500.6361111111111 453.3722222222223C473.1472222222222 453.3722222222223 453.6305555555556 454.175 446.7833333333333 454.4888888888888C340.5472222222222 459.0277777777777 261.2516666666667 476.9916666666667 261.2516666666667 498.5C261.2516666666667 520.0083333333334 340.5472222222222 537.9472222222222 446.7833333333333 542.5583333333334V472.3805555555556C453.7305555555556 471.8944444444444 473.6222222222222 470.7527777777777 501.1111111111111 470.7527777777777C534.1 470.7527777777777 550.6194444444444 472.0888888888888 553.5916666666667 472.3555555555555V542.5111111111112C659.6027777777778 537.9222222222222 738.7222222222223 519.9583333333333 738.7222222222223 498.5C738.7222222222223 477.0416666666666 659.6277777777779 459.0777777777778 553.5916666666667 454.5138888888889L553.6916666666667 454.4888888888888zM553.6916666666667 612.5694444444445H701.6361111111112V708.3333333333333H298.8388888888889V612.5694444444445H446.7583333333334V549.7944444444445C326.5277777777779 544.4277777777777 236.1111111111111 521.2944444444445 236.1111111111111 493.5722222222222C236.1111111111111 465.85 326.5277777777779 442.738888888889 446.7583333333334 437.3499999999999V236.1111111111111H553.6666666666666V437.425C673.6222222222223 442.7888888888889 763.8888888888889 465.8972222222222 763.8888888888889 493.5972222222222C763.8888888888889 521.2944444444445 673.6972222222222 544.4027777777778 553.6666666666666 549.7944444444445L553.6916666666667 612.5694444444445z" />
    <glyph glyph-name="ic-system-service-trx"
      unicode="&#xEA23;"
      horiz-adv-x="1000" d="M0 500A500 500 0 0 1 1000 500A500 500 0 0 1 0 500M734.1472222222222 617.525L734.1444444444445 617.5277777777778L734.1444444444445 617.5277777777778C715.7750000000001 635.3722222222223 696.3638888888888 654.2277777777778 679.2333333333333 669.4388888888889L677.4972222222223 670.6527777777778C674.6111111111112 672.9722222222222 671.3555555555556 674.7916666666667 667.8666666666667 676.036111111111L654.6472222222222 678.5027777777777L654.6444444444445 678.5027777777777L654.6416666666667 678.5027777777777C563.4083333333333 695.5333333333333 267.7094444444445 750.7327777777778 261.6266666666667 749.9925C259.8275 749.7405555555556 258.1077777777778 749.0880555555556 256.5941666666667 748.0830555555556L254.9455555555556 746.7808333333332C252.9158333333333 744.7183333333334 251.3738888888889 742.2266666666667 250.4338888888889 739.4891666666667L250 738.3608333333334V732.1977777777778V731.2427777777777C270.0761111111111 675.3166666666666 322.2277777777778 550.4166666666667 370.3833333333334 435.0916666666666L370.3833333333334 435.0888888888889L370.3833333333334 435.0888888888889L370.3833333333334 435.0861111111111C411.0944444444445 337.5888888888889 448.9472222222222 246.9361111111112 462.1444444444444 210.5888888888889L462.15 210.5749999999999C463.8861111111111 205.1888888888889 467.1833333333333 194.9638888888889 473.3361111111111 194.4444444444445H474.725C478.0222222222222 194.4444444444445 492.0777777777778 213.0194444444445 492.0777777777778 213.0194444444445C492.0777777777778 213.0194444444445 743.3555555555556 517.8777777777777 768.7777777777777 550.3416666666667C772.0666666666667 554.3416666666667 774.9722222222223 558.6416666666667 777.4527777777778 563.1888888888889C778.7416666666667 570.425 776.1388888888889 577.8083333333334 770.6 582.6333333333333C759.7777777777778 592.6305555555555 747.2305555555556 604.8166666666666 734.1583333333334 617.5166666666667L734.1555555555556 617.5166666666667L734.1472222222222 617.525zM556.5472222222222 547.1305555555555L663.7888888888889 636.1055555555556L726.6944444444445 578.1194444444445L556.5472222222222 547.1305555555555zM330.2583333333334 704.3333333333333L514.8972222222222 552.9472222222222L628.9972222222221 649.213888888889L330.2583333333334 704.3333333333333zM531.5583333333333 513.2777777777778L720.5333333333333 543.7444444444444L504.4861111111111 283.3333333333333L531.5583333333333 513.2777777777778zM499.4527777777778 524.3L305.1833333333334 689.2305555555556L471.3416666666666 283.1583333333333L499.4527777777778 524.3z" />
    <glyph glyph-name="ic-system-service-twitter-black"
      unicode="&#xEA24;"
      horiz-adv-x="1000" d="M0 900H1000V100H0V900zM314.4915000000001 100C691.87 100 898.23 407.75 898.23 674.6095C898.23 683.3605 898.055 692.0654999999999 897.645 700.7185C937.7 729.2255 972.525 764.799 1000 805.289C963.24 789.2135000000001 923.675 778.383 882.18 773.4965C924.535 798.4970000000001 957.055 838.0525 972.3900000000002 885.2145C932.7450000000002 862.082 888.85 845.254 842.1200000000001 836.194C804.685 875.4455 751.36 900 692.365 900C579.05 900 487.163 809.553 487.163 698.0554999999999C487.163 682.2085 488.9665 666.7925 492.491 652.0070000000001C321.977 660.4465 170.773 740.8135 69.5975 863.0165C51.9565 833.173 41.81085 798.4970000000001 41.81085 761.5035C41.81085 691.4375 78.0345 629.5885000000001 133.1095 593.4014999999999C99.4615 594.419 67.8415 603.5260000000001 40.1917 618.6669999999999C40.14685 617.826 40.14685 616.975 40.14685 616.0875C40.14685 518.27 110.8705 436.615 204.745 418.0950000000001C187.51 413.48 169.378 410.99 150.656 410.99C137.4415 410.99 124.588 412.28 112.091 414.635C138.2035 334.4 213.9415 276.01 303.7580000000001 274.36C233.518 220.1950000000001 145.0665 187.915 48.94245 187.915C32.38255 187.915 16.05925 188.85 0 190.71C90.803 133.4350000000001 198.607 100 314.4915000000001 100z" />
  </font>
</defs>
</svg>
