<svg width="44" height="46" viewBox="0 0 44 46" fill="none" xmlns="http://www.w3.org/2000/svg">
<path fill-rule="evenodd" clip-rule="evenodd" d="M43.1445 2.10297C43.4651 1.79977 43.2644 1.26029 42.8236 1.24026L16.0389 0.0229362C15.7216 0.00851335 15.4162 0.145731 15.2163 0.39262L1.02676 17.9169C0.556903 18.4972 0.865621 19.369 1.59594 19.5243L9.45493 21.1954C10.1635 21.3461 10.4817 22.1767 10.0553 22.7622L3.37833 31.9317C2.92489 32.5544 3.31616 33.4344 4.08224 33.5148L13.1286 34.4651C13.8897 34.5451 14.2826 35.4154 13.8392 36.0391L8.24065 43.914C7.60696 44.8053 8.65885 45.9212 9.58602 45.3412L30.4033 32.3186C31.1656 31.8418 30.9604 30.6797 30.081 30.4927L26.0984 29.6459C25.2677 29.4692 25.0215 28.4029 25.6906 27.8798L31.7888 23.1133C32.4579 22.5903 32.2117 21.524 31.3809 21.3473L26.2383 20.2538C25.4501 20.0862 25.1737 19.103 25.7591 18.5492L43.1445 2.10297Z" fill="#FFC100"/>
</svg>
